<svg width="220" height="60" viewBox="0 0 220 60" fill="none" xmlns="http://www.w3.org/2000/svg">
  <defs>
    <linearGradient id="brandGradient" x1="0%" y1="0%" x2="100%" y2="100%">
      <stop offset="0%" stop-color="#667eea"/>
      <stop offset="50%" stop-color="#7b6ef6"/>
      <stop offset="100%" stop-color="#f5576c"/>
    </linearGradient>
  </defs>
  <rect x="2" y="2" width="216" height="56" rx="12" stroke="url(#brandGradient)" stroke-width="3" fill="white" opacity="0.85"/>
  <path d="M34 42L45 18L56 42H50.5L48.3 37.3H41.6L39.4 42H34ZM42.5 32.7H47.4L45 27L42.5 32.7Z" fill="url(#brandGradient)"/>
  <path d="M66.2 42V18H74.6C81.3 18 85.7 22.2 85.7 29.9C85.7 37.7 81.3 42 74.6 42H66.2ZM71.4 37.4H74.2C77.9 37.4 80.3 34.9 80.3 29.8C80.3 24.8 77.9 22.4 74.2 22.4H71.4V37.4Z" fill="#32344a"/>
  <text x="95" y="36" font-family="'Segoe UI', Arial, sans-serif" font-size="18" font-weight="700" fill="#1f2a44">ALPHA FREIGHT</text>
  <text x="95" y="48" font-family="'Segoe UI', Arial, sans-serif" font-size="9" letter-spacing="2" fill="#7b6ef6">SOLUTIONS</text>
</svg>

