<svg xmlns="http://www.w3.org/2000/svg" width="421" height="100" fill="none"><path fill="#1C1C1C" fill-rule="evenodd" d="M0 50c29.133 0 45.833-16.7 45.833-45.833C45.833 33.3 62.534 50 91.667 50c-29.133 0-45.834 16.701-45.834 45.834C45.833 66.7 29.133 50 0 50Z" clip-rule="evenodd"/><path fill="#1C1C1C" d="m109.771 70.644 16-43.75h9l16 43.75h-8.5l-3.5-10.125h-17.062l-3.563 10.125h-8.375Zm14.125-16.375h12.688l-6.375-18.187-6.313 18.188Zm42.921 17.125c-3.166 0-5.958-.687-8.375-2.062-2.416-1.375-4.333-3.292-5.75-5.75-1.375-2.458-2.062-5.27-2.062-8.438 0-3.166.687-5.979 2.062-8.437 1.417-2.458 3.334-4.375 5.75-5.75 2.417-1.375 5.209-2.063 8.375-2.063 3.959 0 7.292 1.042 10 3.126 2.709 2.041 4.438 4.874 5.188 8.5h-8.438c-.416-1.5-1.25-2.667-2.5-3.5-1.208-.876-2.645-1.313-4.312-1.313-2.208 0-4.083.833-5.625 2.5-1.542 1.667-2.313 3.98-2.313 6.938 0 2.958.771 5.27 2.313 6.937 1.542 1.667 3.417 2.5 5.625 2.5 1.667 0 3.104-.417 4.312-1.25 1.25-.833 2.084-2.02 2.5-3.563h8.438c-.75 3.5-2.479 6.313-5.188 8.438-2.708 2.125-6.041 3.188-10 3.188Zm19.163-.75v-31h7.063l.687 4.188c1-1.5 2.313-2.688 3.938-3.563 1.667-.916 3.583-1.374 5.75-1.374 4.792 0 8.187 1.854 10.187 5.562 1.125-1.708 2.625-3.063 4.5-4.063 1.917-1 4-1.5 6.25-1.5 4.042 0 7.146 1.209 9.313 3.626 2.167 2.416 3.25 5.958 3.25 10.624v17.5h-8v-16.75c0-2.666-.521-4.708-1.563-6.124-1-1.417-2.562-2.126-4.687-2.126-2.167 0-3.917.792-5.25 2.376-1.292 1.583-1.938 3.791-1.938 6.624v16h-8v-16.75c0-2.666-.52-4.708-1.562-6.124-1.042-1.417-2.646-2.126-4.813-2.126-2.125 0-3.854.792-5.187 2.376-1.292 1.583-1.938 3.791-1.938 6.624v16h-8Zm70.471.75c-3.125 0-5.896-.666-8.313-2-2.416-1.333-4.312-3.208-5.687-5.625-1.375-2.416-2.063-5.208-2.063-8.374 0-3.209.667-6.063 2-8.563 1.375-2.5 3.25-4.438 5.625-5.813 2.417-1.416 5.25-2.124 8.5-2.124 3.042 0 5.729.666 8.063 2 2.333 1.333 4.146 3.166 5.437 5.5 1.334 2.291 2 4.854 2 7.687 0 .458-.021.938-.062 1.438 0 .5-.021 1.02-.063 1.562h-23.562c.166 2.417 1 4.313 2.5 5.688 1.541 1.374 3.396 2.062 5.562 2.062 1.625 0 2.979-.354 4.063-1.062 1.125-.75 1.958-1.709 2.5-2.876h8.125c-.584 1.959-1.563 3.75-2.938 5.375-1.333 1.584-3 2.834-5 3.75-1.958.917-4.187 1.375-6.687 1.375Zm.062-26c-1.958 0-3.687.563-5.187 1.688-1.5 1.083-2.459 2.75-2.875 5h15.437c-.125-2.042-.875-3.667-2.25-4.875-1.375-1.208-3.083-1.813-5.125-1.813Zm50.871 26c-4.416 0-8.208-.937-11.375-2.812-3.166-1.917-5.604-4.563-7.312-7.937-1.709-3.417-2.563-7.355-2.563-11.813s.854-8.396 2.563-11.813c1.708-3.416 4.146-6.083 7.312-8 3.167-1.916 6.959-2.874 11.375-2.874 5.25 0 9.542 1.312 12.875 3.937 3.375 2.583 5.479 6.23 6.313 10.938h-8.813c-.541-2.376-1.708-4.23-3.5-5.563-1.75-1.375-4.083-2.063-7-2.063-4.041 0-7.208 1.376-9.5 4.126-2.291 2.75-3.437 6.52-3.437 11.312s1.146 8.563 3.437 11.313c2.292 2.708 5.459 4.062 9.5 4.062 2.917 0 5.25-.625 7-1.875 1.792-1.292 2.959-3.063 3.5-5.313h8.813c-.834 4.5-2.938 8.021-6.313 10.563-3.333 2.542-7.625 3.813-12.875 3.813Zm37.832 0c-3 0-5.708-.687-8.125-2.062-2.375-1.375-4.271-3.27-5.688-5.687-1.375-2.459-2.062-5.292-2.062-8.5 0-3.209.708-6.021 2.125-8.438 1.416-2.458 3.312-4.375 5.687-5.75 2.417-1.375 5.125-2.063 8.125-2.063 2.959 0 5.625.688 8 2.063 2.417 1.375 4.313 3.292 5.688 5.75 1.417 2.417 2.125 5.23 2.125 8.438s-.708 6.041-2.125 8.5a14.914 14.914 0 0 1-5.688 5.687c-2.416 1.375-5.104 2.063-8.062 2.063Zm0-6.937c2.083 0 3.896-.77 5.437-2.312 1.542-1.584 2.313-3.917 2.313-7 0-3.084-.771-5.396-2.313-6.938-1.541-1.583-3.333-2.375-5.375-2.375-2.125 0-3.958.792-5.5 2.375-1.5 1.542-2.25 3.854-2.25 6.938 0 3.083.75 5.416 2.25 7 1.542 1.541 3.354 2.312 5.438 2.312Zm19.903 6.187v-31h7.125l.75 5.813c1.125-2 2.645-3.583 4.562-4.75 1.958-1.208 4.25-1.813 6.875-1.813v8.438h-2.25c-1.75 0-3.312.27-4.687.813-1.375.541-2.459 1.479-3.25 2.812-.75 1.333-1.125 3.188-1.125 5.563v14.124h-8Zm21.655 13.75v-44.75h7.125l.875 4.438c1-1.375 2.312-2.583 3.937-3.625 1.667-1.042 3.813-1.563 6.438-1.563 2.917 0 5.521.709 7.812 2.126 2.292 1.416 4.105 3.354 5.438 5.812 1.333 2.458 2 5.25 2 8.375s-.667 5.917-2 8.375c-1.333 2.417-3.146 4.333-5.438 5.75-2.291 1.375-4.895 2.063-7.812 2.063-2.333 0-4.375-.438-6.125-1.313s-3.167-2.104-4.25-3.688v18h-8Zm16.687-20c2.542 0 4.646-.854 6.313-2.562 1.667-1.708 2.5-3.917 2.5-6.625s-.833-4.938-2.5-6.688-3.771-2.624-6.313-2.624c-2.583 0-4.708.874-6.375 2.624-1.625 1.709-2.437 3.917-2.437 6.626 0 2.708.812 4.937 2.437 6.687 1.667 1.708 3.792 2.562 6.375 2.562Z"/></svg>