<svg xmlns="http://www.w3.org/2000/svg" width="394" height="100" fill="none"><path fill="#1C1C1C" d="M44.958 8.334c-7.583 0-13.708 6.05-13.708 13.542 0 7.433 6.125 13.484 13.65 13.541a3.402 3.402 0 0 1-3.325-3.4c0-1.844 1.517-3.4 3.442-3.4h34.3c5.658 0 10.266-4.552 10.266-10.141 0-5.59-4.608-10.142-10.266-10.142H44.958Z"/><path fill="#1C1C1C" d="M28.291 35.417c-7.583 0-13.708 6.05-13.708 13.542 0 7.433 6.125 13.484 13.65 13.541a3.402 3.402 0 0 1-3.325-3.4c0-1.843 1.517-3.4 3.442-3.4h34.3c5.658 0 10.266-4.552 10.266-10.141 0-5.59-4.608-10.142-10.266-10.142H28.29Z" opacity=".9"/><path fill="#1C1C1C" d="M16.77 62.5c-8.124 0-14.687 6.516-14.687 14.583 0 8.006 6.563 14.522 14.625 14.584a3.655 3.655 0 0 1-3.562-3.662 3.68 3.68 0 0 1 3.687-3.661h36.75c6.063 0 11-4.902 11-10.922 0-6.02-4.938-10.922-11-10.922H16.77Z" opacity=".8"/><path fill="#1C1C1C" d="M110.375 70.644v-43.75H138.5v7.5h-19.875v10.438h18.125v7.5h-18.125v10.813h20.25v7.5h-28.5Zm31.732 12.5v-43.5h7.75v3.75h1.125c.708-1.208 1.812-2.27 3.312-3.187 1.5-.958 3.646-1.438 6.438-1.438 2.5 0 4.812.626 6.937 1.876 2.125 1.208 3.834 3 5.125 5.374 1.292 2.376 1.938 5.25 1.938 8.626v1c0 3.374-.646 6.25-1.938 8.624-1.291 2.375-3 4.188-5.125 5.438-2.125 1.208-4.437 1.813-6.937 1.813-1.875 0-3.458-.23-4.75-.688-1.25-.417-2.271-.958-3.063-1.625-.75-.708-1.354-1.417-1.812-2.125h-1.125v16.063h-7.875Zm16.25-18.5c2.458 0 4.479-.77 6.062-2.312 1.625-1.583 2.438-3.875 2.438-6.875v-.625c0-3-.813-5.27-2.438-6.813-1.625-1.583-3.645-2.374-6.062-2.374-2.417 0-4.438.791-6.063 2.374-1.625 1.542-2.437 3.813-2.437 6.813v.625c0 3 .812 5.292 2.437 6.875 1.625 1.542 3.646 2.312 6.063 2.312Zm20.481 6v-31h7.875v31h-7.875Zm3.937-34.625c-1.416 0-2.625-.458-3.625-1.374-.958-.917-1.437-2.126-1.437-3.626s.479-2.708 1.437-3.624c1-.917 2.209-1.375 3.625-1.375 1.459 0 2.667.458 3.625 1.375.959.916 1.438 2.125 1.438 3.625s-.479 2.708-1.438 3.625c-.958.916-2.166 1.374-3.625 1.374Zm24.102 35.501c-3 0-5.729-.626-8.188-1.876-2.416-1.25-4.333-3.062-5.75-5.437-1.416-2.375-2.125-5.25-2.125-8.625v-.875c0-3.375.709-6.25 2.125-8.625 1.417-2.375 3.334-4.188 5.75-5.438 2.459-1.25 5.188-1.874 8.188-1.874 2.958 0 5.5.52 7.625 1.562s3.833 2.48 5.125 4.313c1.333 1.791 2.208 3.833 2.625 6.124l-7.625 1.626c-.167-1.25-.542-2.376-1.125-3.376s-1.417-1.791-2.5-2.374c-1.042-.584-2.354-.876-3.938-.876-1.583 0-3.02.355-4.312 1.063-1.25.667-2.25 1.688-3 3.063-.708 1.333-1.063 2.979-1.063 4.937v.625c0 1.958.355 3.625 1.063 5 .75 1.333 1.75 2.354 3 3.063 1.292.666 2.729 1 4.312 1 2.375 0 4.167-.605 5.375-1.813 1.25-1.25 2.042-2.875 2.375-4.875l7.625 1.813a17.153 17.153 0 0 1-2.812 6.062c-1.292 1.792-3 3.208-5.125 4.25-2.125 1.042-4.667 1.563-7.625 1.563Zm30.746-.376c-2.417 0-4.542-.541-6.375-1.625-1.792-1.125-3.187-2.666-4.187-4.625-1-1.958-1.5-4.208-1.5-6.75v-18.5h7.875V57.52c0 2.333.562 4.083 1.687 5.25 1.167 1.166 2.813 1.75 4.938 1.75 2.416 0 4.291-.792 5.625-2.375 1.333-1.626 2-3.876 2-6.75v-15.75h7.875v31h-7.75v-4.063h-1.125c-.5 1.042-1.438 2.063-2.813 3.063-1.375 1-3.458 1.5-6.25 1.5Zm23.576-.5v-31h7.75v3.5h1.125c.458-1.25 1.208-2.166 2.25-2.75 1.083-.583 2.333-.874 3.75-.874h3.75v7h-3.875c-2 0-3.646.541-4.938 1.624-1.291 1.042-1.937 2.667-1.937 4.876v17.624h-7.875Zm21.655 0v-31h7.875v31h-7.875Zm3.938-34.625c-1.417 0-2.625-.458-3.625-1.374-.959-.917-1.438-2.126-1.438-3.626s.479-2.708 1.438-3.624c1-.917 2.208-1.375 3.625-1.375 1.458 0 2.666.458 3.625 1.375.958.916 1.437 2.125 1.437 3.625s-.479 2.708-1.437 3.625c-.959.916-2.167 1.374-3.625 1.374Zm24.289 35.501c-3.084 0-5.855-.626-8.313-1.876a14.058 14.058 0 0 1-5.812-5.437c-1.417-2.375-2.125-5.23-2.125-8.562v-1c0-3.334.708-6.188 2.125-8.563a14.058 14.058 0 0 1 5.812-5.438c2.458-1.25 5.229-1.874 8.313-1.874 3.083 0 5.854.624 8.312 1.874a14.066 14.066 0 0 1 5.813 5.438c1.416 2.375 2.125 5.23 2.125 8.563v1c0 3.333-.709 6.187-2.125 8.562a14.066 14.066 0 0 1-5.813 5.438c-2.458 1.25-5.229 1.874-8.312 1.874Zm0-7c2.416 0 4.416-.771 6-2.313 1.583-1.583 2.375-3.833 2.375-6.75v-.625c0-2.917-.792-5.146-2.375-6.688-1.542-1.583-3.542-2.374-6-2.374-2.417 0-4.417.791-6 2.374-1.584 1.542-2.375 3.771-2.375 6.688v.625c0 2.917.791 5.167 2.375 6.75 1.583 1.542 3.583 2.312 6 2.312Zm32.206 6.624c-2.417 0-4.542-.541-6.375-1.625-1.792-1.125-3.187-2.666-4.187-4.625-1-1.958-1.5-4.208-1.5-6.75v-18.5h7.875V57.52c0 2.333.562 4.083 1.687 5.25 1.167 1.166 2.813 1.75 4.938 1.75 2.416 0 4.291-.792 5.625-2.375 1.333-1.626 2-3.876 2-6.75v-15.75h7.875v31h-7.75v-4.063h-1.125c-.5 1.042-1.438 2.063-2.813 3.063-1.375 1-3.458 1.5-6.25 1.5Zm36.451.376c-4.042 0-7.354-.876-9.938-2.626-2.583-1.75-4.146-4.25-4.687-7.5l7.25-1.874c.291 1.458.771 2.604 1.437 3.437a6.159 6.159 0 0 0 2.563 1.812c1.041.334 2.166.5 3.375.5 1.833 0 3.187-.312 4.062-.937.875-.667 1.313-1.48 1.313-2.437 0-.959-.417-1.688-1.25-2.188-.834-.542-2.167-.98-4-1.313l-1.75-.312c-2.167-.417-4.146-.98-5.938-1.688-1.791-.75-3.229-1.77-4.312-3.062-1.084-1.292-1.625-2.958-1.625-5 0-3.083 1.125-5.438 3.375-7.063 2.25-1.666 5.208-2.5 8.875-2.5 3.458 0 6.333.771 8.625 2.313 2.292 1.542 3.791 3.563 4.5 6.063l-7.313 2.25c-.333-1.584-1.021-2.709-2.062-3.376-1-.666-2.25-1-3.75-1s-2.646.271-3.438.813c-.791.5-1.187 1.208-1.187 2.125 0 1 .416 1.75 1.25 2.25.833.458 1.958.813 3.375 1.063l1.75.312c2.333.417 4.437.98 6.312 1.688 1.917.666 3.417 1.645 4.5 2.937 1.125 1.25 1.688 2.958 1.688 5.125 0 3.25-1.188 5.77-3.563 7.562-2.333 1.75-5.479 2.625-9.437 2.625Z"/></svg>