<svg xmlns="http://www.w3.org/2000/svg" width="340" height="330" fill="none"><g filter="url(#a)"><rect width="331" height="321" x="4.762" y="3.037" fill="#fff" rx="24" shape-rendering="crispEdges"/><rect width="330" height="320" x="5.262" y="3.537" stroke="#F1F3F7" rx="23.5" shape-rendering="crispEdges"/><path fill="#6D758F" d="M34.412 41.037H33.12l3.738-10.182h1.273l3.739 10.182h-1.293l-3.043-8.57h-.08l-3.042 8.57Zm.478-3.977h5.21v1.094h-5.21V37.06Zm11.509 4.136c-.716 0-1.333-.169-1.85-.507a3.304 3.304 0 0 1-1.193-1.397c-.278-.593-.417-1.271-.417-2.033 0-.776.142-1.46.427-2.054a3.38 3.38 0 0 1 1.203-1.397c.517-.338 1.12-.507 1.81-.507.537 0 1.02.1 1.452.299.43.198.783.477 1.059.835.275.358.445.775.512 1.253h-1.174a1.822 1.822 0 0 0-.596-.925c-.305-.272-.716-.408-1.233-.408-.458 0-.859.12-1.203.358-.342.236-.608.569-.8 1-.19.427-.284.93-.284 1.506 0 .59.093 1.104.278 1.541.19.438.454.777.796 1.02.344.241.749.362 1.213.362.305 0 .581-.053.83-.159a1.694 1.694 0 0 0 .999-1.173h1.174c-.067.45-.23.857-.493 1.218a2.75 2.75 0 0 1-1.029.855c-.424.209-.918.313-1.481.313Zm8.039-7.795v.994H50.48v-.994h3.958Zm-2.804-1.83h1.173v7.279c0 .331.048.58.144.745.1.163.226.272.378.328.156.053.32.08.492.08.13 0 .236-.007.319-.02l.198-.04.24 1.054c-.08.03-.192.06-.334.09a2.45 2.45 0 0 1-.542.05 2.37 2.37 0 0 1-.974-.214 1.936 1.936 0 0 1-.786-.651c-.205-.292-.308-.66-.308-1.104V31.57Zm4.569 9.466v-7.636h1.173v7.636h-1.173Zm.596-8.909a.835.835 0 0 1-.591-.234.75.75 0 0 1-.244-.561.75.75 0 0 1 .244-.562.834.834 0 0 1 .591-.234c.23 0 .425.078.587.234a.744.744 0 0 1 .249.562.744.744 0 0 1-.249.561.817.817 0 0 1-.587.234Zm8.97 1.273-2.824 7.636h-1.193l-2.824-7.636h1.273l2.108 6.085h.08l2.108-6.085h1.272Zm1.549 7.636v-7.636h1.173v7.636h-1.173Zm.597-8.909a.834.834 0 0 1-.592-.234.75.75 0 0 1-.244-.561.75.75 0 0 1 .244-.562.834.834 0 0 1 .592-.234c.228 0 .424.078.586.234a.743.743 0 0 1 .249.562.744.744 0 0 1-.249.561.817.817 0 0 1-.586.234Zm6.046 1.273v.994h-3.957v-.994h3.957Zm-2.804-1.83h1.174v7.279c0 .331.048.58.144.745.1.163.225.272.378.328.155.053.32.08.492.08.13 0 .235-.007.318-.02l.199-.04.239 1.054c-.08.03-.191.06-.334.09a2.45 2.45 0 0 1-.541.05 2.37 2.37 0 0 1-.975-.214 1.936 1.936 0 0 1-.785-.651c-.206-.292-.309-.66-.309-1.104V31.57Zm5.325 12.33a2.58 2.58 0 0 1-.532-.05 1.398 1.398 0 0 1-.323-.09l.298-1.034c.285.073.537.1.756.08a.906.906 0 0 0 .581-.293c.173-.173.33-.453.473-.84l.219-.597L75.13 33.4h1.272l2.108 6.085h.08l2.108-6.085h1.273l-3.242 8.75c-.146.394-.326.72-.542.98a2.029 2.029 0 0 1-.75.58 2.3 2.3 0 0 1-.955.19Z"/><path fill="#19213D" d="M33.642 61.037V49.401h4.807c.871 0 1.623.17 2.256.511a3.581 3.581 0 0 1 1.471 1.415c.345.602.517 1.303.517 2.102 0 .803-.176 1.506-.528 2.108a3.544 3.544 0 0 1-1.494 1.392c-.648.33-1.417.494-2.307.494h-2.966v-2.215h2.443c.425 0 .779-.074 1.063-.222.288-.148.505-.354.653-.62.148-.268.222-.58.222-.937 0-.36-.074-.67-.222-.932a1.488 1.488 0 0 0-.653-.613c-.288-.144-.642-.216-1.063-.216h-1.386v9.37h-2.813Zm10.438 0V52.31h2.699v1.59h.09c.16-.575.42-1.003.78-1.283a1.963 1.963 0 0 1 1.255-.426c.129 0 .261.009.397.028.137.015.264.04.381.074v2.415a2.652 2.652 0 0 0-.523-.108 4.635 4.635 0 0 0-.568-.04c-.33 0-.627.074-.892.221a1.592 1.592 0 0 0-.62.608c-.147.258-.22.561-.22.91v4.738h-2.78Zm10.355.165c-.917 0-1.705-.188-2.364-.563a3.881 3.881 0 0 1-1.517-1.58c-.352-.677-.528-1.463-.528-2.357 0-.898.176-1.684.528-2.358a3.836 3.836 0 0 1 1.517-1.58c.66-.378 1.447-.568 2.364-.568.917 0 1.703.19 2.358.568.66.375 1.165.902 1.517 1.58.356.674.534 1.46.534 2.358 0 .894-.178 1.68-.534 2.358a3.833 3.833 0 0 1-1.517 1.58c-.655.374-1.441.562-2.358.562Zm.017-2.097c.333 0 .616-.102.847-.306.23-.205.407-.49.528-.853.125-.363.188-.784.188-1.261 0-.485-.063-.91-.188-1.273-.121-.364-.297-.648-.528-.852a1.232 1.232 0 0 0-.847-.307c-.345 0-.636.102-.875.307-.235.204-.415.488-.54.852a4.03 4.03 0 0 0-.181 1.273c0 .477.06.898.181 1.261.125.364.305.648.54.852.239.205.53.307.875.307Zm9.003 2.057c-.644 0-1.23-.167-1.756-.5-.526-.333-.947-.833-1.261-1.5-.315-.667-.472-1.494-.472-2.483 0-1.026.163-1.871.489-2.534.326-.663.752-1.153 1.278-1.472.53-.318 1.1-.477 1.71-.477.459 0 .85.08 1.177.239.325.155.594.356.806.602.213.246.374.502.483.767h.057v-4.403h2.779v11.636h-2.75v-1.415h-.086c-.117.27-.284.521-.5.756a2.406 2.406 0 0 1-.812.568c-.322.144-.703.216-1.142.216Zm.966-2.165c.337 0 .625-.094.863-.284.24-.193.423-.464.552-.812.128-.349.193-.758.193-1.228 0-.477-.065-.888-.193-1.233-.125-.344-.31-.61-.552-.795a1.364 1.364 0 0 0-.863-.278c-.345 0-.637.094-.875.284-.239.19-.42.456-.546.8-.12.346-.181.753-.181 1.222 0 .47.062.88.187 1.228s.305.62.54.812c.238.19.53.284.875.284Zm11.711-1.727v-4.96h2.773v8.727h-2.648v-1.625h-.09a2.538 2.538 0 0 1-.99 1.273c-.461.31-1.02.466-1.675.466-.595 0-1.118-.137-1.568-.41a2.787 2.787 0 0 1-1.052-1.141c-.25-.493-.376-1.069-.38-1.728V52.31h2.778v5.017c.004.473.129.846.375 1.12.246.272.582.408 1.006.408.276 0 .525-.06.744-.181.224-.126.4-.306.529-.54.132-.239.198-.527.198-.864Zm8.615 3.932c-.92 0-1.71-.19-2.369-.568a3.844 3.844 0 0 1-1.511-1.58c-.352-.678-.529-1.462-.529-2.352 0-.894.177-1.678.529-2.352a3.873 3.873 0 0 1 1.517-1.586c.659-.378 1.445-.568 2.358-.568.807 0 1.51.146 2.108.438a3.351 3.351 0 0 1 1.409 1.238c.34.53.52 1.154.54 1.87h-2.597c-.053-.447-.204-.798-.454-1.051-.247-.254-.569-.381-.966-.381-.322 0-.605.09-.847.273-.242.178-.432.443-.568.795-.133.349-.199.78-.199 1.295 0 .516.066.951.199 1.307.136.353.326.62.568.801.242.178.525.267.847.267.257 0 .484-.055.681-.164.201-.11.366-.271.495-.483a1.93 1.93 0 0 0 .244-.784H88.8c-.027.72-.207 1.348-.54 1.886-.33.538-.794.956-1.392 1.256-.595.295-1.301.443-2.12.443Zm10.4-8.892v2.045H89.64V52.31h5.506Zm-4.353-2.091h2.779v8.074c0 .17.026.309.08.415a.497.497 0 0 0 .244.221c.106.042.233.063.38.063.106 0 .218-.01.336-.029a5.02 5.02 0 0 0 .272-.057l.42 2.006c-.132.038-.32.085-.562.142a4.67 4.67 0 0 1-.858.108c-.651.03-1.21-.045-1.676-.227a2.173 2.173 0 0 1-1.062-.864c-.243-.39-.36-.88-.353-1.471v-8.381Zm9.208 10.818V52.31h2.699v1.59h.091c.159-.575.418-1.003.778-1.283.36-.284.778-.426 1.256-.426.128 0 .261.009.397.028.137.015.264.04.381.074v2.415a2.661 2.661 0 0 0-.523-.108 4.627 4.627 0 0 0-.568-.04 1.81 1.81 0 0 0-.892.221 1.59 1.59 0 0 0-.619.608 1.797 1.797 0 0 0-.222.91v4.738h-2.778Zm10.361.165c-.913 0-1.701-.18-2.364-.54a3.734 3.734 0 0 1-1.523-1.551c-.352-.674-.528-1.475-.528-2.403 0-.902.178-1.69.534-2.364a3.855 3.855 0 0 1 1.506-1.58c.647-.378 1.411-.568 2.289-.568.622 0 1.19.097 1.705.29.515.193.96.48 1.335.858.375.379.667.846.875 1.403.208.553.313 1.188.313 1.904v.693h-7.586V55.73h5a1.55 1.55 0 0 0-.21-.79 1.43 1.43 0 0 0-.562-.54 1.627 1.627 0 0 0-.813-.198c-.31 0-.589.07-.835.21a1.585 1.585 0 0 0-.813 1.364v1.642a2 2 0 0 0 .211.937c.14.265.339.472.596.62.258.147.565.221.921.221.246 0 .469-.034.67-.102a1.43 1.43 0 0 0 .517-.301c.144-.133.252-.296.324-.489l2.551.074a3.154 3.154 0 0 1-.699 1.494c-.356.42-.824.748-1.403.983-.58.231-1.25.347-2.011.347Zm13.792-8.892-2.994 8.727h-3.182l-2.989-8.727h2.927l1.608 6.011h.09l1.614-6.011h2.926Zm4.864 8.892c-.913 0-1.701-.18-2.364-.54a3.74 3.74 0 0 1-1.523-1.551c-.352-.674-.528-1.475-.528-2.403 0-.902.178-1.69.534-2.364a3.855 3.855 0 0 1 1.506-1.58c.648-.378 1.411-.568 2.29-.568.621 0 1.189.097 1.704.29.515.193.96.48 1.335.858.375.379.667.846.875 1.403.209.553.313 1.188.313 1.904v.693h-7.585V55.73h5a1.561 1.561 0 0 0-.211-.79 1.423 1.423 0 0 0-.562-.54 1.627 1.627 0 0 0-.813-.198c-.31 0-.589.07-.835.21a1.575 1.575 0 0 0-.812 1.364v1.642a2 2 0 0 0 .21.937c.14.265.339.472.597.62.257.147.564.221.92.221.246 0 .47-.034.67-.102.201-.068.374-.169.517-.301.144-.133.252-.296.324-.489l2.551.074a3.162 3.162 0 0 1-.698 1.494c-.356.42-.824.748-1.404.983-.579.231-1.25.347-2.011.347Zm8.339-5.142v4.977h-2.778V52.31h2.642v1.602h.097c.193-.534.522-.953.988-1.256.466-.306 1.021-.46 1.665-.46.614 0 1.146.139 1.597.415.454.273.806.655 1.056 1.148.254.488.379 1.06.375 1.716v5.562h-2.778V56.02c.004-.485-.119-.864-.369-1.136-.247-.273-.589-.41-1.029-.41-.291 0-.549.065-.773.194-.219.125-.39.305-.511.54a1.948 1.948 0 0 0-.182.852Zm12.993 1.21v-4.96h2.773v8.727h-2.648v-1.625h-.091a2.535 2.535 0 0 1-.988 1.273c-.462.31-1.021.466-1.676.466-.595 0-1.118-.137-1.569-.41a2.792 2.792 0 0 1-1.051-1.141c-.25-.493-.377-1.069-.38-1.728V52.31h2.778v5.017c.004.473.129.846.375 1.12.246.272.581.408 1.006.408.276 0 .524-.06.744-.181.223-.126.4-.306.528-.54.133-.239.199-.527.199-.864Zm8.621 3.932c-.913 0-1.701-.18-2.364-.54a3.732 3.732 0 0 1-1.522-1.551c-.353-.674-.529-1.475-.529-2.403 0-.902.178-1.69.534-2.364a3.855 3.855 0 0 1 1.506-1.58c.648-.378 1.411-.568 2.29-.568.621 0 1.189.097 1.704.29.515.193.96.48 1.335.858.375.379.667.846.875 1.403.209.553.313 1.188.313 1.904v.693h-7.585V55.73h5a1.57 1.57 0 0 0-.21-.79 1.432 1.432 0 0 0-.563-.54 1.626 1.626 0 0 0-.812-.198c-.311 0-.589.07-.836.21a1.575 1.575 0 0 0-.812 1.364v1.642a2 2 0 0 0 .21.937c.14.265.339.472.597.62.257.147.564.221.92.221.246 0 .47-.034.671-.102.2-.068.373-.169.517-.301.144-.133.251-.296.323-.489l2.552.074a3.154 3.154 0 0 1-.699 1.494c-.356.42-.824.748-1.404.983-.579.231-1.25.347-2.011.347ZM35.234 92.247v-.869l3.835-6.068h.63v1.346h-.425l-2.898 4.586v.068h5.165v.937h-6.307Zm4.108 1.79V85.31h1.006v8.727h-1.006Zm4.75-2.386-.017-1.245h.205l2.864-2.914h1.244l-3.051 3.085h-.086l-1.159 1.074Zm-.937 2.386V85.31h1.005v8.727h-1.005Zm4.159 0-2.557-3.239.716-.698 3.12 3.937h-1.28Z"/><path stroke="#E1E4ED" stroke-dasharray="4 7" stroke-linecap="round" d="M56.762 89.537h251"/><path fill="#19213D" d="M38.446 142.406c-.563 0-1.064-.096-1.504-.289a2.584 2.584 0 0 1-1.044-.806 2.162 2.162 0 0 1-.418-1.206h1.074c.023.282.12.524.29.729.17.202.393.358.669.469.275.111.58.166.916.166.375 0 .707-.065.997-.196a1.64 1.64 0 0 0 .682-.546c.165-.233.247-.502.247-.809 0-.321-.08-.604-.238-.848a1.58 1.58 0 0 0-.7-.58c-.306-.139-.681-.209-1.124-.209h-.7v-.937h.7c.346 0 .65-.063.912-.188a1.415 1.415 0 0 0 .844-1.329c0-.296-.066-.553-.197-.771a1.34 1.34 0 0 0-.554-.512 1.795 1.795 0 0 0-.835-.183c-.301 0-.585.055-.852.166-.264.108-.48.266-.648.473a1.234 1.234 0 0 0-.273.742h-1.022c.017-.458.154-.858.413-1.202a2.598 2.598 0 0 1 1.014-.81 3.28 3.28 0 0 1 1.385-.289c.54 0 1.003.109 1.39.328.386.216.683.501.89.856.207.355.311.739.311 1.151 0 .491-.13.91-.388 1.257a1.97 1.97 0 0 1-1.044.72v.068c.551.091.982.325 1.291.703.31.375.465.84.465 1.394 0 .474-.13.9-.388 1.278a2.636 2.636 0 0 1-1.048.887c-.443.215-.948.323-1.513.323Zm5.646-2.505-.017-1.245h.205l2.864-2.914h1.244l-3.051 3.085h-.086l-1.159 1.074Zm-.937 2.386v-8.727h1.005v8.727h-1.005Zm4.159 0-2.557-3.239.716-.698 3.12 3.937h-1.28Z"/><path stroke="#E1E4ED" stroke-dasharray="4 7" stroke-linecap="round" d="M56.762 137.787h251"/><path fill="#19213D" d="M35.872 190.537v-.767l2.88-3.153c.339-.37.617-.691.836-.963a3.59 3.59 0 0 0 .486-.776c.108-.244.162-.5.162-.767 0-.307-.074-.572-.222-.797a1.44 1.44 0 0 0-.596-.52 1.936 1.936 0 0 0-.853-.183c-.335 0-.627.07-.877.209a1.436 1.436 0 0 0-.576.575c-.133.247-.2.537-.2.869h-1.006c0-.511.118-.96.354-1.346.236-.387.557-.688.963-.904.41-.216.868-.323 1.376-.323.512 0 .965.107 1.36.323.395.216.704.507.929.874.224.366.336.774.336 1.223 0 .321-.058.635-.174.942-.114.304-.313.643-.597 1.018-.281.372-.672.827-1.172 1.364l-1.96 2.096v.069h4.057v.937h-5.506Zm8.22-2.386-.017-1.245h.205l2.864-2.914h1.244l-3.051 3.085h-.086l-1.159 1.074Zm-.937 2.386v-8.727h1.005v8.727h-1.005Zm4.159 0-2.557-3.239.716-.698 3.12 3.937h-1.28Z"/><path stroke="#E1E4ED" stroke-dasharray="4 7" stroke-linecap="round" d="M56.762 186.037h251"/><path fill="#19213D" d="M40.628 230.06v8.727H39.57v-7.619h-.051l-2.13 1.415v-1.074l2.181-1.449h1.057Zm3.464 6.341-.017-1.245h.205l2.864-2.914h1.244l-3.051 3.085h-.086l-1.159 1.074Zm-.937 2.386v-8.727h1.005v8.727h-1.005Zm4.159 0-2.557-3.239.716-.698 3.12 3.937h-1.28Z"/><path stroke="#E1E4ED" stroke-dasharray="4 7" stroke-linecap="round" d="M56.762 234.287h251"/><path fill="#19213D" d="M45.012 283.156c-.642 0-1.19-.174-1.64-.524-.453-.352-.798-.862-1.036-1.53-.24-.67-.358-1.48-.358-2.429 0-.943.119-1.748.358-2.416.241-.67.588-1.182 1.04-1.534.454-.355 1-.532 1.636-.532.636 0 1.18.177 1.632.532.454.352.801.864 1.04 1.534.241.668.362 1.473.362 2.416 0 .949-.12 1.759-.358 2.429-.239.668-.584 1.178-1.036 1.53-.451.35-.998.524-1.64.524Zm0-.937c.636 0 1.13-.307 1.483-.921.352-.613.528-1.488.528-2.625 0-.755-.08-1.399-.243-1.93-.159-.531-.389-.936-.69-1.214a1.522 1.522 0 0 0-1.078-.418c-.631 0-1.124.311-1.479.933-.355.62-.533 1.496-.533 2.629 0 .756.08 1.398.239 1.927.16.528.388.93.686 1.206.301.275.663.413 1.087.413Z"/><path stroke="#E1E4ED" stroke-linecap="round" d="M56.762 278.537h251"/><path fill="#8DC1FF" d="M67.762 165.918a6 6 0 1 1 12 0v112.619h-12V165.918Z"/><path fill="#6D758F" d="M66.6 290.81h1.056v6.238c0 .557-.102 1.03-.307 1.42a2.087 2.087 0 0 1-.865.886c-.372.202-.81.302-1.316.302a2.98 2.98 0 0 1-1.275-.26 2.098 2.098 0 0 1-.877-.75c-.213-.323-.32-.708-.32-1.154h1.04c0 .247.06.463.183.647.125.182.295.324.511.427.216.102.462.153.738.153.303 0 .562-.064.775-.192.213-.128.375-.315.486-.562.114-.25.17-.556.17-.917v-6.238Zm9.381 0h1.057v5.778c0 .597-.14 1.13-.422 1.598a2.955 2.955 0 0 1-1.18 1.104c-.509.267-1.105.401-1.79.401-.684 0-1.281-.134-1.79-.401a2.984 2.984 0 0 1-1.184-1.104 3.066 3.066 0 0 1-.418-1.598v-5.778h1.057v5.693c0 .426.094.805.281 1.138.188.329.455.589.801.78.35.187.767.281 1.253.281.486 0 .903-.094 1.253-.281a1.99 1.99 0 0 0 .801-.78c.188-.333.281-.712.281-1.138v-5.693Zm3.648 8.727v-8.727h1.056v7.79h4.057v.937H79.63Z"/><path fill="#8DC1FF" d="M110.328 224.703a6 6 0 1 1 12 0v53.834h-12v-53.834Z"/><path fill="#6D758F" d="M105.134 299.537h-1.108l3.205-8.727h1.09l3.205 8.727h-1.108l-2.608-7.346h-.068l-2.608 7.346Zm.409-3.409h4.466v.938h-4.466v-.938Zm13.55-5.318h1.057v5.778c0 .597-.141 1.13-.422 1.598a2.957 2.957 0 0 1-1.181 1.104c-.508.267-1.105.401-1.79.401-.684 0-1.281-.134-1.789-.401a2.981 2.981 0 0 1-1.185-1.104 3.07 3.07 0 0 1-.418-1.598v-5.778h1.057v5.693c0 .426.094.805.281 1.138.188.329.455.589.802.78.349.187.767.281 1.252.281.486 0 .904-.094 1.253-.281a1.98 1.98 0 0 0 .801-.78c.188-.333.282-.712.282-1.138v-5.693Zm9.613 2.727a3.06 3.06 0 0 0-.371-.771 2.376 2.376 0 0 0-.541-.588 2.262 2.262 0 0 0-.707-.371 2.83 2.83 0 0 0-.87-.128c-.517 0-.987.134-1.41.401-.424.267-.76.66-1.01 1.18-.25.52-.375 1.158-.375 1.913 0 .756.126 1.394.379 1.914s.595.913 1.027 1.18c.432.267.918.401 1.457.401.5 0 .941-.107 1.321-.32.384-.216.682-.52.895-.912.216-.395.324-.859.324-1.393l.324.068h-2.625v-.938h3.324v.938c0 .719-.154 1.344-.46 1.875a3.185 3.185 0 0 1-1.262 1.236c-.534.29-1.147.434-1.841.434-.772 0-1.451-.181-2.037-.545-.582-.364-1.036-.881-1.363-1.551-.324-.671-.486-1.466-.486-2.387 0-.69.092-1.311.277-1.862a4.141 4.141 0 0 1 .793-1.415 3.46 3.46 0 0 1 1.21-.894 3.731 3.731 0 0 1 1.538-.311c.46 0 .889.069 1.287.208a3.467 3.467 0 0 1 1.858 1.483c.21.347.355.732.435 1.155h-1.091Z"/><path fill="#2388FF" d="M154.895 151.223a6 6 0 1 1 12 0v127.315h-12V151.223Z"/><g filter="url(#b)"><rect width="56" height="32.001" x="132.895" y="101.223" fill="#19213D" rx="4" shape-rendering="crispEdges"/><path fill="#fff" d="M145.081 123.495v-12.727h.815v12.727h-.815Zm2.351-8.655a1.357 1.357 0 0 0-.586-1.014c-.342-.242-.786-.363-1.333-.363-.384 0-.714.058-.989.174a1.467 1.467 0 0 0-.632.472c-.145.199-.22.426-.223.681 0 .212.048.396.144.552.099.156.234.288.403.398.169.106.356.195.561.268.206.073.413.134.622.184l.954.239c.385.089.754.21 1.109.363.358.152.678.344.96.576.285.232.51.512.676.841.165.328.248.712.248 1.153 0 .597-.152 1.122-.457 1.576-.305.451-.746.804-1.323 1.059-.573.252-1.267.378-2.083.378-.792 0-1.48-.123-2.063-.368-.58-.245-1.034-.603-1.362-1.074-.325-.471-.501-1.044-.527-1.72h1.815c.026.354.135.649.328.885.192.235.442.411.75.527.312.116.66.174 1.044.174.401 0 .753-.06 1.054-.179.305-.123.544-.292.716-.507.173-.219.26-.474.264-.766a.973.973 0 0 0-.234-.656 1.705 1.705 0 0 0-.641-.438 6.236 6.236 0 0 0-.955-.318l-1.158-.298c-.839-.216-1.502-.542-1.989-.98-.484-.44-.726-1.025-.726-1.755 0-.599.163-1.125.488-1.576.328-.45.773-.8 1.337-1.049.563-.251 1.201-.377 1.914-.377.723 0 1.356.126 1.899.377.547.249.976.595 1.288 1.04.311.44.472.947.482 1.521h-1.775Zm3.459 7.383v-1.333l3.535-3.465c.338-.341.62-.645.845-.91.226-.265.395-.522.507-.77.113-.249.169-.514.169-.796a1.51 1.51 0 0 0-.218-.825 1.459 1.459 0 0 0-.602-.537 1.938 1.938 0 0 0-.87-.189c-.335 0-.628.07-.88.209-.252.136-.447.33-.587.582a1.862 1.862 0 0 0-.204.899h-1.755c0-.646.148-1.208.443-1.685a2.99 2.99 0 0 1 1.218-1.109c.52-.261 1.117-.392 1.79-.392.683 0 1.282.127 1.799.382.518.256.919.605 1.204 1.049.288.445.432.952.432 1.522 0 .381-.073.755-.219 1.123-.145.368-.402.776-.77 1.223-.365.448-.877.99-1.536 1.626l-1.755 1.785v.069h4.434v1.542h-6.98Zm9.824.109c-.302 0-.56-.106-.776-.318a1.034 1.034 0 0 1-.318-.776 1.02 1.02 0 0 1 .318-.765c.216-.212.474-.319.776-.319.292 0 .545.107.761.319.218.212.329.467.333.765a1.076 1.076 0 0 1-.159.552c-.1.166-.232.298-.398.398a1.034 1.034 0 0 1-.537.144Zm2.977-.109 4.33-8.571v-.07h-5.026v-1.541h6.935v1.576l-4.325 8.606h-1.914Zm7.943 0v-10.182h1.845v4.678h.124l3.972-4.678h2.252l-3.937 4.569 3.972 5.613h-2.217l-3.038-4.365-1.128 1.332v3.033h-1.845Z"/><path fill="#19213D" d="m159.48 138.808-5.707-5.707a3 3 0 0 0-2.121-.878h18.485c-.795 0-1.559.316-2.121.878l-5.707 5.707a2 2 0 0 1-2.829 0Z"/></g><path fill="#6D758F" d="M154.691 292.992a1.337 1.337 0 0 0-.622-1.006c-.363-.239-.809-.358-1.338-.358-.386 0-.724.063-1.014.188a1.615 1.615 0 0 0-.673.515 1.237 1.237 0 0 0-.239.746c0 .233.055.433.166.601.114.165.259.302.435.413.176.108.361.198.554.269.193.068.371.123.532.166l.887.238c.227.06.48.142.758.248.282.105.55.248.806.43.258.179.471.409.639.69.168.282.251.627.251 1.036 0 .471-.123.898-.37 1.278-.245.381-.603.683-1.074.908-.469.224-1.039.337-1.709.337-.625 0-1.166-.101-1.624-.303a2.587 2.587 0 0 1-1.073-.844 2.404 2.404 0 0 1-.439-1.257h1.091c.028.33.139.602.332.818.196.213.443.372.741.478.302.102.625.153.972.153.403 0 .766-.065 1.087-.196.321-.134.575-.318.762-.554a1.31 1.31 0 0 0 .282-.835c0-.29-.081-.526-.243-.708a1.798 1.798 0 0 0-.639-.443 6.823 6.823 0 0 0-.857-.298l-1.074-.307c-.682-.196-1.221-.476-1.619-.839-.398-.364-.597-.84-.597-1.428 0-.489.132-.915.397-1.278a2.634 2.634 0 0 1 1.073-.853 3.636 3.636 0 0 1 1.513-.306c.563 0 1.063.1 1.5.302a2.6 2.6 0 0 1 1.04.818c.259.347.395.74.409 1.181h-1.023Zm3.36 6.545v-8.727h5.267v.937h-4.21v2.949h3.937v.938h-3.937v2.966h4.278v.937h-5.335Zm7.652 0v-8.727h2.949c.684 0 1.244.123 1.679.371.437.244.761.575.971.992.21.418.316.884.316 1.398 0 .514-.106.982-.316 1.402a2.337 2.337 0 0 1-.963 1.006c-.434.247-.991.371-1.67.371h-2.114v-.938h2.08c.468 0 .845-.081 1.129-.243.284-.162.49-.38.618-.656.13-.278.196-.592.196-.942a2.17 2.17 0 0 0-.196-.937 1.396 1.396 0 0 0-.622-.648c-.287-.159-.668-.239-1.142-.239h-1.858v7.79h-1.057Z"/><path fill="#8DC1FF" d="M198.293 194.852a6 6 0 1 1 12 0v83.685h-12v-83.685Z"/><path fill="#6D758F" d="M199.116 295.173c0 .921-.166 1.716-.498 2.387-.333.67-.789 1.187-1.368 1.551-.58.364-1.242.545-1.986.545s-1.406-.181-1.986-.545c-.579-.364-1.035-.881-1.368-1.551-.332-.671-.498-1.466-.498-2.387 0-.92.166-1.715.498-2.386.333-.67.789-1.187 1.368-1.551.58-.364 1.242-.545 1.986-.545s1.406.181 1.986.545c.579.364 1.035.881 1.368 1.551.332.671.498 1.466.498 2.386Zm-1.022 0c0-.755-.127-1.393-.38-1.913-.25-.52-.589-.913-1.018-1.18a2.643 2.643 0 0 0-1.432-.401c-.528 0-1.007.134-1.436.401-.426.267-.766.66-1.019 1.18-.25.52-.375 1.158-.375 1.913 0 .756.125 1.394.375 1.914.253.52.593.913 1.019 1.18.429.267.908.401 1.436.401.528 0 1.006-.134 1.432-.401.429-.267.768-.66 1.018-1.18.253-.52.38-1.158.38-1.914Zm10.302-1.636h-1.057a2.2 2.2 0 0 0-.89-1.381 2.405 2.405 0 0 0-.729-.358 2.931 2.931 0 0 0-.835-.119c-.529 0-1.008.134-1.436.401-.427.267-.766.66-1.019 1.18-.25.52-.375 1.158-.375 1.913 0 .756.125 1.394.375 1.914.253.52.592.913 1.019 1.18.428.267.907.401 1.436.401.289 0 .568-.04.835-.12a2.44 2.44 0 0 0 .729-.353 2.248 2.248 0 0 0 .89-1.385h1.057a3.51 3.51 0 0 1-.435 1.197c-.21.353-.471.652-.784.899a3.418 3.418 0 0 1-1.052.559c-.387.128-.8.191-1.24.191-.745 0-1.407-.181-1.986-.545-.58-.364-1.036-.881-1.368-1.551-.332-.671-.499-1.466-.499-2.387 0-.92.167-1.715.499-2.386.332-.67.788-1.187 1.368-1.551.579-.364 1.241-.545 1.986-.545.44 0 .853.063 1.24.191.389.128.74.316 1.052.563.313.244.574.542.784.895.211.349.355.748.435 1.197Zm1.71-1.79v-.937h6.546v.937h-2.744v7.79h-1.057v-7.79h-2.745Z"/><path fill="#8DC1FF" d="M241.031 175.365a6 6 0 0 1 12 0v103.171h-12V175.365Z"/><path fill="#6D758F" d="M241.923 290.81v8.727H240.9l-4.755-6.852h-.086v6.852h-1.056v-8.727h1.022l4.773 6.869h.085v-6.869h1.04Zm9.958 4.363c0 .921-.166 1.716-.498 2.387-.333.67-.789 1.187-1.368 1.551-.58.364-1.242.545-1.986.545s-1.406-.181-1.986-.545c-.579-.364-1.035-.881-1.368-1.551-.332-.671-.498-1.466-.498-2.387 0-.92.166-1.715.498-2.386.333-.67.789-1.187 1.368-1.551.58-.364 1.242-.545 1.986-.545s1.406.181 1.986.545c.579.364 1.035.881 1.368 1.551.332.671.498 1.466.498 2.386Zm-1.022 0c0-.755-.127-1.393-.38-1.913-.25-.52-.589-.913-1.018-1.18a2.64 2.64 0 0 0-1.432-.401c-.528 0-1.007.134-1.436.401-.426.267-.766.66-1.018 1.18-.25.52-.375 1.158-.375 1.913 0 .756.125 1.394.375 1.914.252.52.592.913 1.018 1.18.429.267.908.401 1.436.401a2.64 2.64 0 0 0 1.432-.401c.429-.267.768-.66 1.018-1.18.253-.52.38-1.158.38-1.914Zm3.227-4.363 2.591 7.346h.102l2.591-7.346h1.108l-3.204 8.727h-1.091l-3.205-8.727h1.108Z"/><path fill="#8DC1FF" d="M284.594 198.459a6 6 0 1 1 12 0v80.077h-12v-80.077Z"/><path fill="#6D758F" d="M281.768 299.537h-2.693v-8.727h2.812c.847 0 1.571.175 2.174.524a3.434 3.434 0 0 1 1.385 1.496c.321.647.481 1.423.481 2.326 0 .91-.162 1.692-.486 2.348a3.459 3.459 0 0 1-1.414 1.509c-.62.349-1.373.524-2.259.524Zm-1.636-.937h1.568c.721 0 1.319-.14 1.794-.418a2.575 2.575 0 0 0 1.061-1.189c.233-.514.349-1.126.349-1.837 0-.704-.115-1.311-.345-1.819a2.54 2.54 0 0 0-1.031-1.176c-.457-.276-1.027-.414-1.709-.414h-1.687v6.853Zm8.048.937v-8.727h5.267v.937h-4.21v2.949h3.937v.938h-3.937v2.966h4.278v.937h-5.335Zm14.674-6h-1.056a2.208 2.208 0 0 0-.891-1.381 2.405 2.405 0 0 0-.729-.358 2.926 2.926 0 0 0-.835-.119c-.528 0-1.007.134-1.436.401-.426.267-.766.66-1.018 1.18-.25.52-.375 1.158-.375 1.913 0 .756.125 1.394.375 1.914.252.52.592.913 1.018 1.18.429.267.908.401 1.436.401.29 0 .568-.04.835-.12a2.44 2.44 0 0 0 .729-.353c.222-.159.409-.354.563-.584.156-.233.265-.5.328-.801h1.056a3.509 3.509 0 0 1-.434 1.197 3.264 3.264 0 0 1-1.837 1.458c-.386.128-.8.191-1.24.191-.744 0-1.406-.181-1.986-.545-.579-.364-1.035-.881-1.368-1.551-.332-.671-.498-1.466-.498-2.387 0-.92.166-1.715.498-2.386.333-.67.789-1.187 1.368-1.551.58-.364 1.242-.545 1.986-.545.44 0 .854.063 1.24.191.389.128.74.316 1.053.563.312.244.574.542.784.895.21.349.355.748.434 1.197Z"/></g><defs><filter id="a" width="339" height="329" x=".762" y=".037" color-interpolation-filters="sRGB" filterUnits="userSpaceOnUse"><feFlood flood-opacity="0" result="BackgroundImageFix"/><feColorMatrix in="SourceAlpha" result="hardAlpha" values="0 0 0 0 0 0 0 0 0 0 0 0 0 0 0 0 0 0 127 0"/><feOffset dy="1"/><feGaussianBlur stdDeviation="2"/><feComposite in2="hardAlpha" operator="out"/><feColorMatrix values="0 0 0 0 0.0969792 0 0 0 0 0.127894 0 0 0 0 0.2375 0 0 0 0.08 0"/><feBlend in2="BackgroundImageFix" result="effect1_dropShadow_6477_8529"/><feBlend in="SourceGraphic" in2="effect1_dropShadow_6477_8529" result="shape"/></filter><filter id="b" width="64" height="48" x="128.895" y="98.223" color-interpolation-filters="sRGB" filterUnits="userSpaceOnUse"><feFlood flood-opacity="0" result="BackgroundImageFix"/><feColorMatrix in="SourceAlpha" result="hardAlpha" values="0 0 0 0 0 0 0 0 0 0 0 0 0 0 0 0 0 0 127 0"/><feOffset dy="1"/><feGaussianBlur stdDeviation="2"/><feComposite in2="hardAlpha" operator="out"/><feColorMatrix values="0 0 0 0 0.0969792 0 0 0 0 0.127894 0 0 0 0 0.2375 0 0 0 0.08 0"/><feBlend in2="BackgroundImageFix" result="effect1_dropShadow_6477_8529"/><feBlend in="SourceGraphic" in2="effect1_dropShadow_6477_8529" result="shape"/></filter></defs></svg>