<svg xmlns="http://www.w3.org/2000/svg" width="340" height="330" fill="none"><g filter="url(#a)"><rect width="331" height="321" x="4.762" y="3.26" fill="#fff" rx="24" shape-rendering="crispEdges"/><rect width="330" height="320" x="5.262" y="3.76" stroke="#F1F3F7" rx="23.5" shape-rendering="crispEdges"/><path fill="#6D758F" d="M39.563 33.623a1.56 1.56 0 0 0-.726-1.173c-.424-.278-.945-.418-1.561-.418-.45 0-.845.073-1.183.22a1.89 1.89 0 0 0-.786.6 1.442 1.442 0 0 0-.278.87c0 .273.064.506.194.702.132.192.301.353.507.482.205.126.42.23.646.313.225.08.433.145.622.194l1.034.279c.265.07.56.165.885.288.328.123.64.29.94.502.3.209.55.477.745.806.196.328.293.73.293 1.208a2.68 2.68 0 0 1-.432 1.491c-.285.444-.703.797-1.253 1.059-.547.262-1.212.393-1.994.393-.729 0-1.36-.118-1.894-.353-.53-.236-.948-.564-1.253-.985a2.808 2.808 0 0 1-.512-1.466h1.273c.033.384.162.702.388.954a2.1 2.1 0 0 0 .865.557c.351.12.729.18 1.133.18.47 0 .893-.077 1.268-.23.374-.155.671-.37.89-.646.219-.278.328-.603.328-.974 0-.338-.094-.614-.283-.826a2.08 2.08 0 0 0-.746-.517 7.858 7.858 0 0 0-1-.348l-1.252-.358c-.796-.228-1.425-.555-1.89-.979-.463-.424-.695-.98-.695-1.666 0-.57.154-1.067.462-1.491.311-.427.73-.759 1.253-.994a4.231 4.231 0 0 1 1.765-.358c.656 0 1.24.117 1.75.353.51.232.914.55 1.213.954.301.405.46.864.477 1.377h-1.193Zm6.521 0v.995h-3.957v-.995h3.957Zm-2.804-1.83h1.174v7.28c0 .33.048.58.144.745.1.162.225.272.378.328.156.053.32.08.492.08.13 0 .235-.007.318-.02l.199-.04.239 1.054c-.08.03-.191.06-.334.09-.142.033-.323.05-.541.05-.332 0-.657-.072-.975-.215a1.935 1.935 0 0 1-.785-.65c-.206-.292-.309-.66-.309-1.105v-7.596Zm6.816 9.646c-.483 0-.923-.091-1.317-.274a2.26 2.26 0 0 1-.94-.8c-.232-.351-.348-.776-.348-1.273 0-.437.087-.792.259-1.064a1.83 1.83 0 0 1 .69-.646 3.64 3.64 0 0 1 .955-.348c.352-.08.705-.143 1.06-.189.463-.06.84-.104 1.128-.134.292-.033.504-.088.636-.164.136-.076.204-.21.204-.398v-.04c0-.49-.134-.872-.403-1.143-.265-.272-.667-.408-1.208-.408-.56 0-.999.123-1.317.368-.318.245-.542.507-.671.785l-1.114-.397c.199-.464.464-.825.795-1.084a2.98 2.98 0 0 1 1.094-.547c.398-.106.79-.159 1.174-.159.245 0 .526.03.845.09.321.056.631.174.93.352.301.18.551.45.75.81.199.362.298.846.298 1.452v5.032h-1.173v-1.034h-.06a2.1 2.1 0 0 1-.397.532c-.186.189-.433.35-.741.482-.308.133-.684.199-1.129.199Zm.18-1.054c.463 0 .854-.091 1.173-.274a1.862 1.862 0 0 0 .974-1.615v-1.074c-.05.06-.159.114-.328.164a5.523 5.523 0 0 1-.577.124 25.846 25.846 0 0 1-1.123.15c-.305.039-.59.104-.855.193a1.475 1.475 0 0 0-.637.393c-.159.172-.238.407-.238.706 0 .407.15.716.452.925.305.205.691.308 1.158.308Zm8.783-6.762v.995h-3.957v-.995h3.957Zm-2.804-1.83h1.173v7.28c0 .33.048.58.144.745.1.162.226.272.378.328.156.053.32.08.492.08.13 0 .236-.007.319-.02l.198-.04.24 1.054c-.08.03-.191.06-.334.09-.143.033-.323.05-.542.05-.331 0-.656-.072-.974-.215a1.936 1.936 0 0 1-.786-.65c-.205-.292-.308-.66-.308-1.105v-7.596Zm4.569 9.467v-7.637h1.173v7.637h-1.173Zm.596-8.91a.834.834 0 0 1-.591-.233.75.75 0 0 1-.244-.562.75.75 0 0 1 .244-.562.835.835 0 0 1 .591-.233c.23 0 .425.078.587.233a.744.744 0 0 1 .249.562.744.744 0 0 1-.249.562.817.817 0 0 1-.587.234Zm8.135 2.984-1.054.298a1.954 1.954 0 0 0-.293-.512 1.423 1.423 0 0 0-.517-.418c-.219-.11-.499-.164-.84-.164-.468 0-.857.108-1.169.323-.308.212-.462.483-.462.81 0 .292.106.523.318.692.212.169.544.31.995.422l1.133.279c.683.166 1.192.419 1.526.76.335.339.502.774.502 1.308 0 .437-.126.829-.377 1.173-.249.345-.597.617-1.044.816-.448.198-.968.298-1.561.298-.78 0-1.424-.17-1.934-.507-.51-.338-.834-.832-.97-1.482l1.114-.278c.106.41.306.719.601.925.299.205.688.308 1.169.308.547 0 .98-.116 1.302-.348.325-.236.487-.517.487-.845a.888.888 0 0 0-.278-.667c-.186-.182-.47-.318-.855-.407l-1.273-.299c-.7-.165-1.213-.422-1.541-.77-.325-.352-.487-.79-.487-1.318 0-.43.12-.812.363-1.143a2.47 2.47 0 0 1 .999-.78 3.508 3.508 0 0 1 1.442-.284c.755 0 1.349.166 1.78.497.434.332.742.77.924 1.313Zm5.227-1.71v.994h-3.958v-.995h3.958Zm-2.804-1.83h1.173v7.278c0 .332.048.58.144.746.1.162.225.272.378.328.156.053.32.08.492.08.13 0 .235-.007.318-.02l.2-.04.238 1.054c-.08.03-.19.06-.333.09-.143.033-.323.05-.542.05-.332 0-.656-.072-.975-.215a1.935 1.935 0 0 1-.785-.65c-.206-.292-.308-.66-.308-1.105v-7.596Zm4.569 9.466v-7.637h1.173v7.637h-1.174Zm.596-8.91a.834.834 0 0 1-.591-.233.75.75 0 0 1-.244-.562.75.75 0 0 1 .243-.562.834.834 0 0 1 .592-.233c.229 0 .424.078.587.233a.744.744 0 0 1 .248.562.744.744 0 0 1-.248.562.817.817 0 0 1-.587.234Zm5.828 9.069c-.716 0-1.332-.17-1.85-.507a3.306 3.306 0 0 1-1.193-1.397c-.278-.593-.417-1.271-.417-2.034 0-.775.142-1.46.427-2.053a3.379 3.379 0 0 1 1.203-1.397c.518-.338 1.12-.507 1.81-.507.537 0 1.021.1 1.452.298.43.2.784.477 1.059.835.275.358.446.776.512 1.253H84.8c-.09-.348-.289-.656-.597-.924-.305-.272-.716-.408-1.233-.408-.457 0-.858.12-1.203.358-.341.235-.608.568-.8 1-.19.427-.284.929-.284 1.506 0 .59.093 1.103.279 1.54.189.438.454.778.795 1.02.345.242.749.363 1.213.363.305 0 .582-.053.83-.16a1.694 1.694 0 0 0 1-1.172h1.173a2.72 2.72 0 0 1-.492 1.218 2.75 2.75 0 0 1-1.03.855c-.424.209-.918.313-1.48.313Zm10.127-6.085-1.054.298a1.96 1.96 0 0 0-.293-.512 1.424 1.424 0 0 0-.517-.418c-.219-.11-.499-.164-.84-.164-.468 0-.857.108-1.169.323-.308.212-.462.483-.462.81 0 .292.106.523.318.692.212.169.544.31.995.422l1.133.279c.683.166 1.191.419 1.526.76.335.339.502.774.502 1.308 0 .437-.126.829-.377 1.173-.249.345-.597.617-1.044.816-.448.198-.968.298-1.562.298-.778 0-1.423-.17-1.934-.507-.51-.338-.833-.832-.969-1.482l1.114-.278c.106.41.306.719.601.925.299.205.688.308 1.169.308.546 0 .98-.116 1.302-.348.325-.236.487-.517.487-.845a.888.888 0 0 0-.278-.667c-.186-.182-.47-.318-.855-.407l-1.273-.299c-.7-.165-1.213-.422-1.541-.77-.325-.352-.487-.79-.487-1.318 0-.43.12-.812.363-1.143a2.47 2.47 0 0 1 .999-.78 3.507 3.507 0 0 1 1.442-.284c.755 0 1.349.166 1.78.497.434.332.742.77.924 1.313Z"/><path fill="#19213D" d="M33.262 51.907v-2.284h9.835v2.285h-3.529v9.352h-2.772v-9.352h-3.534Zm10.302 9.353v-8.727h2.7v1.59h.09c.16-.575.419-1.003.779-1.284.36-.284.778-.426 1.255-.426.129 0 .262.01.398.029.136.015.263.04.38.073v2.415a2.66 2.66 0 0 0-.522-.108 4.635 4.635 0 0 0-.568-.04c-.33 0-.627.074-.892.222a1.592 1.592 0 0 0-.62.608c-.148.258-.221.56-.221.91v4.738h-2.779Zm8.867.148c-.557 0-1.051-.093-1.483-.279a2.31 2.31 0 0 1-1.017-.852c-.246-.383-.37-.862-.37-1.438 0-.484.086-.894.256-1.227.17-.333.405-.604.705-.813a3.319 3.319 0 0 1 1.034-.471c.39-.11.807-.184 1.25-.222.496-.045.896-.092 1.199-.142.303-.053.522-.127.659-.221a.478.478 0 0 0 .21-.415v-.029c0-.291-.1-.517-.301-.676-.201-.159-.472-.238-.813-.238-.367 0-.663.08-.886.238-.224.16-.366.38-.426.66l-2.563-.091a3.03 3.03 0 0 1 .586-1.42c.318-.421.753-.75 1.306-.99.557-.242 1.226-.363 2.006-.363.557 0 1.07.066 1.54.199.47.128.879.318 1.227.568.349.246.617.55.807.909.193.36.29.77.29 1.233v5.932h-2.614v-1.216h-.068a2.478 2.478 0 0 1-.597.75 2.38 2.38 0 0 1-.846.46 3.597 3.597 0 0 1-1.091.154Zm.858-1.819c.299 0 .568-.06.806-.181.243-.122.436-.288.58-.5a1.32 1.32 0 0 0 .216-.75v-.83c-.08.042-.176.08-.29.114a6.512 6.512 0 0 1-.773.176l-.403.062a2.514 2.514 0 0 0-.67.193 1.06 1.06 0 0 0-.42.341.835.835 0 0 0-.143.489c0 .288.102.508.307.659.208.152.471.227.79.227Zm11.017-7.056v2.045h-5.614v-2.046h5.614Zm-4.443 8.727v-9.17c0-.675.127-1.234.38-1.677.254-.447.606-.78 1.057-1 .45-.223.972-.335 1.563-.335.386 0 .75.03 1.09.09.345.058.6.109.767.154l-.443 2.034a2.321 2.321 0 0 0-.375-.085 2.63 2.63 0 0 0-.409-.034c-.326 0-.549.072-.67.216-.121.144-.182.34-.182.59v9.217h-2.778Zm10.74-8.727v2.045h-5.614v-2.046h5.614Zm-4.444 8.727v-9.17c0-.675.127-1.234.381-1.677.254-.447.606-.78 1.057-1 .45-.223.972-.335 1.562-.335.387 0 .75.03 1.091.09.345.058.6.109.767.154l-.443 2.034a2.326 2.326 0 0 0-.375-.085 2.63 2.63 0 0 0-.409-.034c-.326 0-.55.072-.67.216-.121.144-.182.34-.182.59v9.217h-2.779Zm5.78 0v-8.727h2.779v8.727h-2.779Zm1.392-9.745a1.43 1.43 0 0 1-1.005-.386 1.244 1.244 0 0 1-.42-.943c0-.364.14-.674.42-.932.28-.261.615-.392 1.005-.392.394 0 .73.13 1.006.392.28.258.42.568.42.932 0 .367-.14.682-.42.943a1.422 1.422 0 0 1-1.006.386Zm7.229 9.91c-.92 0-1.71-.19-2.37-.569a3.844 3.844 0 0 1-1.51-1.58c-.353-.677-.53-1.461-.53-2.352 0-.893.177-1.678.53-2.352a3.873 3.873 0 0 1 1.516-1.585c.66-.379 1.445-.568 2.358-.568.807 0 1.51.146 2.108.437a3.35 3.35 0 0 1 1.41 1.239c.34.53.52 1.153.54 1.87h-2.597c-.053-.448-.205-.798-.455-1.052-.246-.254-.568-.38-.966-.38-.322 0-.604.09-.846.272-.243.178-.432.443-.569.796-.132.348-.198.78-.198 1.295 0 .515.066.95.198 1.307.137.352.326.62.569.801.242.178.524.267.846.267.258 0 .485-.055.682-.165.2-.11.365-.27.494-.483a1.93 1.93 0 0 0 .245-.784h2.596c-.026.72-.206 1.349-.54 1.887a3.34 3.34 0 0 1-1.392 1.255c-.594.296-1.3.444-2.119.444Zm16.53-6.228-2.551.068a.951.951 0 0 0-.216-.483 1.16 1.16 0 0 0-.46-.335 1.567 1.567 0 0 0-.648-.125c-.322 0-.597.065-.824.193-.224.13-.333.303-.33.523a.558.558 0 0 0 .205.443c.144.125.4.226.767.301l1.682.319c.871.166 1.519.443 1.943.83.428.386.644.897.648 1.533a2.463 2.463 0 0 1-.534 1.563c-.349.443-.826.788-1.432 1.034-.606.242-1.3.364-2.08.364-1.246 0-2.229-.256-2.949-.767-.716-.516-1.125-1.205-1.227-2.069l2.745-.068c.06.318.217.56.471.727.254.167.578.25.972.25.356 0 .645-.066.869-.198.224-.133.337-.31.34-.529a.56.56 0 0 0-.26-.471c-.17-.122-.438-.216-.802-.285l-1.522-.29c-.875-.158-1.527-.452-1.955-.88-.428-.432-.64-.981-.636-1.648-.004-.583.151-1.081.466-1.494.314-.417.761-.735 1.34-.955.58-.22 1.264-.33 2.052-.33 1.181 0 2.113.249 2.795.745.682.493 1.059 1.17 1.13 2.034Zm5.658 6.227c-.917 0-1.705-.187-2.364-.562a3.88 3.88 0 0 1-1.517-1.58c-.352-.677-.529-1.463-.529-2.357 0-.898.177-1.684.529-2.358a3.836 3.836 0 0 1 1.517-1.58c.659-.379 1.447-.568 2.364-.568.916 0 1.702.19 2.357.568a3.79 3.79 0 0 1 1.518 1.58c.356.674.534 1.46.534 2.358 0 .894-.178 1.68-.534 2.358a3.834 3.834 0 0 1-1.518 1.579c-.655.375-1.441.563-2.357.563Zm.017-2.096c.333 0 .615-.102.846-.307.231-.204.407-.489.529-.852.125-.364.187-.784.187-1.261 0-.485-.062-.91-.187-1.273-.122-.364-.298-.648-.529-.852a1.23 1.23 0 0 0-.846-.307c-.345 0-.637.102-.875.306-.235.205-.415.49-.54.853a4.034 4.034 0 0 0-.182 1.273c0 .477.061.897.182 1.26.125.364.305.649.54.853.238.205.53.307.875.307Zm11.446-1.835v-4.96h2.772v8.727h-2.647v-1.625h-.091a2.543 2.543 0 0 1-.989 1.273c-.462.31-1.021.465-1.676.465-.595 0-1.118-.136-1.568-.409a2.785 2.785 0 0 1-1.051-1.142c-.25-.492-.377-1.068-.381-1.727v-5.563h2.778v5.018c.004.473.129.846.375 1.119.247.273.582.409 1.006.409.277 0 .525-.06.744-.182.224-.125.4-.305.529-.54a1.76 1.76 0 0 0 .199-.863Zm4.541 3.767v-8.727h2.699v1.59h.091c.159-.575.418-1.003.778-1.284.36-.284.778-.426 1.256-.426.128 0 .261.01.397.029.137.015.264.04.381.073v2.415a2.67 2.67 0 0 0-.523-.108 4.627 4.627 0 0 0-.568-.04 1.8 1.8 0 0 0-.892.222 1.59 1.59 0 0 0-.619.608c-.148.258-.222.56-.222.91v4.738h-2.778Zm10.355.165c-.921 0-1.71-.19-2.369-.569a3.839 3.839 0 0 1-1.512-1.58c-.352-.677-.528-1.461-.528-2.352 0-.893.176-1.678.528-2.352a3.874 3.874 0 0 1 1.517-1.585c.659-.379 1.445-.568 2.358-.568.807 0 1.51.146 2.108.437a3.351 3.351 0 0 1 1.409 1.239c.341.53.521 1.153.54 1.87h-2.597c-.053-.448-.204-.798-.454-1.052-.246-.254-.568-.38-.966-.38-.322 0-.604.09-.847.272-.242.178-.431.443-.568.796-.132.348-.199.78-.199 1.295 0 .515.067.95.199 1.307.137.352.326.62.568.801.243.178.525.267.847.267a1.306 1.306 0 0 0 1.176-.648 1.92 1.92 0 0 0 .244-.784h2.597c-.026.72-.206 1.349-.54 1.887a3.338 3.338 0 0 1-1.392 1.255c-.594.296-1.301.444-2.119.444Zm9.552 0c-.912 0-1.7-.18-2.363-.54a3.734 3.734 0 0 1-1.523-1.551c-.352-.675-.528-1.476-.528-2.404 0-.901.178-1.69.534-2.363a3.86 3.86 0 0 1 1.505-1.58c.648-.379 1.411-.568 2.29-.568.621 0 1.19.096 1.705.29.515.193.96.479 1.335.858.375.378.667.846.875 1.403.208.553.312 1.188.312 1.903v.694h-7.585v-1.614h5a1.57 1.57 0 0 0-.21-.79 1.428 1.428 0 0 0-.562-.54 1.626 1.626 0 0 0-.813-.198c-.311 0-.589.07-.835.21a1.585 1.585 0 0 0-.813 1.364v1.641c0 .356.07.669.211.938.14.265.339.471.596.62.258.147.565.22.921.22.246 0 .469-.033.67-.101a1.43 1.43 0 0 0 .517-.302c.144-.132.252-.295.324-.488l2.551.074a3.154 3.154 0 0 1-.699 1.494c-.356.42-.824.748-1.403.983-.58.231-1.25.346-2.012.346ZM36.186 95.545v-.895l3.361-3.679c.395-.43.72-.805.975-1.124a4.14 4.14 0 0 0 .566-.904 2.19 2.19 0 0 0 .19-.895 1.65 1.65 0 0 0-.26-.93 1.677 1.677 0 0 0-.695-.606 2.257 2.257 0 0 0-.995-.214c-.39 0-.732.081-1.024.243-.288.16-.512.383-.67.672a2.102 2.102 0 0 0-.235 1.014h-1.173c0-.597.138-1.12.413-1.571a2.87 2.87 0 0 1 1.123-1.054 3.387 3.387 0 0 1 1.606-.378c.597 0 1.125.126 1.586.378.46.252.822.591 1.084 1.019.262.428.393.903.393 1.427 0 .374-.068.74-.204 1.099-.133.354-.365.75-.696 1.188-.328.434-.784.964-1.367 1.59l-2.287 2.447v.08h4.733v1.093h-6.424Zm12.638.14c-.75 0-1.387-.205-1.914-.612-.527-.411-.93-1.006-1.208-1.785-.279-.782-.418-1.727-.418-2.834 0-1.1.14-2.04.418-2.819.282-.782.686-1.379 1.213-1.79.53-.414 1.166-.621 1.909-.621.742 0 1.377.207 1.904.621.53.411.935 1.008 1.213 1.79.282.779.423 1.719.423 2.819 0 1.107-.14 2.052-.418 2.834-.278.779-.681 1.374-1.208 1.785-.527.407-1.165.611-1.914.611Zm0-1.095c.742 0 1.319-.358 1.73-1.074.411-.715.616-1.736.616-3.062 0-.882-.094-1.632-.283-2.252-.185-.62-.454-1.092-.805-1.417a1.778 1.778 0 0 0-1.258-.487c-.736 0-1.31.363-1.725 1.088-.414.723-.622 1.746-.622 3.068 0 .882.093 1.63.279 2.247.185.617.452 1.086.8 1.407.352.322.774.482 1.268.482Zm9.59 1.094c-.75 0-1.387-.204-1.914-.611-.527-.411-.93-1.006-1.208-1.785-.279-.782-.418-1.727-.418-2.834 0-1.1.14-2.04.418-2.819.282-.782.686-1.379 1.213-1.79.53-.414 1.166-.621 1.909-.621.742 0 1.377.207 1.904.621.53.411.935 1.008 1.213 1.79.282.779.423 1.719.423 2.819 0 1.107-.14 2.052-.418 2.834-.278.779-.681 1.374-1.208 1.785-.527.407-1.165.611-1.914.611Zm0-1.094c.742 0 1.319-.358 1.73-1.074.411-.715.617-1.736.617-3.062 0-.882-.095-1.632-.284-2.252-.185-.62-.454-1.092-.805-1.417a1.778 1.778 0 0 0-1.258-.487c-.736 0-1.31.363-1.725 1.088-.414.723-.622 1.746-.622 3.068 0 .882.093 1.63.279 2.247.185.617.452 1.086.8 1.407.352.322.774.482 1.268.482Zm6.448.955V85.363h1.233v5.051h.12l4.573-5.05h1.61l-4.275 4.593 4.276 5.588h-1.492l-3.54-4.733-1.272 1.432v3.3h-1.233Z"/><path stroke="#E1E4ED" stroke-dasharray="4 7" stroke-linecap="round" d="M80.762 90.545h227"/><path fill="#19213D" d="M41.967 129.613v10.182h-1.233v-8.889h-.06l-2.485 1.65v-1.253l2.545-1.69h1.233Zm6.95 10.321a3.496 3.496 0 0 1-1.576-.348 2.93 2.93 0 0 1-1.123-.954 2.603 2.603 0 0 1-.463-1.383h1.193c.047.461.256.842.627 1.144.374.298.822.447 1.342.447.418 0 .789-.097 1.114-.293.328-.195.585-.464.77-.805a2.38 2.38 0 0 0 .284-1.169c0-.444-.098-.84-.294-1.188a2.153 2.153 0 0 0-.795-.83 2.246 2.246 0 0 0-1.158-.308 3.142 3.142 0 0 0-.96.144 2.65 2.65 0 0 0-.81.373l-1.154-.14.617-5.011h5.29v1.094h-4.256l-.358 3.003h.06a2.64 2.64 0 0 1 .785-.413c.315-.109.643-.164.984-.164.623 0 1.179.149 1.666.447.49.295.875.7 1.153 1.214.282.513.423 1.1.423 1.759 0 .65-.146 1.23-.438 1.741a3.198 3.198 0 0 1-1.193 1.203c-.507.291-1.084.437-1.73.437Zm9.497 0c-.75 0-1.387-.204-1.914-.611-.527-.411-.93-1.006-1.208-1.785-.279-.782-.418-1.727-.418-2.834 0-1.1.14-2.04.418-2.819.282-.782.686-1.379 1.213-1.79.53-.414 1.166-.621 1.909-.621.742 0 1.377.207 1.904.621.53.411.935 1.008 1.213 1.79.282.779.423 1.719.423 2.819 0 1.107-.14 2.052-.418 2.834-.278.779-.681 1.374-1.208 1.785-.527.407-1.165.611-1.914.611Zm0-1.094c.742 0 1.319-.358 1.73-1.073.411-.716.617-1.737.617-3.063 0-.882-.095-1.632-.284-2.252-.185-.62-.454-1.092-.805-1.417a1.777 1.777 0 0 0-1.258-.487c-.736 0-1.31.363-1.725 1.089-.414.722-.622 1.745-.622 3.067 0 .882.093 1.631.279 2.247.185.617.452 1.086.8 1.407a1.81 1.81 0 0 0 1.268.482Zm6.448.955v-10.182h1.233v5.051h.12l4.573-5.051h1.61l-4.275 4.594 4.276 5.588h-1.492l-3.54-4.733-1.272 1.432v3.301h-1.233Z"/><path stroke="#E1E4ED" stroke-dasharray="4 7" stroke-linecap="round" d="M80.762 134.795h227"/><path fill="#19213D" d="M41.735 173.863v10.182h-1.233v-8.889h-.06l-2.486 1.65v-1.253l2.546-1.69h1.233Zm7.089 10.321c-.75 0-1.387-.204-1.914-.611-.527-.411-.93-1.006-1.208-1.785-.279-.782-.418-1.727-.418-2.834 0-1.1.14-2.04.418-2.819.282-.782.686-1.379 1.213-1.79.53-.414 1.166-.621 1.909-.621.742 0 1.377.207 1.904.621.53.411.935 1.008 1.213 1.79.282.779.423 1.719.423 2.819 0 1.107-.14 2.052-.418 2.834-.278.779-.681 1.374-1.208 1.785-.527.407-1.165.611-1.914.611Zm0-1.094c.742 0 1.319-.358 1.73-1.073.411-.716.616-1.737.616-3.063 0-.882-.094-1.632-.283-2.252-.185-.62-.454-1.092-.805-1.417a1.777 1.777 0 0 0-1.258-.487c-.736 0-1.31.363-1.725 1.089-.414.722-.622 1.745-.622 3.067 0 .882.093 1.631.279 2.247.185.617.452 1.086.8 1.407a1.81 1.81 0 0 0 1.268.482Zm9.59 1.094c-.75 0-1.387-.204-1.914-.611-.527-.411-.93-1.006-1.208-1.785-.279-.782-.418-1.727-.418-2.834 0-1.1.14-2.04.418-2.819.282-.782.686-1.379 1.213-1.79.53-.414 1.166-.621 1.909-.621.742 0 1.377.207 1.904.621.53.411.935 1.008 1.213 1.79.282.779.423 1.719.423 2.819 0 1.107-.14 2.052-.418 2.834-.278.779-.681 1.374-1.208 1.785-.527.407-1.165.611-1.914.611Zm0-1.094c.742 0 1.319-.358 1.73-1.073.411-.716.617-1.737.617-3.063 0-.882-.095-1.632-.284-2.252-.185-.62-.454-1.092-.805-1.417a1.777 1.777 0 0 0-1.258-.487c-.736 0-1.31.363-1.725 1.089-.414.722-.622 1.745-.622 3.067 0 .882.093 1.631.279 2.247.185.617.452 1.086.8 1.407a1.81 1.81 0 0 0 1.268.482Zm6.448.955v-10.182h1.233v5.051h.12l4.573-5.051h1.61l-4.275 4.594 4.276 5.588h-1.492l-3.54-4.733-1.272 1.432v3.301h-1.233Z"/><path stroke="#E1E4ED" stroke-dasharray="4 7" stroke-linecap="round" d="M80.762 179.045h227"/><path fill="#19213D" d="M48.917 228.434a3.496 3.496 0 0 1-1.576-.348 2.93 2.93 0 0 1-1.123-.954 2.603 2.603 0 0 1-.463-1.383h1.193c.047.461.256.842.627 1.144.374.298.822.447 1.342.447.418 0 .789-.097 1.114-.293.328-.195.585-.464.77-.805a2.38 2.38 0 0 0 .284-1.169c0-.444-.098-.84-.294-1.188a2.153 2.153 0 0 0-.795-.83 2.246 2.246 0 0 0-1.158-.308 3.142 3.142 0 0 0-.96.144 2.65 2.65 0 0 0-.81.373l-1.154-.14.617-5.011h5.29v1.094h-4.256l-.358 3.003h.06a2.64 2.64 0 0 1 .785-.413c.315-.109.643-.164.984-.164.623 0 1.179.149 1.666.447.49.295.875.7 1.153 1.214.282.513.423 1.1.423 1.759 0 .65-.146 1.23-.438 1.741a3.198 3.198 0 0 1-1.193 1.203c-.507.291-1.084.437-1.73.437Zm9.497 0c-.75 0-1.387-.204-1.914-.611-.527-.411-.93-1.006-1.208-1.785-.279-.782-.418-1.727-.418-2.834 0-1.1.14-2.04.418-2.819.282-.782.686-1.379 1.213-1.79.53-.414 1.166-.621 1.909-.621.742 0 1.377.207 1.904.621.53.411.935 1.008 1.213 1.79.282.779.423 1.719.423 2.819 0 1.107-.14 2.052-.418 2.834-.278.779-.681 1.374-1.208 1.785-.527.407-1.165.611-1.914.611Zm0-1.094c.742 0 1.319-.358 1.73-1.073.411-.716.617-1.737.617-3.063 0-.882-.095-1.632-.284-2.252-.185-.62-.454-1.092-.805-1.417a1.777 1.777 0 0 0-1.258-.487c-.736 0-1.31.363-1.725 1.089-.414.722-.622 1.745-.622 3.067 0 .882.093 1.631.279 2.247.185.617.452 1.086.8 1.407a1.81 1.81 0 0 0 1.268.482Zm6.448.955v-10.182h1.233v5.051h.12l4.573-5.051h1.61l-4.275 4.594 4.276 5.588h-1.492l-3.54-4.733-1.272 1.432v3.301h-1.233Z"/><path stroke="#E1E4ED" stroke-dasharray="4 7" stroke-linecap="round" d="M80.762 223.295h227"/><path fill="#19213D" d="M68.387 268.184c-.75 0-1.387-.204-1.914-.611-.527-.411-.93-1.006-1.208-1.785-.279-.782-.418-1.727-.418-2.834 0-1.1.14-2.04.418-2.819.281-.782.686-1.379 1.213-1.79.53-.414 1.166-.621 1.909-.621.742 0 1.377.207 1.904.621.53.411.934 1.008 1.213 1.79.282.779.422 1.719.422 2.819 0 1.107-.139 2.052-.417 2.834-.278.779-.681 1.374-1.208 1.785-.527.407-1.165.611-1.914.611Zm0-1.094c.742 0 1.319-.358 1.73-1.073.41-.716.616-1.737.616-3.063 0-.882-.094-1.632-.283-2.252-.186-.62-.454-1.092-.806-1.417a1.777 1.777 0 0 0-1.257-.487c-.736 0-1.311.363-1.725 1.089-.415.722-.622 1.745-.622 3.067 0 .882.093 1.631.278 2.247.186.617.453 1.086.801 1.407a1.81 1.81 0 0 0 1.268.482Z"/><path stroke="#E1E4ED" stroke-linecap="round" d="M80.762 263.045h227"/><path fill="url(#b)" d="m85.911 144.087-5.159-5.154V263.26h227V136.871l-5.159 10.308-5.159-3.092-5.159 3.092h-10.318l-5.16-3.092-5.159-1.031h-5.159l-5.159-2.062-5.159 1.031h-5.159l-5.159-1.031h-5.159l-5.159 1.031h-5.159l-5.16 7.216-5.159 1.031-5.159 4.123-5.159-3.092h-5.159l-5.159 2.061h-5.159l-5.159 1.031-5.159 3.093-5.159-4.124h-10.319l-5.159-3.092h-5.159l-5.159-3.093-5.159 1.031-5.159-4.123-5.159-7.216h-5.159l-5.159 1.031-5.159 6.185-5.159 1.031-5.16-1.031h-5.159l-5.159 5.154h-5.159l-5.159-4.123-5.159-1.031Z" opacity=".12"/><path stroke="#2388FF" stroke-linecap="round" stroke-linejoin="round" stroke-width="3" d="m80.752 138.933 5.159 5.154 5.16 1.031 5.158 4.123h5.159l5.159-5.154h5.16l5.159 1.031 5.159-1.031 5.159-6.185 5.159-1.031h5.159l5.159 7.216 5.159 4.123 5.159-1.031 5.159 3.093h5.159l5.16 3.092h10.318l5.159 4.124 5.159-3.093 5.159-1.031h5.159l5.159-2.061h5.159l5.159 3.092 5.159-4.123 5.159-1.031 5.16-7.216h5.159l5.159-1.031h5.159l5.159 1.031h5.159l5.159-1.031 5.159 2.062h5.159l5.159 1.031 5.16 3.092h10.318l5.159-3.092 5.159 3.092 5.159-10.308"/><path fill="url(#c)" d="m86.427 193.023-5.675 4.321v65.916h227v-63.323l-5.675.865-5.675.864-5.675-1.729h-5.675l-5.675.865h-5.675l-5.675-4.322-5.675-1.729-5.675 2.593-5.675 2.593-5.675 2.593-5.675 6.051-5.675-2.593-5.675-3.458h-5.675l-5.675-1.728-5.675-.865-5.675 2.593-5.675-2.593-5.675-5.186h-5.675l-5.675 1.729-5.675 1.729h-5.675l-5.675 1.728h-11.35l-5.675-1.728-5.675-5.186-5.675-5.187-5.675-3.457-5.675 2.593-5.675 6.915h-5.675l-5.675 3.457h-5.675l-5.675-1.728h-5.675l-5.675-2.593Z" opacity=".32"/><path stroke="#8DC1FF" stroke-linecap="round" stroke-linejoin="round" stroke-width="3" d="m80.752 197.344 5.675-4.321 5.675 2.593h5.675l5.675 1.728h5.675l5.675-3.457h5.675l5.675-6.915 5.675-2.593 5.675 3.457 5.675 5.187 5.675 5.186 5.675 1.728h11.35l5.675-1.728h5.675l5.675-1.729 5.675-1.729h5.675l5.675 5.186 5.675 2.593 5.675-2.593 5.675.865 5.675 1.728h5.675l5.675 3.458 5.675 2.593 5.675-6.051 5.675-2.593 5.675-2.593 5.675-2.593 5.675 1.729 5.675 4.322h5.675l5.675-.865h5.675l5.675 1.729 5.675-.864 5.675-.865"/><path stroke="#2388FF" stroke-linecap="round" stroke-width="2" d="M224.762 142.26v121"/><circle cx="224.762" cy="150.26" r="8.544" fill="#fff" stroke="#C3DDFF" stroke-width="1.088"/><circle cx="224.762" cy="150.26" r="5" fill="#2388FF"/><g filter="url(#d)"><rect width="87" height="32.001" x="181.262" y="98.26" fill="#19213D" rx="4" shape-rendering="crispEdges"/><path fill="#fff" d="M191.574 119.26h-1.969l3.584-10.182h2.277l3.59 10.182h-1.969l-2.719-8.094h-.08l-2.714 8.094Zm.064-3.992h5.369v1.481h-5.369v-1.481Zm8.759 3.992v-10.182h3.818c.782 0 1.438.146 1.969.437a2.92 2.92 0 0 1 1.208 1.204c.275.507.413 1.083.413 1.73 0 .653-.138 1.233-.413 1.74a2.95 2.95 0 0 1-1.218 1.198c-.537.288-1.198.432-1.984.432h-2.53v-1.516h2.282c.457 0 .831-.079 1.123-.239.292-.159.507-.377.646-.656.143-.278.214-.598.214-.959 0-.362-.071-.68-.214-.955a1.448 1.448 0 0 0-.651-.641c-.291-.156-.668-.234-1.128-.234h-1.691v8.641h-1.844Zm9.01 0v-10.182h3.818c.782 0 1.438.136 1.969.408.533.271.936.653 1.208 1.143.275.487.412 1.056.412 1.705 0 .653-.139 1.22-.417 1.701-.275.477-.681.846-1.218 1.108-.537.259-1.197.388-1.979.388h-2.72V114h2.471c.458 0 .832-.063 1.124-.189.292-.129.507-.317.646-.562.143-.248.214-.553.214-.915 0-.361-.071-.669-.214-.924a1.356 1.356 0 0 0-.651-.587c-.292-.136-.668-.204-1.129-.204h-1.69v8.641h-1.844Zm5.26-4.614 2.52 4.614h-2.058l-2.476-4.614h2.014Zm4.874 3.391c-.301 0-.56-.106-.775-.318a1.042 1.042 0 0 1-.319-.776 1.021 1.021 0 0 1 .319-.766c.215-.212.474-.318.775-.318.292 0 .545.106.761.318a1.046 1.046 0 0 1 .174 1.318c-.1.166-.232.298-.398.398a1.034 1.034 0 0 1-.537.144Zm0-5.046c-.301 0-.56-.106-.775-.319a1.04 1.04 0 0 1-.319-.775 1.02 1.02 0 0 1 .319-.766c.215-.215.474-.323.775-.323.292 0 .545.108.761.323.219.212.33.468.333.766a1.048 1.048 0 0 1-.159.547c-.1.165-.232.298-.398.397-.162.1-.341.15-.537.15Zm10.546-3.913v10.182h-1.844v-8.387h-.06l-2.381 1.521v-1.69l2.53-1.626h1.755Zm2.401 8.293v-1.467l4.321-6.826h1.223v2.088h-.746l-2.908 4.609v.079h6.03v1.517h-7.92Zm4.858 1.889v-2.337l.02-.656v-7.189h1.74v10.182h-1.76Zm8.379.139a4.288 4.288 0 0 1-1.427-.254 3.348 3.348 0 0 1-1.252-.82c-.372-.381-.667-.886-.885-1.516-.219-.633-.327-1.417-.323-2.352 0-.871.092-1.649.278-2.331.186-.683.452-1.26.8-1.731a3.529 3.529 0 0 1 1.258-1.083 3.627 3.627 0 0 1 1.656-.373c.639 0 1.206.126 1.7.378.497.251.898.596 1.203 1.034.305.434.494.924.567 1.471h-1.815a1.648 1.648 0 0 0-.571-.934c-.286-.236-.647-.353-1.084-.353-.706 0-1.25.306-1.631.919-.378.614-.568 1.455-.572 2.526h.07c.162-.292.373-.542.631-.751a2.89 2.89 0 0 1 .875-.482 3.096 3.096 0 0 1 1.039-.174c.597 0 1.132.142 1.606.428.477.285.855.677 1.134 1.178.278.497.416 1.067.412 1.71a3.502 3.502 0 0 1-.457 1.805c-.308.53-.737.948-1.288 1.253-.55.304-1.191.455-1.924.452Zm-.01-1.492c.362 0 .685-.087.97-.263.285-.176.51-.413.676-.711.166-.298.247-.633.244-1.004a1.988 1.988 0 0 0-.239-.99 1.827 1.827 0 0 0-.661-.701 1.814 1.814 0 0 0-.965-.258 1.858 1.858 0 0 0-1.357.582 2.017 2.017 0 0 0-.408.626 2.041 2.041 0 0 0-.149.756c.003.354.086.681.249.979.162.298.386.537.671.716.285.179.608.268.969.268Zm5.459 1.353v-10.182h1.845v4.678h.124l3.972-4.678h2.252l-3.937 4.569 3.972 5.613h-2.217l-3.038-4.365-1.128 1.332v3.033h-1.845Z"/><path fill="#19213D" d="m223.348 135.846-5.708-5.708a3 3 0 0 0-2.121-.878h18.485c-.795 0-1.558.316-2.121.878l-5.707 5.708a2 2 0 0 1-2.828 0Z"/></g><rect width="6" height="6" x="107.762" y="288.76" fill="#2388FF" rx="3"/><path fill="#19213D" d="M124.784 290.26a3.082 3.082 0 0 0-.37-.772 2.395 2.395 0 0 0-.541-.588 2.276 2.276 0 0 0-.708-.37 2.794 2.794 0 0 0-.869-.128c-.517 0-.987.133-1.411.4-.423.267-.76.661-1.01 1.181s-.375 1.157-.375 1.913.127 1.394.38 1.913c.252.52.595.914 1.027 1.181.431.267.917.4 1.457.4.5 0 .94-.106 1.321-.319.384-.216.682-.52.895-.912.216-.395.324-.859.324-1.394l.324.069h-2.625v-.938h3.323v.938c0 .718-.153 1.343-.46 1.875a3.174 3.174 0 0 1-1.261 1.235c-.534.29-1.148.435-1.841.435-.773 0-1.452-.182-2.037-.545-.582-.364-1.037-.881-1.364-1.552-.323-.67-.485-1.465-.485-2.386 0-.69.092-1.311.277-1.862a4.114 4.114 0 0 1 .792-1.415 3.485 3.485 0 0 1 1.21-.895 3.749 3.749 0 0 1 1.539-.311c.46 0 .889.07 1.287.209.4.136.757.331 1.069.584.316.25.578.55.789.899.21.347.355.731.434 1.155h-1.091Zm5.475 6.136c-.591 0-1.109-.14-1.555-.422a2.863 2.863 0 0 1-1.04-1.18c-.247-.506-.371-1.097-.371-1.773 0-.682.124-1.277.371-1.785.25-.509.597-.904 1.04-1.185.446-.281.964-.422 1.555-.422s1.108.141 1.551.422c.446.281.793.676 1.04 1.185.25.508.375 1.103.375 1.785 0 .676-.125 1.267-.375 1.773a2.822 2.822 0 0 1-1.04 1.18c-.443.282-.96.422-1.551.422Zm0-.903c.449 0 .818-.115 1.108-.345.29-.231.504-.533.644-.908.139-.375.208-.781.208-1.219 0-.437-.069-.845-.208-1.223a2.065 2.065 0 0 0-.644-.916c-.29-.233-.659-.35-1.108-.35-.449 0-.818.117-1.108.35a2.064 2.064 0 0 0-.643.916 3.518 3.518 0 0 0-.209 1.223c0 .438.07.844.209 1.219.139.375.354.677.643.908.29.23.659.345 1.108.345Zm7.16.903c-.591 0-1.109-.14-1.555-.422a2.863 2.863 0 0 1-1.04-1.18c-.247-.506-.371-1.097-.371-1.773 0-.682.124-1.277.371-1.785.25-.509.597-.904 1.04-1.185.446-.281.964-.422 1.555-.422s1.108.141 1.552.422c.446.281.792.676 1.039 1.185.25.508.375 1.103.375 1.785 0 .676-.125 1.267-.375 1.773a2.82 2.82 0 0 1-1.039 1.18c-.444.282-.961.422-1.552.422Zm0-.903c.449 0 .819-.115 1.108-.345.29-.231.505-.533.644-.908a3.48 3.48 0 0 0 .209-1.219c0-.437-.07-.845-.209-1.223a2.058 2.058 0 0 0-.644-.916c-.289-.233-.659-.35-1.108-.35-.448 0-.818.117-1.108.35a2.064 2.064 0 0 0-.643.916 3.518 3.518 0 0 0-.209 1.223c0 .438.07.844.209 1.219.139.375.354.677.643.908.29.23.66.345 1.108.345Zm7.144 3.358c-.486 0-.904-.063-1.253-.188a2.647 2.647 0 0 1-1.424-1.125l.802-.562c.09.119.205.255.345.409.139.156.329.291.571.405.244.116.564.174.959.174.528 0 .964-.128 1.308-.383.343-.256.515-.656.515-1.202v-1.329h-.085a5.56 5.56 0 0 1-.315.443 1.792 1.792 0 0 1-.58.464c-.25.134-.588.2-1.014.2a2.73 2.73 0 0 1-1.423-.375 2.626 2.626 0 0 1-.993-1.09c-.242-.478-.362-1.057-.362-1.739 0-.671.118-1.254.353-1.751.236-.5.564-.887.985-1.16.42-.275.906-.413 1.457-.413.426 0 .764.071 1.014.213.253.139.446.298.58.477.136.177.241.321.315.435h.102v-1.04h.972v6.733c0 .563-.128 1.02-.383 1.372a2.181 2.181 0 0 1-1.023.78 3.851 3.851 0 0 1-1.423.252Zm-.035-3.597c.404 0 .745-.092 1.023-.277.279-.185.49-.45.635-.797.145-.346.217-.761.217-1.244 0-.472-.071-.888-.213-1.249a1.881 1.881 0 0 0-.63-.848c-.279-.204-.622-.307-1.032-.307-.426 0-.781.108-1.065.324a1.974 1.974 0 0 0-.635.87 3.362 3.362 0 0 0-.209 1.21c0 .454.071.856.213 1.206.145.346.358.619.64.818.284.196.636.294 1.056.294Zm5.711-7.722v8.728h-1.006v-8.728h1.006Zm4.586 8.864c-.631 0-1.175-.139-1.632-.417a2.806 2.806 0 0 1-1.053-1.177c-.244-.505-.366-1.093-.366-1.764 0-.67.122-1.261.366-1.773a2.887 2.887 0 0 1 1.032-1.201c.443-.29.96-.435 1.551-.435.341 0 .677.057 1.01.171.332.113.635.298.907.554.273.252.49.588.652 1.005.162.418.243.932.243 1.543v.426h-5.045v-.869h4.022c0-.37-.073-.699-.221-.989a1.67 1.67 0 0 0-.622-.686 1.74 1.74 0 0 0-.946-.252c-.401 0-.748.1-1.04.299-.29.196-.513.451-.669.767a2.255 2.255 0 0 0-.235 1.014v.58c0 .494.086.913.256 1.257.173.341.414.601.72.78.307.176.664.264 1.07.264.264 0 .503-.037.716-.111.216-.077.402-.19.558-.341.156-.153.277-.344.362-.571l.972.273a2.149 2.149 0 0 1-.516.869c-.241.247-.54.44-.895.58a3.325 3.325 0 0 1-1.197.204Z"/><rect width="6" height="6" x="166.762" y="288.76" fill="#8DC1FF" rx="3"/><path fill="#19213D" d="M177.819 296.26v-8.728h5.232v.938h-4.176v2.949h3.784v.937h-3.784v3.904h-1.056Zm8.832.153c-.414 0-.791-.078-1.129-.234a1.933 1.933 0 0 1-.805-.686c-.199-.301-.299-.665-.299-1.091 0-.375.074-.679.222-.912a1.56 1.56 0 0 1 .592-.554c.247-.134.52-.233.818-.298.302-.069.604-.123.908-.162.398-.051.72-.09.967-.115.25-.029.432-.076.546-.141.116-.065.175-.179.175-.341v-.034c0-.42-.115-.747-.346-.98-.227-.233-.572-.35-1.035-.35-.48 0-.857.106-1.129.316-.273.21-.465.434-.576.673l-.954-.341c.17-.398.398-.707.682-.929.287-.224.599-.38.937-.469.341-.09.676-.136 1.006-.136.21 0 .452.026.724.077.276.048.541.149.797.302.259.154.473.385.644.695.17.31.255.724.255 1.244v4.313h-1.005v-.887h-.052a1.764 1.764 0 0 1-.34.456c-.16.162-.371.3-.635.414-.265.113-.587.17-.968.17Zm.154-.903c.397 0 .733-.078 1.005-.235a1.6 1.6 0 0 0 .836-1.385v-.92c-.043.051-.137.098-.282.141a4.853 4.853 0 0 1-.494.106 21.302 21.302 0 0 1-.963.128 3.815 3.815 0 0 0-.733.166 1.261 1.261 0 0 0-.545.337c-.137.148-.205.349-.205.605 0 .349.129.614.388.793.261.176.592.264.993.264Zm7.341.886c-.614 0-1.142-.145-1.585-.435a2.828 2.828 0 0 1-1.023-1.197c-.239-.508-.358-1.089-.358-1.743 0-.665.122-1.251.367-1.76.247-.511.59-.91 1.031-1.197.443-.29.96-.435 1.551-.435.46 0 .875.085 1.244.256.37.17.672.409.908.716.236.306.382.664.439 1.074h-1.006a1.56 1.56 0 0 0-.511-.793c-.262-.233-.614-.35-1.057-.35a1.77 1.77 0 0 0-1.031.307 1.995 1.995 0 0 0-.686.857c-.162.366-.243.797-.243 1.291 0 .506.079.946.238 1.321.162.375.39.666.682.874.296.207.642.311 1.04.311.261 0 .499-.046.712-.137a1.465 1.465 0 0 0 .856-1.005h1.006a2.34 2.34 0 0 1-.422 1.044 2.364 2.364 0 0 1-.882.733c-.364.179-.787.268-1.27.268Zm6.788 0c-.63 0-1.174-.139-1.632-.417a2.81 2.81 0 0 1-1.052-1.177c-.245-.505-.367-1.093-.367-1.764 0-.67.122-1.261.367-1.773a2.891 2.891 0 0 1 1.031-1.201c.443-.29.96-.435 1.551-.435.341 0 .678.057 1.01.171.332.113.635.298.908.554.272.252.49.588.652 1.005.162.418.243.932.243 1.543v.426h-5.046v-.869h4.023c0-.37-.074-.699-.222-.989a1.67 1.67 0 0 0-.622-.686 1.738 1.738 0 0 0-.946-.252c-.401 0-.747.1-1.04.299-.29.196-.513.451-.669.767a2.254 2.254 0 0 0-.234 1.014v.58c0 .494.085.913.256 1.257.173.341.413.601.72.78a2.11 2.11 0 0 0 1.069.264c.265 0 .503-.037.716-.111.216-.077.402-.19.558-.341a1.55 1.55 0 0 0 .363-.571l.971.273a2.158 2.158 0 0 1-.515.869c-.242.247-.54.44-.895.58a3.33 3.33 0 0 1-1.198.204Zm4.377-.136v-8.728h1.005v3.222h.086c.073-.114.176-.258.306-.435.134-.179.324-.338.571-.477.25-.142.589-.213 1.015-.213.551 0 1.037.138 1.457.413.421.276.749.667.984 1.172.236.506.354 1.103.354 1.79 0 .693-.118 1.294-.354 1.803-.235.505-.562.897-.98 1.176a2.565 2.565 0 0 1-1.444.413c-.421 0-.757-.069-1.01-.209a1.865 1.865 0 0 1-.584-.481 6.37 6.37 0 0 1-.315-.452h-.12v1.006h-.971Zm.988-3.273c0 .494.073.93.218 1.308.145.375.356.669.635.882.278.211.619.316 1.022.316.421 0 .772-.111 1.053-.333.284-.224.497-.525.639-.903.145-.381.217-.804.217-1.27 0-.46-.071-.875-.213-1.244a1.916 1.916 0 0 0-.635-.882c-.281-.219-.635-.329-1.061-.329-.409 0-.752.104-1.031.312a1.866 1.866 0 0 0-.631.86c-.142.367-.213.794-.213 1.283Zm8.988 3.409c-.591 0-1.11-.14-1.556-.422a2.863 2.863 0 0 1-1.04-1.18c-.247-.506-.37-1.097-.37-1.773 0-.682.123-1.277.37-1.785.25-.509.597-.904 1.04-1.185.446-.281.965-.422 1.556-.422.59 0 1.108.141 1.551.422.446.281.792.676 1.039 1.185.25.508.375 1.103.375 1.785 0 .676-.125 1.267-.375 1.773a2.82 2.82 0 0 1-1.039 1.18c-.443.282-.961.422-1.551.422Zm0-.903c.448 0 .818-.115 1.108-.345.289-.231.504-.533.643-.908a3.48 3.48 0 0 0 .209-1.219c0-.437-.07-.845-.209-1.223a2.064 2.064 0 0 0-.643-.916c-.29-.233-.66-.35-1.108-.35-.449 0-.819.117-1.108.35-.29.233-.505.538-.644.916a3.518 3.518 0 0 0-.209 1.223c0 .438.07.844.209 1.219.139.375.354.677.644.908.289.23.659.345 1.108.345Zm7.16.903c-.591 0-1.11-.14-1.556-.422a2.861 2.861 0 0 1-1.039-1.18c-.248-.506-.371-1.097-.371-1.773 0-.682.123-1.277.371-1.785.25-.509.596-.904 1.039-1.185.446-.281.965-.422 1.556-.422.591 0 1.108.141 1.551.422.446.281.792.676 1.04 1.185.25.508.375 1.103.375 1.785 0 .676-.125 1.267-.375 1.773a2.829 2.829 0 0 1-1.04 1.18c-.443.282-.96.422-1.551.422Zm0-.903c.449 0 .818-.115 1.108-.345.289-.231.504-.533.643-.908a3.48 3.48 0 0 0 .209-1.219c0-.437-.07-.845-.209-1.223a2.064 2.064 0 0 0-.643-.916c-.29-.233-.659-.35-1.108-.35-.449 0-.818.117-1.108.35-.29.233-.504.538-.644.916a3.518 3.518 0 0 0-.208 1.223c0 .438.069.844.208 1.219.14.375.354.677.644.908.29.23.659.345 1.108.345Zm5.438-1.62-.017-1.244h.205l2.863-2.915h1.245l-3.051 3.086h-.086l-1.159 1.073Zm-.937 2.387v-8.728h1.005v8.728h-1.005Zm4.159 0-2.557-3.239.716-.699 3.119 3.938h-1.278Z"/></g><defs><linearGradient id="b" x1="194.252" x2="194.252" y1="136.871" y2="267.524" gradientUnits="userSpaceOnUse"><stop stop-color="#2388FF"/><stop offset=".467" stop-color="#8DC1FF"/><stop offset="1" stop-color="#fff" stop-opacity=".16"/></linearGradient><linearGradient id="c" x1="194.252" x2="194.252" y1="184.379" y2="265.921" gradientUnits="userSpaceOnUse"><stop stop-color="#2388FF"/><stop offset=".467" stop-color="#8DC1FF"/><stop offset="1" stop-color="#fff" stop-opacity=".16"/></linearGradient><filter id="a" width="339" height="329" x=".762" y=".26" color-interpolation-filters="sRGB" filterUnits="userSpaceOnUse"><feFlood flood-opacity="0" result="BackgroundImageFix"/><feColorMatrix in="SourceAlpha" result="hardAlpha" values="0 0 0 0 0 0 0 0 0 0 0 0 0 0 0 0 0 0 127 0"/><feOffset dy="1"/><feGaussianBlur stdDeviation="2"/><feComposite in2="hardAlpha" operator="out"/><feColorMatrix values="0 0 0 0 0.0969792 0 0 0 0 0.127894 0 0 0 0 0.2375 0 0 0 0.08 0"/><feBlend in2="BackgroundImageFix" result="effect1_dropShadow_6477_22624"/><feBlend in="SourceGraphic" in2="effect1_dropShadow_6477_22624" result="shape"/></filter><filter id="d" width="95" height="48" x="177.262" y="95.26" color-interpolation-filters="sRGB" filterUnits="userSpaceOnUse"><feFlood flood-opacity="0" result="BackgroundImageFix"/><feColorMatrix in="SourceAlpha" result="hardAlpha" values="0 0 0 0 0 0 0 0 0 0 0 0 0 0 0 0 0 0 127 0"/><feOffset dy="1"/><feGaussianBlur stdDeviation="2"/><feComposite in2="hardAlpha" operator="out"/><feColorMatrix values="0 0 0 0 0.0969792 0 0 0 0 0.127894 0 0 0 0 0.2375 0 0 0 0.08 0"/><feBlend in2="BackgroundImageFix" result="effect1_dropShadow_6477_22624"/><feBlend in="SourceGraphic" in2="effect1_dropShadow_6477_22624" result="shape"/></filter></defs></svg>