<svg xmlns="http://www.w3.org/2000/svg" width="340" height="330" fill="none"><g filter="url(#a)"><rect width="331" height="321" x="4.523" y="3.225" fill="#fff" rx="24" shape-rendering="crispEdges"/><rect width="330" height="320" x="5.023" y="3.725" stroke="#F1F3F7" rx="23.5" shape-rendering="crispEdges"/><path fill="#6D758F" d="M39.325 33.588a1.56 1.56 0 0 0-.726-1.173c-.424-.279-.945-.418-1.561-.418-.451 0-.845.073-1.184.22a1.889 1.889 0 0 0-.785.6 1.442 1.442 0 0 0-.279.87c0 .273.065.506.194.702.133.192.302.353.508.482.205.126.42.23.646.313.225.08.432.144.621.194l1.034.278c.266.07.56.166.885.289.328.122.642.29.94.502.301.209.55.477.746.805.195.328.293.731.293 1.208a2.68 2.68 0 0 1-.433 1.492c-.285.444-.702.797-1.252 1.059-.547.262-1.212.393-1.994.393-.73 0-1.36-.118-1.894-.353-.53-.236-.948-.564-1.253-.985a2.809 2.809 0 0 1-.512-1.466h1.273c.033.384.162.702.387.954.23.249.517.434.865.557.352.12.73.179 1.134.179.47 0 .893-.076 1.268-.229.374-.155.67-.371.89-.646.218-.279.328-.603.328-.974 0-.339-.095-.614-.284-.826a2.08 2.08 0 0 0-.745-.517 7.834 7.834 0 0 0-1-.348l-1.253-.358c-.795-.229-1.425-.555-1.889-.98-.464-.423-.696-.979-.696-1.665 0-.57.154-1.067.463-1.491a3.07 3.07 0 0 1 1.252-.994 4.231 4.231 0 0 1 1.765-.358c.657 0 1.24.117 1.75.353.51.232.915.55 1.214.954.301.404.46.864.477 1.377h-1.193Zm6.521 0v.995H41.89v-.995h3.957Zm-2.804-1.83h1.173v7.28c0 .33.048.58.145.745a.746.746 0 0 0 .377.328c.156.053.32.08.493.08.129 0 .235-.007.318-.02l.199-.04.238 1.054c-.08.03-.19.06-.333.09a2.45 2.45 0 0 1-.542.049c-.331 0-.656-.071-.974-.214a1.936 1.936 0 0 1-.786-.651c-.205-.292-.308-.66-.308-1.104V31.76Zm6.816 9.646c-.484 0-.923-.092-1.317-.274a2.26 2.26 0 0 1-.94-.8c-.232-.352-.348-.776-.348-1.273 0-.438.086-.792.258-1.064a1.83 1.83 0 0 1 .692-.646c.288-.156.606-.272.954-.348.352-.08.704-.143 1.06-.19.463-.059.84-.104 1.128-.133.291-.034.503-.088.636-.165.136-.076.204-.208.204-.397v-.04c0-.49-.134-.872-.403-1.143-.265-.272-.668-.408-1.208-.408-.56 0-1 .122-1.317.368-.319.245-.542.507-.672.785l-1.113-.397c.199-.464.464-.826.795-1.084.335-.262.7-.444 1.094-.547a4.54 4.54 0 0 1 1.173-.16c.245 0 .527.03.845.09.322.057.632.174.93.353.302.18.552.45.75.81.2.362.3.846.3 1.452v5.032h-1.174V40.19h-.06c-.08.166-.212.344-.398.532-.185.19-.432.35-.74.483-.309.132-.685.199-1.129.199Zm.18-1.054c.463 0 .854-.092 1.172-.274a1.861 1.861 0 0 0 .975-1.616v-1.074c-.05.06-.16.115-.328.165a5.542 5.542 0 0 1-.577.124 26.343 26.343 0 0 1-1.124.149c-.304.04-.59.104-.855.194a1.474 1.474 0 0 0-.636.393c-.16.172-.239.407-.239.706 0 .407.151.716.453.924.305.206.69.309 1.158.309Zm8.783-6.762v.995h-3.958v-.995h3.958Zm-2.804-1.83h1.173v7.28c0 .33.048.58.144.745.1.162.225.272.378.328.156.053.32.08.492.08.13 0 .236-.007.318-.02l.2-.04.238 1.054c-.08.03-.19.06-.333.09a2.45 2.45 0 0 1-.542.049c-.332 0-.656-.071-.975-.214a1.936 1.936 0 0 1-.785-.651c-.206-.292-.308-.66-.308-1.104V31.76Zm4.569 9.467v-7.637h1.173v7.637h-1.173Zm.596-8.91a.834.834 0 0 1-.591-.233.75.75 0 0 1-.244-.562.75.75 0 0 1 .244-.562.834.834 0 0 1 .591-.233c.229 0 .424.077.587.233a.744.744 0 0 1 .248.562.744.744 0 0 1-.248.562.817.817 0 0 1-.587.233Zm8.135 2.983-1.054.299a1.957 1.957 0 0 0-.293-.512 1.424 1.424 0 0 0-.517-.418c-.22-.11-.5-.164-.84-.164-.468 0-.857.108-1.169.323-.308.212-.462.482-.462.81 0 .292.106.523.318.692.212.169.544.31.994.422l1.134.279c.683.165 1.191.419 1.526.76.335.338.502.774.502 1.308 0 .437-.126.828-.378 1.173-.248.345-.596.616-1.044.815-.447.2-.968.299-1.56.299-.78 0-1.424-.17-1.935-.507-.51-.339-.833-.832-.97-1.482l1.114-.278c.106.41.307.719.602.924.298.206.688.309 1.168.309.547 0 .981-.116 1.303-.348.325-.236.487-.517.487-.846a.888.888 0 0 0-.278-.666c-.186-.182-.471-.318-.855-.407l-1.273-.299c-.7-.166-1.213-.422-1.541-.77-.325-.352-.488-.79-.488-1.318 0-.43.121-.812.363-1.143a2.47 2.47 0 0 1 1-.78 3.51 3.51 0 0 1 1.441-.284c.756 0 1.35.166 1.78.497.434.331.743.769.925 1.313Zm5.226-1.71v.995h-3.957v-.995h3.957Zm-2.804-1.83h1.174v7.28c0 .33.048.58.144.745.1.162.225.272.378.328.155.053.32.08.492.08.13 0 .235-.007.318-.02l.199-.04.239 1.054a2.522 2.522 0 0 1-.875.139c-.332 0-.657-.071-.975-.214a1.936 1.936 0 0 1-.785-.651c-.206-.292-.309-.66-.309-1.104V31.76Zm4.57 9.467v-7.637h1.172v7.637h-1.173Zm.596-8.91a.834.834 0 0 1-.592-.233.75.75 0 0 1-.243-.562.75.75 0 0 1 .243-.562.834.834 0 0 1 .592-.233c.228 0 .424.077.587.233a.744.744 0 0 1 .248.562.744.744 0 0 1-.248.562.817.817 0 0 1-.587.233Zm5.828 9.069c-.716 0-1.333-.17-1.85-.507a3.305 3.305 0 0 1-1.193-1.397c-.278-.594-.418-1.271-.418-2.034 0-.775.143-1.46.428-2.053a3.38 3.38 0 0 1 1.203-1.397c.517-.338 1.12-.507 1.81-.507.537 0 1.02.1 1.452.298.43.199.783.477 1.058.835.276.358.446.776.513 1.253h-1.174c-.09-.348-.288-.656-.596-.925-.305-.271-.716-.407-1.233-.407-.458 0-.859.12-1.203.358-.342.235-.609.568-.8.999-.19.428-.284.93-.284 1.506 0 .59.093 1.104.278 1.542.19.437.454.777.796 1.019.344.242.749.363 1.213.363.305 0 .581-.053.83-.16.249-.105.46-.258.631-.457.173-.199.295-.437.368-.716h1.174c-.067.451-.23.857-.493 1.218a2.75 2.75 0 0 1-1.029.855c-.424.21-.918.314-1.481.314Zm10.127-6.086-1.054.299a1.956 1.956 0 0 0-.293-.512 1.424 1.424 0 0 0-.517-.418c-.22-.11-.5-.164-.84-.164-.468 0-.857.108-1.169.323-.308.212-.462.482-.462.81 0 .292.106.523.318.692.212.169.543.31.994.422l1.134.279c.682.165 1.191.419 1.526.76.335.338.502.774.502 1.308 0 .437-.126.828-.378 1.173-.248.345-.596.616-1.044.815-.447.2-.968.299-1.56.299-.78 0-1.424-.17-1.935-.507-.51-.339-.833-.832-.97-1.482l1.114-.278c.106.41.307.719.602.924.298.206.688.309 1.168.309.547 0 .981-.116 1.303-.348.325-.236.487-.517.487-.846a.888.888 0 0 0-.278-.666c-.186-.182-.471-.318-.855-.407l-1.273-.299c-.7-.166-1.213-.422-1.541-.77-.325-.352-.488-.79-.488-1.318 0-.43.121-.812.363-1.143a2.47 2.47 0 0 1 1-.78 3.509 3.509 0 0 1 1.441-.284c.756 0 1.35.166 1.78.497.434.331.743.769.925 1.313Z"/><path fill="#19213D" d="M33.404 61.225V49.588h4.807c.871 0 1.623.157 2.256.472.636.31 1.127.757 1.471 1.34.345.58.517 1.268.517 2.063 0 .807-.176 1.493-.528 2.057-.352.56-.852.989-1.5 1.284-.648.292-1.415.438-2.301.438h-3.04v-2.216h2.517c.424 0 .778-.055 1.063-.165.287-.114.505-.284.653-.511.148-.232.221-.527.221-.887s-.073-.657-.221-.892a1.334 1.334 0 0 0-.654-.534c-.287-.121-.642-.182-1.062-.182h-1.386v9.37h-2.813Zm6.551-5.319 2.898 5.319h-3.068l-2.841-5.319h3.011Zm7.95 5.483c-.912 0-1.7-.18-2.363-.54a3.733 3.733 0 0 1-1.523-1.55c-.352-.675-.528-1.476-.528-2.404 0-.902.178-1.69.534-2.364a3.856 3.856 0 0 1 1.506-1.58c.647-.378 1.41-.567 2.29-.567.62 0 1.189.096 1.704.29.515.193.96.479 1.335.857.375.38.667.847.875 1.404.208.553.313 1.187.313 1.903v.693h-7.586v-1.613h5a1.565 1.565 0 0 0-.21-.79 1.428 1.428 0 0 0-.562-.54 1.625 1.625 0 0 0-.813-.199c-.31 0-.589.07-.835.21a1.58 1.58 0 0 0-.813 1.364v1.642a2 2 0 0 0 .21.938c.14.265.34.471.597.62.258.147.565.22.92.22.247 0 .47-.033.671-.102.2-.068.373-.168.517-.3.144-.133.252-.296.324-.49l2.551.075a3.156 3.156 0 0 1-.699 1.494c-.356.42-.824.748-1.403.983-.58.23-1.25.346-2.011.346Zm13.793-8.892-2.994 8.728h-3.182l-2.989-8.728h2.926l1.608 6.012h.091l1.614-6.012h2.926Zm4.864 8.892c-.913 0-1.701-.18-2.364-.54a3.734 3.734 0 0 1-1.523-1.55c-.352-.675-.528-1.476-.528-2.404 0-.902.178-1.69.534-2.364a3.857 3.857 0 0 1 1.506-1.58c.648-.378 1.41-.567 2.29-.567.62 0 1.189.096 1.704.29.515.193.96.479 1.335.857.375.38.667.847.875 1.404.209.553.313 1.187.313 1.903v.693h-7.585v-1.613h5a1.566 1.566 0 0 0-.21-.79 1.43 1.43 0 0 0-.563-.54 1.625 1.625 0 0 0-.813-.199c-.31 0-.589.07-.835.21a1.58 1.58 0 0 0-.813 1.364v1.642a2 2 0 0 0 .21.938c.141.265.34.471.597.62.258.147.565.22.92.22.247 0 .47-.033.671-.102.201-.068.373-.168.517-.3.144-.133.252-.296.324-.49l2.551.075a3.155 3.155 0 0 1-.698 1.494c-.356.42-.824.748-1.404.983-.58.23-1.25.346-2.011.346Zm8.34-5.142v4.978h-2.78v-8.728h2.643V54.1h.097a2.45 2.45 0 0 1 .988-1.256c.466-.307 1.021-.46 1.665-.46.614 0 1.146.138 1.597.414.454.273.806.656 1.056 1.148.254.489.38 1.06.375 1.716v5.563h-2.778v-5.017c.004-.485-.12-.864-.37-1.137-.246-.273-.588-.409-1.028-.409-.291 0-.55.065-.773.193a1.28 1.28 0 0 0-.51.54 1.94 1.94 0 0 0-.183.852Zm12.992 1.21v-4.96h2.773v8.728h-2.648V59.6h-.09a2.538 2.538 0 0 1-.99 1.272c-.461.31-1.02.466-1.675.466-.595 0-1.118-.136-1.569-.409a2.788 2.788 0 0 1-1.05-1.142c-.25-.492-.378-1.068-.382-1.727v-5.563h2.779v5.017c.004.474.129.847.375 1.12.246.272.581.409 1.006.409.276 0 .524-.06.744-.182.223-.125.4-.305.528-.54.133-.238.2-.526.2-.863Zm8.62 3.932c-.912 0-1.7-.18-2.363-.54a3.733 3.733 0 0 1-1.522-1.55c-.353-.675-.529-1.476-.529-2.404 0-.902.178-1.69.534-2.364a3.857 3.857 0 0 1 1.506-1.58c.648-.378 1.41-.567 2.29-.567.62 0 1.19.096 1.704.29.515.193.96.479 1.335.857.376.38.667.847.875 1.404.209.553.313 1.187.313 1.903v.693h-7.585v-1.613h5a1.565 1.565 0 0 0-.21-.79 1.43 1.43 0 0 0-.563-.54 1.625 1.625 0 0 0-.813-.199c-.31 0-.589.07-.835.21a1.58 1.58 0 0 0-.813 1.364v1.642a2 2 0 0 0 .211.938c.14.265.339.471.597.62.257.147.564.22.92.22.246 0 .47-.033.67-.102.201-.068.374-.168.518-.3.143-.133.251-.296.323-.49l2.552.075a3.16 3.16 0 0 1-.7 1.494c-.355.42-.823.748-1.403.983-.58.23-1.25.346-2.011.346Zm8.999-.164V49.588h2.779v4.404h.057c.113-.265.274-.521.483-.767.212-.247.481-.447.806-.603.33-.159.724-.238 1.182-.238.606 0 1.173.159 1.699.477.53.318.959.809 1.284 1.472.326.662.489 1.507.489 2.534 0 .988-.157 1.816-.472 2.483-.31.666-.731 1.166-1.261 1.5a3.22 3.22 0 0 1-1.756.5c-.439 0-.82-.072-1.142-.216a2.474 2.474 0 0 1-.812-.569 2.716 2.716 0 0 1-.5-.755h-.086v1.415h-2.75Zm2.722-4.364c0 .47.063.879.188 1.227.128.349.312.62.551.813.242.19.532.284.869.284.341 0 .631-.095.869-.284.239-.193.419-.464.54-.813.125-.348.188-.757.188-1.227 0-.47-.063-.877-.188-1.222-.121-.344-.301-.611-.54-.8-.234-.19-.524-.285-.869-.285a1.37 1.37 0 0 0-.869.279c-.239.185-.423.45-.551.795-.125.345-.188.756-.188 1.233Zm8.93 7.636c-.333 0-.647-.026-.943-.08a3.813 3.813 0 0 1-.761-.198l.614-2.017c.272.09.519.144.738.159.224.015.415-.02.574-.108.163-.083.288-.233.375-.449l.108-.261-3.102-9.046h2.909l1.608 6.228h.091l1.63-6.228h2.927l-3.29 9.563a4.045 4.045 0 0 1-.676 1.261 2.936 2.936 0 0 1-1.12.864c-.454.208-1.015.312-1.682.312Zm11.27 0v-12h2.75v1.495h.086c.113-.265.274-.521.483-.767.212-.247.481-.447.806-.603.33-.159.724-.238 1.182-.238.606 0 1.173.159 1.699.477.53.318.958.809 1.284 1.472.326.662.489 1.507.489 2.534 0 .988-.157 1.816-.472 2.483-.31.666-.731 1.166-1.261 1.5a3.22 3.22 0 0 1-1.756.5c-.439 0-.82-.072-1.142-.216a2.474 2.474 0 0 1-.812-.569 2.716 2.716 0 0 1-.5-.755h-.057v4.687h-2.779Zm2.722-7.636c0 .47.062.879.187 1.227.129.349.313.62.552.813.242.19.532.284.869.284.341 0 .631-.095.869-.284.239-.193.419-.464.54-.813.125-.348.188-.757.188-1.227 0-.47-.063-.877-.188-1.222-.121-.344-.301-.611-.54-.8-.235-.19-.524-.285-.869-.285a1.37 1.37 0 0 0-.869.279c-.239.185-.423.45-.552.795-.125.345-.187.756-.187 1.233Zm10.291-7.273v11.637h-2.778V49.588h2.778Zm4.229 11.784c-.557 0-1.051-.093-1.483-.278a2.31 2.31 0 0 1-1.017-.852c-.246-.383-.369-.862-.369-1.438 0-.485.085-.894.255-1.227.171-.334.406-.604.705-.813a3.313 3.313 0 0 1 1.034-.471c.39-.11.807-.184 1.25-.222a18.17 18.17 0 0 0 1.199-.142c.303-.053.522-.127.659-.221a.478.478 0 0 0 .21-.415v-.029c0-.291-.1-.517-.301-.676-.201-.159-.472-.238-.813-.238-.367 0-.662.08-.886.238a1.05 1.05 0 0 0-.426.66l-2.563-.092c.076-.53.271-1.003.586-1.42.318-.42.753-.75 1.306-.989.557-.242 1.226-.363 2.006-.363.557 0 1.07.066 1.54.199.47.128.879.318 1.227.568.349.246.618.549.807.909.193.36.29.77.29 1.233v5.932h-2.614v-1.216h-.068a2.463 2.463 0 0 1-.597.75c-.238.204-.52.358-.846.46a3.599 3.599 0 0 1-1.091.153Zm.858-1.818c.299 0 .568-.06.807-.182.242-.12.435-.288.579-.5a1.32 1.32 0 0 0 .216-.75v-.83c-.079.042-.176.08-.29.114-.11.035-.231.067-.363.097a7.05 7.05 0 0 1-.409.08l-.404.062a2.504 2.504 0 0 0-.67.193 1.063 1.063 0 0 0-.421.341.84.84 0 0 0-.142.489c0 .288.102.507.307.659.208.151.472.227.79.227Zm8.835-3.307v4.978h-2.778v-8.728h2.642V54.1h.096a2.45 2.45 0 0 1 .989-1.256c.466-.307 1.021-.46 1.665-.46.613 0 1.145.138 1.596.414a2.77 2.77 0 0 1 1.057 1.148c.254.489.379 1.06.375 1.716v5.563h-2.778v-5.017c.003-.485-.12-.864-.37-1.137-.246-.273-.589-.409-1.028-.409a1.53 1.53 0 0 0-.773.193c-.219.125-.39.305-.511.54-.118.235-.178.519-.182.852ZM38.167 85.497v8.728H37.11v-7.62h-.051l-2.13 1.415v-1.074l2.181-1.449h1.057Zm5.356 8.847c-.642 0-1.189-.175-1.64-.524-.452-.352-.797-.862-1.036-1.53-.238-.67-.358-1.48-.358-2.429 0-.943.12-1.749.358-2.416.242-.67.588-1.182 1.04-1.534.455-.355 1-.533 1.636-.533.637 0 1.18.178 1.633.533.454.352.8.863 1.04 1.534.24.667.361 1.473.361 2.416 0 .949-.119 1.758-.357 2.429-.24.668-.584 1.177-1.036 1.53-.452.35-.998.524-1.64.524Zm0-.938c.637 0 1.131-.306 1.483-.92.353-.614.529-1.489.529-2.625 0-.756-.081-1.4-.243-1.93-.16-.532-.39-.936-.69-1.215a1.524 1.524 0 0 0-1.079-.417c-.63 0-1.123.31-1.478.933-.355.619-.533 1.495-.533 2.629 0 .756.08 1.398.239 1.926.159.528.388.93.686 1.206.3.276.663.413 1.086.413Zm7.5.938c-.642 0-1.189-.175-1.64-.524-.452-.352-.797-.862-1.036-1.53-.238-.67-.358-1.48-.358-2.429 0-.943.12-1.749.358-2.416.242-.67.588-1.182 1.04-1.534.455-.355 1-.533 1.636-.533.637 0 1.18.178 1.633.533.454.352.8.863 1.04 1.534.24.667.361 1.473.361 2.416 0 .949-.119 1.758-.357 2.429-.24.668-.584 1.177-1.036 1.53-.452.35-.998.524-1.64.524Zm0-.938c.637 0 1.131-.306 1.483-.92.353-.614.529-1.489.529-2.625 0-.756-.081-1.4-.243-1.93-.16-.532-.39-.936-.69-1.215a1.524 1.524 0 0 0-1.079-.417c-.63 0-1.123.31-1.478.933-.355.619-.533 1.495-.533 2.629 0 .756.08 1.398.239 1.926.159.528.388.93.686 1.206.3.276.663.413 1.086.413Zm9.103-.818v-.46c0-.318.065-.61.196-.874.133-.267.326-.48.58-.639.255-.162.565-.243.928-.243.37 0 .68.081.93.243.25.16.438.372.566.64.128.264.192.555.192.873v.46c0 .318-.066.611-.196.878a1.547 1.547 0 0 1-.571.64c-.25.158-.557.238-.92.238-.37 0-.681-.08-.934-.239a1.578 1.578 0 0 1-.575-.639 1.971 1.971 0 0 1-.196-.878Zm.869-.46v.46c0 .265.063.502.188.712.124.207.34.311.647.311.299 0 .509-.104.63-.311.126-.21.188-.447.188-.712v-.46c0-.264-.06-.5-.179-.707-.119-.21-.332-.316-.639-.316-.298 0-.512.105-.643.316a1.32 1.32 0 0 0-.192.707Zm-5.216-4.534v-.46c0-.319.065-.61.196-.874.134-.267.327-.48.58-.64.255-.161.565-.242.929-.242.369 0 .679.081.929.243.25.159.439.372.566.64.128.263.192.555.192.873v.46c0 .318-.065.61-.196.878a1.548 1.548 0 0 1-.57.639c-.25.16-.558.239-.921.239-.37 0-.68-.08-.934-.239a1.579 1.579 0 0 1-.575-.64 1.971 1.971 0 0 1-.196-.877Zm.87-.46v.46c0 .264.062.501.187.712.125.207.34.31.648.31.298 0 .508-.103.63-.31.125-.21.188-.448.188-.712v-.46c0-.264-.06-.5-.18-.708-.118-.21-.331-.315-.638-.315-.299 0-.513.105-.644.315a1.32 1.32 0 0 0-.192.708Zm-.546 7.09 6-8.727h.972l-6 8.728h-.972Z"/><path stroke="#E1E4ED" stroke-dasharray="4 7" stroke-linecap="round" d="M72.523 89.725h235"/><path fill="#19213D" d="m41.91 132.975 3.904-7.722v-.068h-4.5v-.938h5.59v.989l-3.886 7.739H41.91Zm9.193.119c-.5 0-.95-.1-1.35-.298a2.509 2.509 0 0 1-.964-.819 2.225 2.225 0 0 1-.396-1.184h1.023c.04.395.219.721.537.98.32.256.704.383 1.15.383a1.78 1.78 0 0 0 1.615-.941c.162-.296.243-.63.243-1.002 0-.38-.084-.72-.251-1.018a1.846 1.846 0 0 0-.682-.712 1.93 1.93 0 0 0-.993-.264 2.7 2.7 0 0 0-.822.124 2.27 2.27 0 0 0-.695.319l-.989-.119.529-4.296h4.534v.938h-3.648l-.307 2.574h.052c.178-.142.403-.26.673-.354.27-.094.551-.141.844-.141.534 0 1.01.128 1.427.384.42.253.75.599.989 1.04.241.44.362.943.362 1.508 0 .557-.125 1.054-.375 1.492a2.746 2.746 0 0 1-1.023 1.031 2.92 2.92 0 0 1-1.483.375Zm9.023-1.756v-.46c0-.318.065-.609.196-.874.133-.267.326-.48.58-.639.255-.162.565-.243.928-.243.37 0 .68.081.93.243.25.159.438.372.566.639.128.265.192.556.192.874v.46c0 .318-.066.611-.196.878a1.548 1.548 0 0 1-.571.639c-.25.159-.557.239-.92.239-.37 0-.681-.08-.934-.239a1.58 1.58 0 0 1-.575-.639 1.972 1.972 0 0 1-.196-.878Zm.869-.46v.46c0 .264.063.502.188.712.124.207.34.311.647.311.299 0 .509-.104.63-.311.126-.21.188-.448.188-.712v-.46c0-.264-.06-.5-.179-.707-.119-.211-.332-.316-.639-.316-.298 0-.512.105-.643.316a1.318 1.318 0 0 0-.192.707Zm-5.216-4.534v-.46c0-.318.065-.61.196-.874.134-.267.327-.48.58-.639.255-.162.565-.243.929-.243.369 0 .679.081.929.243.25.159.439.372.566.639.128.264.192.556.192.874v.46c0 .318-.065.611-.196.878a1.548 1.548 0 0 1-.57.639c-.25.159-.558.239-.921.239-.37 0-.68-.08-.934-.239a1.58 1.58 0 0 1-.575-.639 1.972 1.972 0 0 1-.196-.878Zm.87-.46v.46c0 .264.062.501.187.712.125.207.34.311.648.311.298 0 .508-.104.63-.311a1.37 1.37 0 0 0 .188-.712v-.46c0-.265-.06-.5-.18-.708-.118-.21-.331-.315-.638-.315-.299 0-.513.105-.644.315a1.323 1.323 0 0 0-.192.708Zm-.546 7.091 6-8.728h.972l-6 8.728h-.972Z"/><path stroke="#E1E4ED" stroke-dasharray="4 7" stroke-linecap="round" d="M72.523 128.475h235"/><path fill="#19213D" d="M43.603 171.844c-.5 0-.95-.1-1.35-.298a2.509 2.509 0 0 1-.964-.819 2.225 2.225 0 0 1-.396-1.184h1.023c.04.395.219.721.537.98.32.256.704.383 1.15.383a1.78 1.78 0 0 0 1.615-.941c.162-.296.243-.63.243-1.002 0-.38-.084-.72-.251-1.018a1.846 1.846 0 0 0-.682-.712 1.93 1.93 0 0 0-.993-.264 2.7 2.7 0 0 0-.822.124 2.27 2.27 0 0 0-.695.319l-.989-.119.529-4.296h4.534v.938h-3.648l-.307 2.574h.052c.178-.142.403-.26.673-.354.27-.094.551-.141.844-.141.534 0 1.01.128 1.427.384.42.253.75.599.989 1.04.241.44.362.943.362 1.508 0 .557-.125 1.054-.375 1.492a2.746 2.746 0 0 1-1.023 1.031 2.92 2.92 0 0 1-1.483.375Zm7.42 0c-.642 0-1.189-.175-1.64-.524-.452-.352-.797-.862-1.036-1.53-.238-.671-.358-1.48-.358-2.429 0-.943.12-1.749.358-2.416.242-.671.588-1.182 1.04-1.534.455-.355 1-.533 1.636-.533.637 0 1.18.178 1.633.533.454.352.8.863 1.04 1.534.24.667.361 1.473.361 2.416 0 .949-.119 1.758-.357 2.429-.24.668-.584 1.178-1.036 1.53-.452.349-.998.524-1.64.524Zm0-.938c.637 0 1.131-.306 1.483-.92.353-.614.529-1.489.529-2.625 0-.756-.081-1.399-.243-1.93-.16-.532-.39-.937-.69-1.215a1.526 1.526 0 0 0-1.079-.418c-.63 0-1.123.312-1.478.934-.355.619-.533 1.495-.533 2.629 0 .756.08 1.398.239 1.926.159.529.388.931.686 1.206a1.55 1.55 0 0 0 1.086.413Zm9.103-.818v-.46c0-.318.065-.609.196-.874.133-.267.326-.48.58-.639.255-.162.565-.243.928-.243.37 0 .68.081.93.243.25.159.438.372.566.639.128.265.192.556.192.874v.46c0 .318-.066.611-.196.878a1.548 1.548 0 0 1-.571.639c-.25.159-.557.239-.92.239-.37 0-.681-.08-.934-.239a1.58 1.58 0 0 1-.575-.639 1.972 1.972 0 0 1-.196-.878Zm.869-.46v.46c0 .264.063.502.188.712.124.207.34.311.647.311.299 0 .509-.104.63-.311.126-.21.188-.448.188-.712v-.46c0-.264-.06-.5-.179-.707-.119-.211-.332-.316-.639-.316-.298 0-.512.105-.643.316a1.318 1.318 0 0 0-.192.707Zm-5.216-4.534v-.46c0-.318.065-.61.196-.874.134-.267.327-.48.58-.639.255-.162.565-.243.929-.243.369 0 .679.081.929.243.25.159.439.372.566.639.128.264.192.556.192.874v.46c0 .318-.065.611-.196.878a1.548 1.548 0 0 1-.57.639c-.25.159-.558.239-.921.239-.37 0-.68-.08-.934-.239a1.58 1.58 0 0 1-.575-.639 1.972 1.972 0 0 1-.196-.878Zm.87-.46v.46c0 .264.062.501.187.712.125.207.34.311.648.311.298 0 .508-.104.63-.311a1.37 1.37 0 0 0 .188-.712v-.46c0-.265-.06-.5-.18-.708-.118-.21-.331-.315-.638-.315-.299 0-.513.105-.644.315a1.323 1.323 0 0 0-.192.708Zm-.546 7.091 6-8.728h.972l-6 8.728h-.972Z"/><path stroke="#E1E4ED" stroke-dasharray="4 7" stroke-linecap="round" d="M72.523 167.225h235"/><path fill="#19213D" d="M41.11 210.475v-.767l2.881-3.154c.338-.369.617-.69.835-.963a3.51 3.51 0 0 0 .486-.775c.108-.245.162-.5.162-.768a1.42 1.42 0 0 0-.221-.796 1.433 1.433 0 0 0-.597-.52 1.936 1.936 0 0 0-.852-.184c-.336 0-.628.07-.878.209a1.438 1.438 0 0 0-.576.576c-.133.247-.2.536-.2.869h-1.005c0-.511.117-.96.353-1.347a2.46 2.46 0 0 1 .963-.903c.41-.216.868-.324 1.377-.324.511 0 .964.108 1.36.324.394.216.704.507.928.873a2.3 2.3 0 0 1 .337 1.223c0 .321-.059.635-.175.942-.114.304-.313.644-.597 1.019-.28.372-.672.826-1.172 1.363l-1.96 2.097v.068h4.057v.938H41.11Zm9.993.119c-.5 0-.95-.1-1.35-.298a2.509 2.509 0 0 1-.964-.819 2.225 2.225 0 0 1-.396-1.184h1.023c.04.395.219.721.537.98.32.256.704.383 1.15.383a1.78 1.78 0 0 0 1.615-.941c.162-.296.243-.63.243-1.002 0-.38-.084-.72-.251-1.018a1.846 1.846 0 0 0-.682-.712 1.93 1.93 0 0 0-.993-.264 2.7 2.7 0 0 0-.822.124 2.27 2.27 0 0 0-.695.319l-.989-.119.529-4.296h4.534v.938h-3.648l-.307 2.574h.052c.178-.142.403-.26.673-.354.27-.094.551-.141.844-.141.534 0 1.01.128 1.427.384.42.253.75.599.989 1.04.241.44.362.943.362 1.508 0 .557-.125 1.054-.375 1.492a2.746 2.746 0 0 1-1.023 1.031 2.92 2.92 0 0 1-1.483.375Zm9.023-1.756v-.46c0-.318.065-.609.196-.874.133-.267.326-.48.58-.639.255-.162.565-.243.928-.243.37 0 .68.081.93.243.25.159.438.372.566.639.128.265.192.556.192.874v.46c0 .318-.066.611-.196.878a1.548 1.548 0 0 1-.571.639c-.25.159-.557.239-.92.239-.37 0-.681-.08-.934-.239a1.58 1.58 0 0 1-.575-.639 1.972 1.972 0 0 1-.196-.878Zm.869-.46v.46c0 .264.063.502.188.712.124.207.34.311.647.311.299 0 .509-.104.63-.311.126-.21.188-.448.188-.712v-.46c0-.264-.06-.5-.179-.707-.119-.211-.332-.316-.639-.316-.298 0-.512.105-.643.316a1.318 1.318 0 0 0-.192.707Zm-5.216-4.534v-.46c0-.318.065-.61.196-.874.134-.267.327-.48.58-.639.255-.162.565-.243.929-.243.369 0 .679.081.929.243.25.159.439.372.566.639.128.264.192.556.192.874v.46c0 .318-.065.611-.196.878a1.548 1.548 0 0 1-.57.639c-.25.159-.558.239-.921.239-.37 0-.68-.08-.934-.239a1.58 1.58 0 0 1-.575-.639 1.972 1.972 0 0 1-.196-.878Zm.87-.46v.46c0 .264.062.501.187.712.125.207.34.311.648.311.298 0 .508-.104.63-.311a1.37 1.37 0 0 0 .188-.712v-.46c0-.265-.06-.5-.18-.708-.118-.21-.331-.315-.638-.315-.299 0-.513.105-.644.315a1.323 1.323 0 0 0-.192.708Zm-.546 7.091 6-8.728h.972l-6 8.728h-.972Z"/><path stroke="#E1E4ED" stroke-dasharray="4 7" stroke-linecap="round" d="M72.523 205.975h235"/><path fill="#19213D" d="M60.773 245.344c-.642 0-1.189-.175-1.64-.524-.452-.352-.797-.862-1.036-1.53-.238-.671-.358-1.48-.358-2.429 0-.943.12-1.749.358-2.416.242-.671.588-1.182 1.04-1.534.455-.355 1-.533 1.636-.533.637 0 1.18.178 1.633.533.454.352.8.863 1.04 1.534.24.667.361 1.473.361 2.416 0 .949-.119 1.758-.357 2.429-.24.668-.584 1.178-1.036 1.53-.452.349-.998.524-1.64.524Zm0-.938c.637 0 1.131-.306 1.483-.92.353-.614.529-1.489.529-2.625 0-.756-.081-1.399-.243-1.93-.16-.532-.39-.937-.69-1.215a1.526 1.526 0 0 0-1.079-.418c-.63 0-1.123.312-1.478.934-.355.619-.533 1.495-.533 2.629 0 .756.08 1.398.239 1.926.159.529.388.931.686 1.206a1.55 1.55 0 0 0 1.086.413Z"/><path stroke="#E1E4ED" stroke-linecap="round" d="M72.523 240.725h235"/><g clip-path="url(#b)"><path fill="#8DC1FF" d="M83.523 85.225h12v27.186h-12z"/><path fill="#E3EFFF" d="M83.523 112.41h12v8.945h-12z"/><path fill="#C3DDFF" d="M83.523 121.355h12v64.405h-12z"/><path fill="#2388FF" d="M83.523 185.761h12v55.464h-12z"/></g><path fill="#6D758F" d="M81.611 253.497h1.057v6.239c0 .557-.102 1.03-.307 1.419a2.081 2.081 0 0 1-.865.886c-.372.202-.811.303-1.317.303a2.99 2.99 0 0 1-1.274-.26 2.098 2.098 0 0 1-.878-.75c-.213-.324-.32-.709-.32-1.155h1.04c0 .247.061.463.184.648.125.182.295.324.511.426.216.102.462.153.737.153.304 0 .563-.063.776-.191.213-.128.375-.316.486-.563.113-.25.17-.555.17-.916v-6.239Zm4.013 8.728h-1.108l3.204-8.728h1.091l3.205 8.728h-1.108l-2.608-7.347h-.068l-2.608 7.347Zm.409-3.409h4.466v.937h-4.466v-.937Zm14.743-5.319v8.728h-1.023l-4.756-6.853h-.085v6.853h-1.057v-8.728h1.023l4.773 6.87h.085v-6.87h1.04Z"/><g clip-path="url(#c)"><path fill="#8DC1FF" d="M123.723 85.225h12v56.949h-12z"/><path fill="#E3EFFF" d="M123.723 142.174h12v10.948h-12z"/><path fill="#C3DDFF" d="M123.723 153.121h12v49.517h-12z"/><path fill="#2388FF" d="M123.723 202.638h12v38.587h-12z"/></g><path fill="#6D758F" d="M119.29 262.225v-8.728h5.233v.938h-4.176v2.949h3.784v.937h-3.784v3.904h-1.057Zm7.523 0v-8.728h5.267v.938h-4.211v2.949h3.938v.937h-3.938v2.966h4.279v.938h-5.335Zm7.652 0v-8.728h3.051c.608 0 1.109.105 1.504.316.395.207.689.487.882.839.193.35.29.737.29 1.164 0 .375-.067.684-.2.928a1.556 1.556 0 0 1-.52.58 2.363 2.363 0 0 1-.695.315v.086c.267.017.536.11.805.281.27.17.496.415.678.733.182.318.273.707.273 1.167 0 .438-.1.831-.299 1.181-.198.349-.512.626-.941.831-.429.204-.988.307-1.675.307h-3.153Zm1.056-.938h2.097c.69 0 1.18-.133 1.47-.4.293-.27.439-.597.439-.981 0-.295-.075-.568-.226-.818a1.634 1.634 0 0 0-.643-.605 2.024 2.024 0 0 0-.989-.23h-2.148v3.034Zm0-3.954h1.961c.318 0 .605-.063.86-.188.259-.125.463-.301.614-.528.153-.228.23-.495.23-.801 0-.384-.133-.709-.4-.976-.267-.27-.691-.405-1.27-.405h-1.995v2.898Z"/><g clip-path="url(#d)"><path fill="#8DC1FF" d="M163.922 85.225h12v77.156h-12z"/><path fill="#E3EFFF" d="M163.922 162.38h12v11.771h-12z"/><path fill="#C3DDFF" d="M163.922 174.15h12v19.074h-12z"/><path fill="#2388FF" d="M163.922 193.225h12v48h-12z"/></g><path fill="#6D758F" d="M157.268 253.497h1.262l2.965 7.245h.103l2.966-7.245h1.261v8.728h-.989v-6.631h-.085l-2.727 6.631h-.955l-2.727-6.631h-.085v6.631h-.989v-8.728Zm11.514 8.728h-1.108l3.205-8.728h1.09l3.205 8.728h-1.108l-2.608-7.347h-.068l-2.608 7.347Zm.409-3.409h4.466v.937h-4.466v-.937Zm7.822 3.409v-8.728h2.949c.682 0 1.242.117 1.679.35.438.23.762.547.972.95.21.403.315.862.315 1.376 0 .515-.105.971-.315 1.368-.21.398-.533.711-.968.938-.434.224-.99.337-1.666.337h-2.386v-.955h2.352c.466 0 .841-.068 1.125-.205.287-.136.495-.329.622-.579.131-.253.196-.554.196-.904 0-.349-.065-.654-.196-.916a1.333 1.333 0 0 0-.626-.605c-.287-.145-.666-.217-1.138-.217h-1.858v7.79h-1.057Zm4.108-3.921 2.148 3.921h-1.227l-2.114-3.921h1.193Z"/><g clip-path="url(#e)"><path fill="#8DC1FF" d="M204.125 85.225h12v52.51h-12z"/><path fill="#E3EFFF" d="M204.125 137.735h12v4.036h-12z"/><path fill="#C3DDFF" d="M204.125 141.771h12v19.143h-12z"/><path fill="#2388FF" d="M204.125 160.913h12v80.311h-12z"/></g><path fill="#6D758F" d="M199.265 262.225h-1.108l3.204-8.728h1.091l3.205 8.728h-1.108l-2.608-7.347h-.068l-2.608 7.347Zm.409-3.409h4.466v.937h-4.466v-.937Zm7.822 3.409v-8.728h3.051c.608 0 1.11.105 1.505.316.395.207.689.487.882.839.193.35.29.737.29 1.164 0 .375-.067.684-.201.928-.13.245-.304.438-.52.58a2.357 2.357 0 0 1-.694.315v.086c.267.017.535.11.805.281.27.17.496.415.678.733.182.318.272.707.272 1.167 0 .438-.099.831-.298 1.181-.199.349-.513.626-.942.831-.429.204-.987.307-1.674.307h-3.154Zm1.057-.938h2.097c.69 0 1.18-.133 1.47-.4.292-.27.439-.597.439-.981 0-.295-.076-.568-.226-.818a1.636 1.636 0 0 0-.644-.605 2.02 2.02 0 0 0-.988-.23h-2.148v3.034Zm0-3.954h1.96c.318 0 .605-.063.861-.188.259-.125.463-.301.614-.528.153-.228.23-.495.23-.801 0-.384-.134-.709-.401-.976-.267-.27-.69-.405-1.27-.405h-1.994v2.898Zm7.228 4.892v-8.728h2.949c.682 0 1.241.117 1.679.35.437.23.761.547.971.95.211.403.316.862.316 1.376 0 .515-.105.971-.316 1.368-.21.398-.532.711-.967.938-.435.224-.99.337-1.666.337h-2.386v-.955h2.352c.466 0 .841-.068 1.125-.205a1.29 1.29 0 0 0 .622-.579c.131-.253.196-.554.196-.904 0-.349-.065-.654-.196-.916a1.343 1.343 0 0 0-.626-.605c-.287-.145-.667-.217-1.138-.217h-1.858v7.79h-1.057Zm4.108-3.921 2.148 3.921h-1.228l-2.113-3.921h1.193Z"/><g clip-path="url(#f)"><path fill="#8DC1FF" d="M244.324 85.225h12v70.441h-12z"/><path fill="#E3EFFF" d="M244.324 155.666h12v13h-12z"/><path fill="#C3DDFF" d="M244.324 168.666h12v11h-12z"/><path fill="#2388FF" d="M244.324 179.666h12v61.559h-12z"/></g><path fill="#6D758F" d="M237.964 253.497h1.261l2.966 7.245h.102l2.966-7.245h1.261v8.728h-.988v-6.631h-.086l-2.727 6.631h-.954l-2.728-6.631h-.085v6.631h-.988v-8.728Zm11.513 8.728h-1.108l3.205-8.728h1.091l3.204 8.728h-1.108l-2.608-7.347h-.068l-2.608 7.347Zm.409-3.409h4.466v.937h-4.466v-.937Zm6.182-5.319h1.21l2.421 4.074h.102l2.42-4.074h1.211l-3.154 5.131v3.597h-1.057v-3.597l-3.153-5.131Z"/><g clip-path="url(#g)"><path fill="#8DC1FF" d="M284.523 85.225h12v78.724h-12z"/><path fill="#E3EFFF" d="M284.523 163.949h12v9.533h-12z"/><path fill="#C3DDFF" d="M284.523 173.482h12v25.405h-12z"/><path fill="#2388FF" d="M284.523 198.888h12v42.337h-12z"/></g><path fill="#6D758F" d="M282.219 253.497h1.056v6.239c0 .557-.102 1.03-.306 1.419a2.08 2.08 0 0 1-.866.886c-.372.202-.811.303-1.316.303-.478 0-.902-.087-1.274-.26a2.093 2.093 0 0 1-.878-.75c-.213-.324-.32-.709-.32-1.155h1.04c0 .247.061.463.183.648.125.182.296.324.511.426.216.102.462.153.738.153.304 0 .562-.063.775-.191.213-.128.375-.316.486-.563.114-.25.171-.555.171-.916v-6.239Zm9.381 0h1.057v5.779a3.04 3.04 0 0 1-.422 1.598 2.939 2.939 0 0 1-1.18 1.103c-.508.267-1.105.401-1.79.401-.684 0-1.281-.134-1.79-.401a2.976 2.976 0 0 1-1.184-1.103 3.066 3.066 0 0 1-.418-1.598v-5.779h1.057v5.694c0 .426.094.805.281 1.137.188.33.455.59.801.78.35.188.767.281 1.253.281.486 0 .904-.093 1.253-.281.35-.19.617-.45.801-.78.188-.332.281-.711.281-1.137v-5.694Zm10.568 0v8.728h-1.023l-4.755-6.853h-.085v6.853h-1.057v-8.728h1.022l4.773 6.87h.085v-6.87h1.04Z"/><rect width="10" height="10" x="32.523" y="286.225" fill="#2388FF" rx="5"/><path fill="#19213D" d="M47.404 294.725v-7.273h2.543c.506 0 .924.087 1.253.263.33.172.574.406.735.699.161.291.242.615.242.97 0 .312-.056.57-.167.774a1.308 1.308 0 0 1-.433.483c-.178.118-.37.206-.58.263v.071c.223.014.447.092.672.234.225.142.413.346.565.611.151.265.227.589.227.973 0 .364-.083.692-.249.983-.165.292-.427.522-.784.693-.358.17-.823.256-1.396.256h-2.628Zm.88-.782h1.748c.575 0 .984-.111 1.225-.333.244-.225.366-.498.366-.817 0-.246-.063-.474-.188-.682a1.356 1.356 0 0 0-.537-.504 1.68 1.68 0 0 0-.823-.192h-1.79v2.528Zm0-3.295h1.634c.266 0 .505-.052.718-.156.215-.105.386-.251.511-.441.128-.189.192-.412.192-.667 0-.32-.111-.591-.334-.814-.223-.224-.575-.337-1.058-.337h-1.662v2.415Zm7.116 4.204a2.22 2.22 0 0 1-.941-.195 1.608 1.608 0 0 1-.672-.572c-.165-.251-.248-.554-.248-.909 0-.312.061-.566.184-.76.123-.196.288-.35.494-.461.206-.112.433-.194.682-.249.25-.057.503-.102.756-.135.332-.042.6-.074.806-.096.209-.023.36-.062.455-.117.097-.054.145-.149.145-.284v-.028c0-.351-.095-.623-.287-.817-.19-.194-.477-.291-.863-.291-.4 0-.714.087-.941.262a1.573 1.573 0 0 0-.48.562l-.795-.285c.142-.331.331-.589.568-.774.24-.187.5-.317.781-.39.285-.076.564-.114.839-.114.175 0 .376.021.603.064.23.04.451.124.664.252.216.128.394.321.536.579.142.258.214.604.214 1.037v3.594h-.839v-.739h-.042a1.482 1.482 0 0 1-.284.38c-.133.135-.31.25-.53.344-.22.095-.488.142-.805.142Zm.127-.752c.332 0 .611-.065.838-.196a1.327 1.327 0 0 0 .696-1.154v-.767c-.035.043-.113.082-.234.117a3.976 3.976 0 0 1-.412.089 17.496 17.496 0 0 1-.802.107 3.165 3.165 0 0 0-.611.138 1.053 1.053 0 0 0-.455.281c-.113.123-.17.291-.17.504 0 .291.107.511.323.66.218.147.493.221.827.221Zm7.766-3.608-.753.213a1.385 1.385 0 0 0-.21-.366 1.011 1.011 0 0 0-.369-.298 1.342 1.342 0 0 0-.6-.118c-.334 0-.612.077-.834.231-.22.152-.33.345-.33.579a.6.6 0 0 0 .226.494c.152.12.389.221.71.302l.81.198c.488.119.851.3 1.09.544.24.241.36.553.36.934 0 .312-.09.592-.27.838a1.79 1.79 0 0 1-.746.582 2.73 2.73 0 0 1-1.116.213c-.556 0-1.016-.12-1.38-.362-.365-.241-.596-.594-.693-1.058l.795-.199c.076.293.22.514.43.66.213.147.491.221.834.221.391 0 .701-.083.93-.249.233-.168.349-.369.349-.604a.635.635 0 0 0-.2-.476c-.132-.13-.335-.227-.61-.291l-.909-.213c-.5-.118-.867-.302-1.1-.55-.233-.251-.349-.565-.349-.941 0-.308.087-.58.26-.817.175-.237.413-.423.713-.558a2.522 2.522 0 0 1 1.03-.202c.54 0 .964.118 1.271.355.31.237.53.549.66.938Zm1.36 4.233v-5.455h.839v5.455h-.838Zm.427-6.364a.597.597 0 0 1-.423-.167.536.536 0 0 1-.174-.401c0-.156.058-.29.174-.401a.593.593 0 0 1 .423-.167.58.58 0 0 1 .419.167.53.53 0 0 1 .178.401.53.53 0 0 1-.178.401.585.585 0 0 1-.42.167Zm4.163 6.477c-.512 0-.952-.12-1.321-.362a2.357 2.357 0 0 1-.853-.998c-.198-.424-.298-.908-.298-1.452 0-.554.102-1.043.305-1.467.207-.426.493-.759.86-.998.37-.241.8-.362 1.292-.362.384 0 .73.071 1.037.213.308.142.56.341.757.597.196.255.318.554.366.895h-.839a1.3 1.3 0 0 0-.426-.661c-.217-.194-.511-.291-.88-.291-.327 0-.613.085-.86.256a1.667 1.667 0 0 0-.571.713 2.647 2.647 0 0 0-.203 1.076c0 .422.067.789.2 1.101.134.313.323.555.567.728.246.173.535.259.867.259.218 0 .415-.037.593-.113a1.22 1.22 0 0 0 .713-.838h.839a1.94 1.94 0 0 1-1.087 1.481 2.371 2.371 0 0 1-1.058.223Z"/><rect width="10" height="10" x="101.191" y="286.225" fill="#8DC1FF" rx="5"/><path fill="#19213D" d="M116.072 294.725v-7.273h2.457c.571 0 1.037.103 1.4.309.364.203.634.479.809.827.175.348.263.737.263 1.165 0 .429-.088.818-.263 1.168-.173.351-.44.63-.802.838-.362.206-.827.309-1.392.309h-1.762v-.781h1.733c.391 0 .705-.067.941-.202.237-.135.409-.318.515-.547.109-.232.164-.494.164-.785 0-.291-.055-.552-.164-.781a1.16 1.16 0 0 0-.518-.54c-.239-.133-.557-.199-.952-.199h-1.548v6.492h-.881Zm6.234 0v-5.455h.81v.824h.057c.099-.27.279-.489.539-.657.261-.168.554-.252.881-.252l.231.003c.092.003.162.006.209.011v.852a2.931 2.931 0 0 0-.195-.032 1.984 1.984 0 0 0-.316-.025c-.265 0-.502.056-.71.167a1.221 1.221 0 0 0-.668 1.112v3.452h-.838Zm5.771.113c-.493 0-.925-.117-1.296-.351a2.39 2.39 0 0 1-.867-.984c-.206-.421-.309-.914-.309-1.477 0-.568.103-1.064.309-1.488.208-.424.497-.753.867-.987.371-.235.803-.352 1.296-.352.492 0 .923.117 1.292.352.372.234.661.563.867.987.208.424.312.92.312 1.488 0 .563-.104 1.056-.312 1.477a2.362 2.362 0 0 1-.867.984c-.369.234-.8.351-1.292.351Zm0-.753c.374 0 .682-.095.923-.287a1.7 1.7 0 0 0 .536-.757c.116-.312.174-.651.174-1.015a2.92 2.92 0 0 0-.174-1.019 1.721 1.721 0 0 0-.536-.764c-.241-.194-.549-.291-.923-.291s-.682.097-.924.291c-.241.194-.42.449-.536.764a2.92 2.92 0 0 0-.174 1.019c0 .364.058.703.174 1.015a1.7 1.7 0 0 0 .536.757c.242.192.55.287.924.287Z"/><rect width="10" height="10" x="159.855" y="286.225" fill="#C3DDFF" rx="5"/><path fill="#19213D" d="M174.736 294.725v-7.273h2.458c.57 0 1.036.103 1.399.309.364.203.634.479.809.827.176.348.263.737.263 1.165 0 .429-.087.818-.263 1.168-.172.351-.44.63-.802.838-.362.206-.826.309-1.392.309h-1.762v-.781h1.733c.391 0 .705-.067.941-.202.237-.135.409-.318.515-.547.109-.232.164-.494.164-.785 0-.291-.055-.552-.164-.781a1.16 1.16 0 0 0-.518-.54c-.239-.133-.557-.199-.952-.199h-1.548v6.492h-.881Zm6.234 0v-5.455h.81v.824h.057c.099-.27.279-.489.539-.657.261-.168.554-.252.881-.252l.231.003c.092.003.162.006.209.011v.852a2.931 2.931 0 0 0-.195-.032 1.984 1.984 0 0 0-.316-.025c-.265 0-.502.056-.71.167a1.221 1.221 0 0 0-.668 1.112v3.452h-.838Zm5.842.113c-.526 0-.979-.116-1.36-.348a2.332 2.332 0 0 1-.877-.98c-.204-.421-.306-.911-.306-1.47 0-.559.102-1.051.306-1.477.206-.429.492-.763.859-1.002.369-.241.8-.362 1.293-.362.284 0 .564.047.841.142a2.1 2.1 0 0 1 .757.462c.227.21.408.49.543.838.135.348.202.776.202 1.285v.355h-4.204v-.724h3.352c0-.308-.062-.582-.185-.824a1.39 1.39 0 0 0-1.306-.781 1.51 1.51 0 0 0-.867.248 1.641 1.641 0 0 0-.557.64 1.864 1.864 0 0 0-.196.845v.483c0 .412.071.761.213 1.047.145.284.345.501.6.65.256.147.553.22.892.22.22 0 .419-.03.596-.092.18-.064.335-.159.466-.284.13-.128.23-.286.301-.476l.81.227a1.782 1.782 0 0 1-.43.725 2.088 2.088 0 0 1-.745.483c-.296.113-.629.17-.998.17Zm3.533-.113v-5.455h.81v.852h.071c.113-.291.297-.517.55-.678.254-.163.558-.245.913-.245.36 0 .659.082.898.245a1.6 1.6 0 0 1 .565.678h.057c.139-.281.349-.505.628-.671.28-.168.615-.252 1.005-.252.488 0 .887.153 1.197.458.31.303.465.775.465 1.417v3.651h-.838v-3.651c0-.402-.11-.69-.33-.863a1.22 1.22 0 0 0-.778-.259c-.383 0-.68.116-.891.348-.211.23-.316.521-.316.873v3.552h-.852v-3.736c0-.31-.101-.56-.302-.749-.201-.192-.461-.288-.778-.288a1.15 1.15 0 0 0-.611.174 1.313 1.313 0 0 0-.454.483 1.42 1.42 0 0 0-.171.707v3.409h-.838Zm8.692 0v-5.455h.838v5.455h-.838Zm.426-6.364a.596.596 0 0 1-.423-.167.536.536 0 0 1-.174-.401c0-.156.058-.29.174-.401a.592.592 0 0 1 .423-.167c.163 0 .303.055.419.167a.531.531 0 0 1 .177.401c0 .156-.059.29-.177.401a.585.585 0 0 1-.419.167Zm5.384 4.133v-3.224h.838v5.455h-.838v-.924h-.057a1.788 1.788 0 0 1-.596.707c-.27.192-.611.288-1.023.288-.341 0-.644-.075-.909-.224a1.567 1.567 0 0 1-.625-.682c-.152-.305-.227-.69-.227-1.154v-3.466h.838v3.409c0 .398.111.715.333.952.225.237.512.355.86.355.208 0 .42-.053.636-.16.217-.106.4-.27.546-.49.15-.22.224-.501.224-.842Zm2.373 2.231v-5.455h.81v.852h.071c.113-.291.297-.517.55-.678.254-.163.558-.245.913-.245.36 0 .659.082.898.245a1.6 1.6 0 0 1 .565.678h.057c.139-.281.349-.505.628-.671.28-.168.615-.252 1.005-.252.488 0 .887.153 1.197.458.31.303.465.775.465 1.417v3.651h-.838v-3.651c0-.402-.11-.69-.33-.863a1.22 1.22 0 0 0-.778-.259c-.383 0-.68.116-.891.348-.211.23-.316.521-.316.873v3.552h-.852v-3.736c0-.31-.101-.56-.302-.749-.201-.192-.461-.288-.778-.288a1.15 1.15 0 0 0-.611.174 1.313 1.313 0 0 0-.454.483 1.42 1.42 0 0 0-.171.707v3.409h-.838Z"/><rect width="10" height="10" x="244.523" y="286.225" fill="#E3EFFF" rx="5"/><path fill="#19213D" d="M259.404 294.725v-7.273h4.389v.781h-3.508v2.458h3.281v.781h-3.281v2.471h3.565v.782h-4.446Zm6.701-3.282v3.282h-.838v-5.455h.81v.852h.071c.128-.277.322-.499.582-.667.261-.171.597-.256 1.009-.256.369 0 .692.076.969.227.277.149.493.377.646.682.154.303.231.687.231 1.151v3.466h-.838v-3.409c0-.429-.111-.763-.334-1.002-.222-.241-.528-.362-.916-.362-.267 0-.506.058-.717.174a1.241 1.241 0 0 0-.494.508c-.121.222-.181.492-.181.809Zm7.384-2.173v.71h-2.827v-.71h2.827Zm-2.003-1.307h.838v5.199c0 .237.034.414.103.533a.531.531 0 0 0 .27.234c.111.038.228.057.351.057.093 0 .169-.005.228-.014l.142-.029.17.753a1.575 1.575 0 0 1-.238.064 1.725 1.725 0 0 1-.387.036c-.236 0-.469-.051-.696-.153a1.385 1.385 0 0 1-.561-.465c-.147-.209-.22-.471-.22-.789v-5.426Zm5.492 6.875c-.526 0-.979-.116-1.36-.348a2.332 2.332 0 0 1-.877-.98c-.204-.421-.306-.911-.306-1.47 0-.559.102-1.051.306-1.477.206-.429.492-.763.859-1.002.369-.241.8-.362 1.293-.362.284 0 .564.047.841.142a2.1 2.1 0 0 1 .757.462c.227.21.408.49.543.838.135.348.202.776.202 1.285v.355h-4.204v-.724h3.352c0-.308-.061-.582-.185-.824a1.39 1.39 0 0 0-1.306-.781 1.51 1.51 0 0 0-.867.248 1.641 1.641 0 0 0-.557.64 1.864 1.864 0 0 0-.196.845v.483c0 .412.071.761.213 1.047.145.284.345.501.6.65.256.147.553.22.892.22.22 0 .419-.03.596-.092.18-.064.335-.159.466-.284.13-.128.23-.286.301-.476l.81.227a1.782 1.782 0 0 1-.43.725 2.088 2.088 0 0 1-.745.483c-.296.113-.629.17-.998.17Zm3.533-.113v-5.455h.81v.824h.057c.099-.27.279-.489.539-.657.261-.168.554-.252.881-.252l.231.003c.092.003.162.006.209.011v.852a2.931 2.931 0 0 0-.195-.032 1.984 1.984 0 0 0-.316-.025c-.265 0-.502.056-.71.167a1.221 1.221 0 0 0-.668 1.112v3.452h-.838Zm3.721 2.045v-7.5h.81v.867h.099c.062-.095.147-.216.256-.363.111-.149.27-.281.476-.397.208-.119.49-.178.845-.178.459 0 .864.115 1.214.345.351.229.624.555.82.976.197.421.295.919.295 1.492 0 .577-.098 1.078-.295 1.502a2.323 2.323 0 0 1-.816.98c-.348.229-.75.344-1.204.344-.35 0-.631-.058-.842-.174a1.555 1.555 0 0 1-.486-.401 5.657 5.657 0 0 1-.263-.376h-.071v2.883h-.838Zm.824-4.773c0 .412.06.776.181 1.091.121.312.297.557.529.735.232.175.516.262.852.262.351 0 .643-.092.877-.277.237-.187.415-.438.533-.752.121-.318.181-.67.181-1.059 0-.383-.059-.729-.177-1.037a1.603 1.603 0 0 0-.53-.735c-.234-.182-.529-.273-.884-.273-.341 0-.627.086-.859.259-.232.171-.407.41-.526.717a2.96 2.96 0 0 0-.177 1.069Zm5.27 2.728v-5.455h.809v.824h.057c.1-.27.279-.489.54-.657.26-.168.554-.252.881-.252l.23.003c.093.003.163.006.21.011v.852a3.059 3.059 0 0 0-.511-.057 1.49 1.49 0 0 0-.711.167 1.263 1.263 0 0 0-.49.455 1.23 1.23 0 0 0-.177.657v3.452h-.838Zm3.72 0v-5.455h.838v5.455h-.838Zm.426-6.364a.596.596 0 0 1-.422-.167.536.536 0 0 1-.174-.401c0-.156.058-.29.174-.401a.591.591 0 0 1 .422-.167c.164 0 .304.055.42.167a.531.531 0 0 1 .177.401c0 .156-.059.29-.177.401a.586.586 0 0 1-.42.167Zm5.811 2.131-.753.213a1.383 1.383 0 0 0-.209-.366 1.009 1.009 0 0 0-.37-.298 1.34 1.34 0 0 0-.6-.118c-.334 0-.612.077-.834.231-.22.152-.331.345-.331.579 0 .208.076.373.228.494.151.12.388.221.71.302l.81.198c.487.119.851.3 1.09.544.239.241.358.553.358.934 0 .312-.09.592-.269.838-.178.246-.427.44-.746.582-.32.142-.691.213-1.115.213-.557 0-1.017-.12-1.382-.362-.364-.241-.595-.594-.692-1.058l.795-.199c.076.293.219.514.43.66.213.147.491.221.835.221.39 0 .7-.083.93-.249.232-.168.348-.369.348-.604a.634.634 0 0 0-.199-.476c-.132-.13-.336-.227-.611-.291l-.909-.213c-.499-.118-.866-.302-1.101-.55-.232-.251-.348-.565-.348-.941 0-.308.087-.58.26-.817.175-.237.413-.423.713-.558a2.524 2.524 0 0 1 1.03-.202c.54 0 .964.118 1.272.355.31.237.53.549.66.938Zm3.648 4.346c-.526 0-.979-.116-1.36-.348a2.332 2.332 0 0 1-.877-.98c-.204-.421-.306-.911-.306-1.47 0-.559.102-1.051.306-1.477.206-.429.492-.763.859-1.002.369-.241.8-.362 1.293-.362.284 0 .564.047.841.142a2.1 2.1 0 0 1 .757.462c.227.21.408.49.543.838.135.348.202.776.202 1.285v.355h-4.204v-.724h3.352a1.79 1.79 0 0 0-.184-.824 1.4 1.4 0 0 0-.519-.572 1.455 1.455 0 0 0-.788-.209 1.51 1.51 0 0 0-.867.248 1.641 1.641 0 0 0-.557.64 1.864 1.864 0 0 0-.196.845v.483c0 .412.071.761.213 1.047.145.284.345.501.601.65.255.147.552.22.891.22.22 0 .419-.03.597-.092a1.29 1.29 0 0 0 .465-.284 1.29 1.29 0 0 0 .302-.476l.809.227a1.791 1.791 0 0 1-.429.725c-.202.206-.45.367-.746.483-.296.113-.629.17-.998.17Z"/></g><defs><clipPath id="b"><rect width="12" height="156" x="83.523" y="85.225" fill="#fff" rx="4"/></clipPath><clipPath id="c"><rect width="12" height="156" x="123.723" y="85.225" fill="#fff" rx="4"/></clipPath><clipPath id="d"><rect width="12" height="156" x="163.922" y="85.225" fill="#fff" rx="4"/></clipPath><clipPath id="e"><rect width="12" height="156" x="204.125" y="85.225" fill="#fff" rx="4"/></clipPath><clipPath id="f"><rect width="12" height="156" x="244.324" y="85.225" fill="#fff" rx="4"/></clipPath><clipPath id="g"><rect width="12" height="156" x="284.523" y="85.225" fill="#fff" rx="4"/></clipPath><filter id="a" width="339" height="329" x=".523" y=".225" color-interpolation-filters="sRGB" filterUnits="userSpaceOnUse"><feFlood flood-opacity="0" result="BackgroundImageFix"/><feColorMatrix in="SourceAlpha" result="hardAlpha" values="0 0 0 0 0 0 0 0 0 0 0 0 0 0 0 0 0 0 127 0"/><feOffset dy="1"/><feGaussianBlur stdDeviation="2"/><feComposite in2="hardAlpha" operator="out"/><feColorMatrix values="0 0 0 0 0.0969792 0 0 0 0 0.127894 0 0 0 0 0.2375 0 0 0 0.08 0"/><feBlend in2="BackgroundImageFix" result="effect1_dropShadow_6477_12020"/><feBlend in="SourceGraphic" in2="effect1_dropShadow_6477_12020" result="shape"/></filter></defs></svg>