<svg xmlns="http://www.w3.org/2000/svg" width="340" height="330" fill="none"><g filter="url(#a)"><rect width="331" height="321" x="4.762" y="3.445" fill="#fff" rx="24" shape-rendering="crispEdges"/><rect width="330" height="320" x="5.262" y="3.945" stroke="#F1F3F7" rx="23.5" shape-rendering="crispEdges"/><path fill="#6D758F" d="M38.006 35.459h1.472l3.46 8.451h.12l3.46-8.451h1.471V45.64h-1.153v-7.736h-.1l-3.181 7.736H42.44l-3.182-7.736h-.1v7.736h-1.153V35.459Zm15.399 10.34c-.69 0-1.295-.163-1.815-.492a3.343 3.343 0 0 1-1.213-1.377c-.288-.59-.433-1.279-.433-2.068 0-.795.145-1.49.433-2.083a3.337 3.337 0 0 1 1.213-1.382c.52-.328 1.125-.492 1.815-.492.689 0 1.292.164 1.81.492.52.328.924.789 1.212 1.382.292.593.438 1.288.438 2.083 0 .789-.146 1.478-.438 2.068a3.298 3.298 0 0 1-1.213 1.377c-.517.329-1.12.493-1.81.493Zm0-1.053c.523 0 .954-.135 1.292-.403.338-.268.589-.621.751-1.059a4.06 4.06 0 0 0 .244-1.422c0-.51-.082-.986-.244-1.427a2.406 2.406 0 0 0-.75-1.069c-.339-.271-.77-.407-1.293-.407-.524 0-.955.136-1.293.407a2.406 2.406 0 0 0-.75 1.07c-.163.44-.244.916-.244 1.426 0 .51.08.985.243 1.422.163.438.413.79.751 1.059.338.268.769.403 1.293.403Zm6.424-3.7v4.595h-1.173v-7.637h1.133v1.193h.1c.179-.387.45-.699.815-.934.365-.239.835-.358 1.412-.358.517 0 .97.106 1.357.318.388.209.69.527.905.955.216.424.323.96.323 1.61v4.853h-1.173v-4.773c0-.6-.156-1.067-.467-1.402-.312-.338-.74-.507-1.283-.507-.374 0-.71.081-1.004.243-.292.163-.522.4-.691.711-.17.312-.254.69-.254 1.134Zm10.337-3.042V39H66.21v-.995h3.957Zm-2.804-1.83h1.174v7.28c0 .33.048.58.144.745.1.162.225.272.378.328.155.053.32.08.492.08.13 0 .235-.007.318-.02l.199-.04.239 1.054a2.514 2.514 0 0 1-.875.14c-.332 0-.657-.072-.975-.215a1.936 1.936 0 0 1-.785-.651c-.206-.292-.309-.66-.309-1.104v-7.596Zm5.907 4.873v4.594h-1.174V35.459h1.174v3.738h.1a2.16 2.16 0 0 1 .805-.94c.36-.234.841-.352 1.441-.352.52 0 .976.104 1.367.313.392.205.695.522.91.95.219.424.328.964.328 1.62v4.853h-1.173v-4.773c0-.607-.157-1.076-.472-1.407-.312-.335-.744-.502-1.298-.502a2.17 2.17 0 0 0-1.034.243c-.301.163-.54.4-.716.711-.172.312-.258.69-.258 1.134Zm8.271-5.588V45.64h-1.173V35.459h1.173Zm2.905 13.045c-.2 0-.376-.016-.532-.05a1.403 1.403 0 0 1-.323-.089l.298-1.034c.285.073.537.1.756.08a.905.905 0 0 0 .581-.294c.173-.172.33-.452.473-.84l.218-.597-2.823-7.676h1.272l2.108 6.086h.08l2.108-6.086h1.272l-3.241 8.75a3.303 3.303 0 0 1-.542.98 2.03 2.03 0 0 1-.75.581c-.282.126-.6.19-.955.19Zm16.384-8.79-1.054.299a1.959 1.959 0 0 0-.294-.512 1.424 1.424 0 0 0-.517-.418c-.218-.11-.498-.164-.84-.164-.467 0-.857.108-1.168.323-.309.212-.463.482-.463.81 0 .292.107.523.319.692.212.169.543.31.994.422l1.133.279c.683.165 1.192.419 1.527.76.334.338.502.774.502 1.308 0 .437-.126.828-.378 1.173-.249.345-.597.617-1.044.815-.448.2-.968.299-1.561.299-.779 0-1.424-.17-1.934-.507-.51-.338-.834-.832-.97-1.482l1.114-.278c.106.41.307.719.602.924.298.206.687.309 1.168.309.547 0 .981-.116 1.303-.348.324-.236.487-.517.487-.846a.888.888 0 0 0-.279-.666c-.185-.182-.47-.318-.855-.407L97.35 42.2c-.7-.165-1.214-.422-1.542-.77-.325-.352-.487-.79-.487-1.318 0-.43.121-.812.363-1.143a2.469 2.469 0 0 1 1-.78 3.509 3.509 0 0 1 1.441-.284c.756 0 1.35.166 1.78.497.434.331.742.769.925 1.313Zm4.152 6.106a3.1 3.1 0 0 1-1.317-.274 2.258 2.258 0 0 1-.94-.8c-.232-.352-.348-.776-.348-1.273 0-.438.086-.792.259-1.064a1.82 1.82 0 0 1 .691-.646c.288-.156.606-.272.954-.348.352-.08.704-.143 1.059-.19.464-.059.84-.104 1.129-.133.291-.033.503-.088.636-.164.136-.077.204-.21.204-.398v-.04c0-.49-.134-.872-.403-1.143-.265-.272-.668-.408-1.208-.408-.56 0-.999.123-1.317.368-.319.245-.542.507-.672.785l-1.113-.397c.199-.464.464-.826.795-1.084.335-.262.7-.444 1.094-.547.398-.106.789-.16 1.173-.16.246 0 .527.03.845.09.322.057.632.174.93.353.302.18.552.45.751.81.199.362.298.846.298 1.452v5.032h-1.173v-1.035h-.06a2.044 2.044 0 0 1-.398.532c-.185.19-.432.35-.74.483-.309.132-.685.199-1.129.199Zm.179-1.054c.464 0 .855-.091 1.173-.274a1.85 1.85 0 0 0 .726-.706c.166-.288.249-.591.249-.91v-1.073c-.05.06-.159.114-.328.164a5.528 5.528 0 0 1-.577.124 25.888 25.888 0 0 1-1.124.15 4.415 4.415 0 0 0-.855.193 1.475 1.475 0 0 0-.636.393c-.159.172-.239.407-.239.706 0 .407.151.716.453.924.305.206.691.309 1.158.309Zm6.636-9.307V45.64h-1.173V35.459h1.173Zm5.351 10.34c-.736 0-1.371-.162-1.904-.486a3.263 3.263 0 0 1-1.228-1.373c-.285-.59-.428-1.276-.428-2.058 0-.782.143-1.471.428-2.068.288-.6.689-1.067 1.203-1.402.517-.338 1.12-.507 1.809-.507.398 0 .791.066 1.179.199.387.132.74.348 1.059.646.318.295.571.686.76 1.173.189.487.284 1.087.284 1.8v.497h-5.887v-1.014h4.693c0-.43-.086-.815-.258-1.153a1.948 1.948 0 0 0-.726-.8c-.312-.196-.679-.294-1.104-.294-.467 0-.871.116-1.213.348a2.286 2.286 0 0 0-.78.895 2.62 2.62 0 0 0-.274 1.183v.676c0 .577.1 1.066.299 1.467.202.397.482.7.84.91.358.205.774.308 1.248.308.308 0 .586-.043.835-.13.252-.089.469-.222.651-.397a1.82 1.82 0 0 0 .423-.666l1.133.318c-.119.384-.32.722-.601 1.014-.282.288-.63.514-1.044.676-.415.16-.88.239-1.397.239Zm10.355-6.084-1.053.298a1.988 1.988 0 0 0-.294-.512 1.422 1.422 0 0 0-.517-.418c-.219-.11-.499-.164-.84-.164-.467 0-.857.108-1.168.323-.309.212-.463.482-.463.81 0 .292.106.523.318.692.213.169.544.31.995.422l1.133.279c.683.165 1.192.419 1.527.76.334.338.502.774.502 1.308 0 .437-.126.828-.378 1.173-.249.345-.597.617-1.044.815-.448.2-.968.299-1.561.299-.779 0-1.424-.17-1.934-.507-.511-.338-.834-.832-.97-1.482l1.114-.278c.106.41.307.719.602.924.298.206.687.309 1.168.309.547 0 .981-.116 1.302-.348.325-.236.488-.517.488-.846a.887.887 0 0 0-.279-.666c-.185-.182-.47-.318-.855-.407l-1.273-.299c-.699-.165-1.213-.422-1.541-.77-.325-.352-.487-.79-.487-1.318 0-.43.121-.812.363-1.143.245-.332.578-.592.999-.78a3.51 3.51 0 0 1 1.442-.284c.756 0 1.349.166 1.78.497.434.331.742.769.924 1.313Z"/><path fill="#19213D" d="M42.931 70.459V52.277h1.165v18.182H42.93Zm2.806-12.003c-.048-.52-.259-.926-.633-1.215-.369-.293-.897-.44-1.583-.44-.455 0-.834.06-1.137.178-.303.118-.53.281-.682.49a1.18 1.18 0 0 0-.234.703c-.01.218.033.41.128.575.1.166.241.313.426.44.19.124.417.233.682.327.265.095.563.178.895.249l1.25.284c.72.156 1.354.364 1.903.625a5.14 5.14 0 0 1 1.392.93 3.6 3.6 0 0 1 .86 1.243c.194.469.293.995.298 1.577-.005.918-.237 1.707-.696 2.365-.46.658-1.12 1.162-1.982 1.513-.857.35-1.891.525-3.103.525-1.217 0-2.278-.182-3.182-.547-.905-.364-1.608-.918-2.11-1.662-.502-.743-.76-1.683-.774-2.82h3.367c.028.47.154.86.376 1.173.223.312.528.549.916.71.393.161.848.242 1.364.242.474 0 .876-.065 1.207-.192.337-.128.595-.306.774-.533.18-.227.273-.488.277-.781a1.077 1.077 0 0 0-.255-.703c-.166-.2-.422-.37-.767-.512a7.872 7.872 0 0 0-1.307-.405l-1.52-.355c-1.26-.288-2.251-.755-2.976-1.399-.724-.648-1.084-1.524-1.08-2.628-.004-.9.237-1.688.725-2.365.488-.677 1.163-1.205 2.024-1.584.862-.378 1.845-.568 2.948-.568 1.127 0 2.104.192 2.933.576.833.378 1.48.911 1.939 1.598.46.686.694 1.482.703 2.386h-3.367Zm10.845 10.383c-1.108 0-2.09-.189-2.948-.568-.852-.383-1.524-.911-2.017-1.584-.492-.672-.743-1.446-.753-2.322h3.537c.014.317.116.599.306.845.19.242.447.431.774.568.326.138.698.206 1.115.206.417 0 .784-.073 1.1-.22.323-.151.574-.357.754-.618.18-.265.267-.568.262-.909a1.441 1.441 0 0 0-.29-.909c-.2-.265-.481-.471-.846-.618-.36-.147-.786-.22-1.278-.22h-1.414v-2.5h1.414c.43 0 .81-.071 1.136-.213.331-.142.59-.34.774-.597a1.47 1.47 0 0 0 .27-.895 1.494 1.494 0 0 0-.234-.859 1.553 1.553 0 0 0-.66-.582 2.179 2.179 0 0 0-.974-.206c-.388 0-.74.068-1.058.206a1.805 1.805 0 0 0-.746.582 1.51 1.51 0 0 0-.291.874h-3.36c.01-.867.252-1.63.725-2.287.473-.663 1.117-1.182 1.932-1.556.819-.374 1.752-.56 2.798-.56 1.042 0 1.958.182 2.749.546.79.365 1.406.862 1.846 1.492.44.625.66 1.332.66 2.123.005.82-.262 1.494-.802 2.024-.535.53-1.224.857-2.067.98v.114c1.127.133 1.977.497 2.55 1.094.578.596.864 1.342.86 2.237 0 .843-.249 1.591-.746 2.244-.493.65-1.18 1.16-2.06 1.534-.876.37-1.882.555-3.018.555Zm9.378.008c-.511 0-.95-.18-1.314-.54A1.756 1.756 0 0 1 64.114 67c-.005-.502.172-.93.532-1.285.365-.36.803-.54 1.314-.54.483 0 .91.18 1.279.54a1.732 1.732 0 0 1 .298 2.215c-.17.28-.395.502-.675.668a1.714 1.714 0 0 1-.902.249Zm9.622-.007c-1.06 0-2.003-.192-2.827-.576-.823-.383-1.475-.911-1.953-1.584-.473-.672-.72-1.444-.738-2.315h3.409a1.7 1.7 0 0 0 .653 1.293c.407.322.893.483 1.456.483.44 0 .831-.097 1.172-.292.34-.194.608-.466.802-.816.195-.355.29-.763.285-1.222.004-.469-.093-.878-.292-1.229a2.068 2.068 0 0 0-.81-.816 2.297 2.297 0 0 0-1.178-.299 2.583 2.583 0 0 0-1.2.277c-.375.19-.659.448-.853.775l-3.103-.583.632-7.84h9.332v2.833h-6.442l-.334 3.43h.086c.241-.402.63-.733 1.164-.994.54-.265 1.153-.398 1.84-.398.871 0 1.648.204 2.33.611a4.307 4.307 0 0 1 1.619 1.676c.397.715.596 1.534.596 2.458 0 .999-.236 1.884-.71 2.656-.469.772-1.127 1.378-1.974 1.818-.843.436-1.83.653-2.962.653Zm7.605-14.745h4.353l3.694 9.006h.17l3.693-9.006h4.354v14.546h-3.423v-8.935h-.121l-3.494 8.842h-2.188l-3.494-8.892h-.12v8.985h-3.424V54.095Z"/><path fill="#353E5C" d="M90.54 293.88v-14.545h.931v14.545h-.932Zm2.244-9.602c-.038-.417-.207-.74-.506-.972-.295-.234-.718-.352-1.267-.352-.364 0-.667.048-.91.142a1.19 1.19 0 0 0-.544.392.949.949 0 0 0-.188.563.836.836 0 0 0 .102.46c.08.133.193.25.341.352.152.099.334.186.546.262.212.075.45.142.715.199l1 .227a7.004 7.004 0 0 1 1.523.5c.443.208.815.456 1.114.744.303.288.532.619.687.994.156.375.235.796.239 1.262-.004.735-.19 1.365-.557 1.892-.367.526-.896.93-1.585 1.21-.686.28-1.513.421-2.483.421-.974 0-1.822-.146-2.545-.438-.724-.292-1.286-.735-1.688-1.33-.402-.594-.608-1.346-.62-2.255h2.694c.023.375.123.687.301.937s.422.44.733.568c.314.129.678.194 1.09.194.38 0 .702-.051.967-.154.269-.102.475-.244.62-.426.143-.182.217-.39.22-.625a.859.859 0 0 0-.204-.562c-.132-.159-.337-.296-.613-.409a6.203 6.203 0 0 0-1.046-.324l-1.216-.284c-1.007-.232-1.8-.605-2.38-1.12-.58-.519-.868-1.219-.864-2.102-.004-.72.19-1.35.58-1.892.39-.542.93-.964 1.619-1.267.69-.303 1.475-.455 2.358-.455.901 0 1.683.154 2.346.461.667.303 1.184.729 1.551 1.278.368.549.555 1.186.563 1.909h-2.693Zm4.108 6.216v-2.193l4.767-7.512h1.949v2.978h-1.131l-2.79 4.42v.091h6.904v2.216h-9.7Zm5.619 1.932v-2.602l.057-.961v-8.074h2.631v11.637h-2.688Zm5.554 0v-2.023l4.244-3.716c.318-.288.589-.551.813-.79.223-.242.394-.484.511-.727.118-.246.176-.513.176-.801 0-.322-.07-.597-.21-.824a1.409 1.409 0 0 0-.579-.534 1.85 1.85 0 0 0-.847-.187c-.322 0-.604.066-.847.198a1.387 1.387 0 0 0-.568.563c-.132.246-.199.545-.199.898h-2.664c0-.792.178-1.476.534-2.052a3.517 3.517 0 0 1 1.5-1.329c.647-.314 1.399-.472 2.255-.472.883 0 1.65.148 2.301.444.652.295 1.156.708 1.512 1.238.36.527.54 1.138.54 1.835 0 .444-.089.883-.267 1.319-.178.435-.499.916-.961 1.443-.458.526-1.11 1.157-1.954 1.892l-1.392 1.284v.074h4.716v2.267h-8.614Zm13.061-1.591-.051.631a8.295 8.295 0 0 1-.278 1.528c-.137.5-.283.949-.438 1.347-.155.397-.278.706-.369.926h-1.75c.06-.22.142-.529.244-.926.106-.398.205-.847.295-1.347.091-.5.143-1.008.154-1.523l.011-.636h2.182Zm6.423 1.875c-1.015 0-1.89-.241-2.625-.722-.734-.485-1.301-1.18-1.699-2.085-.397-.909-.594-2.002-.59-3.278.003-1.277.202-2.36.596-3.25.398-.894.962-1.574 1.693-2.04.735-.47 1.61-.705 2.625-.705 1.016 0 1.891.235 2.625.705.739.466 1.307 1.146 1.705 2.04.398.894.595 1.977.591 3.25 0 1.28-.199 2.375-.597 3.284-.398.909-.964 1.604-1.699 2.085-.731.477-1.606.716-2.625.716Zm0-2.301c.606 0 1.097-.309 1.472-.926.375-.622.561-1.574.557-2.858 0-.841-.085-1.534-.256-2.08-.17-.549-.407-.958-.71-1.227a1.55 1.55 0 0 0-1.063-.404c-.602 0-1.089.305-1.46.915-.371.606-.559 1.538-.562 2.796-.004.852.077 1.558.244 2.119.17.561.409.979.716 1.256.307.272.661.409 1.062.409Zm11.344 2.301c-1.015 0-1.89-.241-2.625-.722-.735-.485-1.301-1.18-1.699-2.085-.397-.909-.594-2.002-.591-3.278.004-1.277.203-2.36.597-3.25.398-.894.962-1.574 1.693-2.04.735-.47 1.61-.705 2.625-.705s1.89.235 2.625.705c.739.466 1.307 1.146 1.705 2.04.397.894.594 1.977.591 3.25 0 1.28-.199 2.375-.597 3.284-.398.909-.964 1.604-1.699 2.085-.731.477-1.606.716-2.625.716Zm0-2.301c.606 0 1.097-.309 1.472-.926.375-.622.56-1.574.557-2.858 0-.841-.086-1.534-.256-2.08-.171-.549-.407-.958-.71-1.227a1.552 1.552 0 0 0-1.063-.404c-.602 0-1.089.305-1.46.915-.371.606-.559 1.538-.563 2.796-.003.852.078 1.558.245 2.119.17.561.409.979.716 1.256.306.272.661.409 1.062.409Zm11.344 2.301c-1.015 0-1.89-.241-2.625-.722-.735-.485-1.301-1.18-1.699-2.085-.398-.909-.595-2.002-.591-3.278.004-1.277.203-2.36.597-3.25.397-.894.962-1.574 1.693-2.04.735-.47 1.61-.705 2.625-.705s1.89.235 2.625.705c.738.466 1.307 1.146 1.704 2.04.398.894.595 1.977.591 3.25 0 1.28-.199 2.375-.596 3.284-.398.909-.964 1.604-1.699 2.085-.731.477-1.606.716-2.625.716Zm0-2.301c.606 0 1.096-.309 1.471-.926.375-.622.561-1.574.557-2.858 0-.841-.085-1.534-.255-2.08-.171-.549-.408-.958-.711-1.227a1.55 1.55 0 0 0-1.062-.404c-.602 0-1.089.305-1.46.915-.372.606-.559 1.538-.563 2.796-.004.852.078 1.558.244 2.119.171.561.41.979.716 1.256.307.272.661.409 1.063.409Z"/><path fill="#6D758F" d="M172.245 283.699a1.782 1.782 0 0 0-.829-1.341c-.485-.319-1.08-.478-1.784-.478-.515 0-.966.084-1.353.25a2.162 2.162 0 0 0-.897.688 1.647 1.647 0 0 0-.318.994c0 .311.073.578.221.801.152.22.345.404.58.551.235.144.481.264.738.358.258.091.495.165.711.222l1.181.318c.303.08.641.19 1.012.33.375.14.733.331 1.074.574.344.238.628.545.852.92.223.375.335.835.335 1.381 0 .628-.165 1.197-.494 1.704-.326.508-.803.911-1.432 1.21-.625.3-1.384.449-2.278.449-.834 0-1.555-.134-2.165-.403-.606-.269-1.084-.644-1.432-1.125a3.203 3.203 0 0 1-.585-1.676h1.454c.038.439.186.803.443 1.091.262.284.591.496.989.636.402.136.833.205 1.296.205.537 0 1.02-.088 1.448-.262.428-.178.767-.424 1.017-.738.25-.319.375-.69.375-1.114 0-.386-.107-.701-.323-.943a2.36 2.36 0 0 0-.853-.591 8.927 8.927 0 0 0-1.142-.398l-1.432-.409c-.909-.261-1.628-.634-2.159-1.119-.53-.485-.795-1.12-.795-1.904 0-.651.176-1.219.528-1.704a3.512 3.512 0 0 1 1.432-1.137c.602-.272 1.275-.409 2.017-.409.75 0 1.417.135 2 .404.584.265 1.046.629 1.387 1.091.344.462.526.986.545 1.574h-1.364Zm6.226 8.931a3.546 3.546 0 0 1-1.505-.312 2.58 2.58 0 0 1-1.074-.915c-.265-.401-.398-.886-.398-1.454 0-.5.098-.906.295-1.216.197-.315.461-.561.79-.739a4.15 4.15 0 0 1 1.091-.398c.402-.091.805-.163 1.21-.216.531-.068.961-.119 1.29-.153.333-.038.576-.1.727-.188.156-.087.233-.238.233-.454v-.046c0-.56-.153-.996-.46-1.306-.303-.311-.763-.466-1.381-.466-.64 0-1.142.14-1.505.42-.364.28-.62.58-.767.898l-1.273-.455c.227-.53.53-.943.909-1.238a3.39 3.39 0 0 1 1.25-.625 5.162 5.162 0 0 1 1.341-.182c.28 0 .602.034.966.102.367.065.721.199 1.062.404.345.204.631.513.858.926.228.413.341.966.341 1.659v5.75h-1.341v-1.182h-.068a2.37 2.37 0 0 1-.454.608c-.213.216-.495.4-.847.551-.352.152-.782.227-1.29.227Zm.205-1.204c.53 0 .977-.104 1.341-.313a2.12 2.12 0 0 0 .829-.807c.19-.329.284-.676.284-1.039v-1.228c-.056.069-.181.131-.375.188-.189.053-.409.1-.659.142a28.32 28.32 0 0 1-1.284.17 5.19 5.19 0 0 0-.977.222 1.675 1.675 0 0 0-.727.449c-.182.197-.273.466-.273.807 0 .466.172.818.517 1.057.348.234.79.352 1.324.352Zm7.584-10.637v11.637h-1.341v-11.637h1.341Zm6.115 11.819c-.841 0-1.567-.186-2.176-.557a3.738 3.738 0 0 1-1.404-1.568c-.326-.675-.489-1.459-.489-2.353 0-.894.163-1.681.489-2.363.33-.686.788-1.22 1.375-1.603.591-.386 1.28-.579 2.068-.579.455 0 .904.076 1.347.227.443.152.846.398 1.21.739.364.337.654.784.869 1.341.216.557.324 1.242.324 2.057v.568h-6.727v-1.159h5.364c0-.493-.099-.932-.296-1.319a2.227 2.227 0 0 0-.829-.914c-.356-.224-.777-.336-1.262-.336-.534 0-.996.133-1.386.398a2.618 2.618 0 0 0-.892 1.023c-.208.42-.313.871-.313 1.352v.773c0 .659.114 1.218.341 1.676.231.455.551.801.961 1.04.409.235.884.352 1.426.352.352 0 .67-.049.954-.148.288-.102.536-.253.745-.454.208-.205.369-.459.482-.762l1.296.364a2.87 2.87 0 0 1-.688 1.159c-.322.33-.719.587-1.193.773a4.416 4.416 0 0 1-1.596.273Zm11.835-6.955-1.205.341a2.197 2.197 0 0 0-.335-.585 1.631 1.631 0 0 0-.591-.478c-.25-.125-.57-.187-.96-.187-.534 0-.979.123-1.335.369-.353.243-.529.551-.529.926 0 .334.122.597.364.79.242.193.621.354 1.136.483l1.296.318c.78.19 1.362.479 1.744.87.383.386.574.884.574 1.494 0 .5-.144.947-.432 1.341-.284.394-.682.704-1.193.932-.511.227-1.106.341-1.784.341-.89 0-1.627-.194-2.21-.58-.584-.386-.953-.951-1.108-1.693l1.272-.318c.122.469.351.822.688 1.057.341.234.786.352 1.335.352.625 0 1.121-.133 1.489-.398.371-.269.557-.591.557-.966a1.01 1.01 0 0 0-.319-.761c-.212-.209-.537-.364-.977-.466l-1.454-.341c-.8-.189-1.387-.483-1.762-.881-.371-.401-.557-.903-.557-1.505 0-.493.139-.928.415-1.307a2.82 2.82 0 0 1 1.142-.892c.485-.216 1.034-.324 1.648-.324.864 0 1.542.189 2.034.568.496.379.849.879 1.057 1.5Zm10.473-1.954v1.136h-4.523v-1.136h4.523Zm-3.205-2.091h1.341v8.318c0 .379.055.663.165.852a.853.853 0 0 0 .432.375c.178.061.365.091.562.091.148 0 .269-.008.364-.023l.227-.045.273 1.204a2.86 2.86 0 0 1-1 .159c-.379 0-.75-.081-1.114-.244a2.208 2.208 0 0 1-.897-.744c-.235-.334-.353-.754-.353-1.262v-8.681Zm7.79 11.022a3.554 3.554 0 0 1-1.506-.312 2.583 2.583 0 0 1-1.073-.915c-.266-.401-.398-.886-.398-1.454 0-.5.098-.906.295-1.216.197-.315.461-.561.79-.739a4.15 4.15 0 0 1 1.091-.398 13.22 13.22 0 0 1 1.21-.216c.531-.068.96-.119 1.29-.153.333-.038.576-.1.727-.188.156-.087.233-.238.233-.454v-.046c0-.56-.153-.996-.46-1.306-.303-.311-.763-.466-1.381-.466-.64 0-1.142.14-1.505.42-.364.28-.62.58-.767.898l-1.273-.455c.227-.53.53-.943.909-1.238a3.39 3.39 0 0 1 1.25-.625 5.15 5.15 0 0 1 1.341-.182c.28 0 .602.034.966.102.367.065.721.199 1.062.404.345.204.631.513.858.926.227.413.341.966.341 1.659v5.75h-1.341v-1.182h-.068a2.354 2.354 0 0 1-.455.608c-.212.216-.494.4-.846.551-.352.152-.782.227-1.29.227Zm.205-1.204c.53 0 .977-.104 1.341-.313a2.12 2.12 0 0 0 .829-.807c.19-.329.284-.676.284-1.039v-1.228c-.057.069-.182.131-.375.188-.189.053-.409.1-.659.142a28.32 28.32 0 0 1-1.284.17 5.19 5.19 0 0 0-.977.222 1.684 1.684 0 0 0-.728.449c-.181.197-.272.466-.272.807 0 .466.172.818.517 1.057.348.234.79.352 1.324.352Zm6.243 1v-8.727h1.295v1.318h.091a2.09 2.09 0 0 1 .864-1.051 2.54 2.54 0 0 1 1.409-.404c.098 0 .221.002.369.006s.259.009.335.017v1.364a3.597 3.597 0 0 0-.312-.052 3.138 3.138 0 0 0-.506-.039c-.424 0-.803.089-1.136.267a1.955 1.955 0 0 0-1.069 1.778v5.523h-1.34Zm9.21 3.454c-.648 0-1.205-.083-1.671-.25a3.533 3.533 0 0 1-1.164-.647 3.541 3.541 0 0 1-.733-.853l1.068-.75c.121.159.274.341.46.546.186.208.439.388.761.54.326.155.752.233 1.279.233.704 0 1.286-.171 1.744-.512.458-.341.688-.875.688-1.602v-1.773h-.114a7.586 7.586 0 0 1-.42.591c-.179.231-.436.438-.773.619-.334.178-.784.267-1.352.267-.705 0-1.338-.166-1.898-.5-.557-.333-.998-.818-1.324-1.454-.322-.636-.483-1.409-.483-2.318 0-.894.157-1.673.472-2.336.314-.666.751-1.181 1.312-1.545.561-.367 1.208-.551 1.943-.551.568 0 1.019.095 1.353.284.337.186.594.398.772.636.182.235.322.428.421.58h.136v-1.386h1.296v8.977c0 .75-.171 1.36-.512 1.829-.337.474-.792.82-1.363 1.04-.569.224-1.201.335-1.898.335Zm-.046-4.795c.538 0 .993-.123 1.364-.369.371-.247.653-.601.847-1.063.193-.462.289-1.015.289-1.659 0-.629-.094-1.184-.284-1.665-.189-.481-.469-.858-.841-1.13-.371-.273-.829-.41-1.375-.41-.568 0-1.041.144-1.42.432a2.634 2.634 0 0 0-.847 1.159 4.496 4.496 0 0 0-.278 1.614c0 .606.095 1.142.284 1.608.193.462.477.826.852 1.091.379.261.849.392 1.409.392Zm9.932 1.523c-.841 0-1.566-.186-2.176-.557a3.736 3.736 0 0 1-1.403-1.568c-.326-.675-.489-1.459-.489-2.353 0-.894.163-1.681.489-2.363.329-.686.787-1.22 1.375-1.603.591-.386 1.28-.579 2.068-.579.454 0 .903.076 1.346.227.444.152.847.398 1.211.739.363.337.653.784.869 1.341.216.557.324 1.242.324 2.057v.568h-6.727v-1.159h5.363c0-.493-.098-.932-.295-1.319a2.222 2.222 0 0 0-.83-.914c-.356-.224-.776-.336-1.261-.336-.534 0-.996.133-1.387.398a2.626 2.626 0 0 0-.892 1.023c-.208.42-.312.871-.312 1.352v.773c0 .659.114 1.218.341 1.676.231.455.551.801.96 1.04.409.235.884.352 1.426.352.352 0 .671-.049.955-.148a2.03 2.03 0 0 0 .744-.454 2.08 2.08 0 0 0 .483-.762l1.295.364a2.867 2.867 0 0 1-.687 1.159c-.322.33-.72.587-1.193.773a4.425 4.425 0 0 1-1.597.273Zm9.449-8.909v1.136h-4.523v-1.136h4.523Zm-3.205-2.091h1.341v8.318c0 .379.055.663.165.852a.853.853 0 0 0 .432.375c.178.061.365.091.562.091.148 0 .269-.008.364-.023l.227-.045.273 1.204a2.854 2.854 0 0 1-1 .159c-.379 0-.75-.081-1.114-.244a2.214 2.214 0 0 1-.897-.744c-.235-.334-.353-.754-.353-1.262v-8.681Z"/><rect width="267" height="160" x="36.762" y="92.426" fill="#F8FAFF" rx="24"/><path fill="#353E5C" d="M133.594 190.492v-3.772l11.109-17.552h3.145v5.369h-1.917l-7.479 11.851v.205h15.507v3.899h-20.365Zm12.49 4.858v-6.009l.051-1.687v-18.486h4.475v26.182h-4.526Zm11.96 0v-3.427l9.089-8.91a42.696 42.696 0 0 0 2.173-2.34c.58-.681 1.014-1.342 1.304-1.981.29-.639.435-1.321.435-2.046 0-.826-.188-1.534-.563-2.122a3.743 3.743 0 0 0-1.546-1.38c-.657-.324-1.402-.486-2.238-.486-.86 0-1.615.179-2.262.537a3.692 3.692 0 0 0-1.509 1.496c-.349.647-.524 1.419-.524 2.313h-4.513c0-1.661.379-3.106 1.138-4.333.758-1.228 1.802-2.178 3.132-2.851 1.338-.674 2.872-1.01 4.602-1.01 1.756 0 3.299.328 4.628.984 1.33.656 2.361 1.556 3.094 2.698.741 1.142 1.112 2.446 1.112 3.912 0 .98-.187 1.943-.562 2.889-.375.946-1.036 1.994-1.982 3.145-.937 1.15-2.254 2.544-3.95 4.18l-4.513 4.59v.179h11.403v3.963h-17.948Zm36.357-4.909v-1.381c0-1.014.214-1.948.64-2.8a5.164 5.164 0 0 1 1.892-2.058c.826-.52 1.828-.78 3.004-.78 1.21 0 2.224.26 3.043.78a4.924 4.924 0 0 1 1.853 2.045c.426.853.639 1.79.639 2.813v1.381c0 1.014-.213 1.947-.639 2.799a5.063 5.063 0 0 1-1.879 2.058c-.818.52-1.824.78-3.017.78-1.193 0-2.203-.26-3.03-.78a5.063 5.063 0 0 1-1.879-2.058c-.418-.852-.627-1.785-.627-2.799Zm3.337-1.381v1.381c0 .673.162 1.291.486 1.853.324.563.895.844 1.713.844.827 0 1.393-.277 1.7-.831a3.746 3.746 0 0 0 .473-1.866v-1.381c0-.682-.149-1.304-.447-1.867-.298-.571-.874-.856-1.726-.856-.801 0-1.368.285-1.7.856a3.598 3.598 0 0 0-.499 1.867Zm-16.645-13.602v-1.381c0-1.023.218-1.96.652-2.813a5.086 5.086 0 0 1 1.892-2.045c.827-.52 1.828-.78 3.005-.78 1.201 0 2.211.26 3.029.78a4.904 4.904 0 0 1 1.867 2.045c.417.853.626 1.79.626 2.813v1.381c0 1.022-.213 1.96-.639 2.812a4.932 4.932 0 0 1-1.866 2.033c-.827.511-1.833.767-3.017.767-1.202 0-2.216-.256-3.043-.767a5.028 5.028 0 0 1-1.867-2.046c-.426-.852-.639-1.785-.639-2.799Zm3.362-1.381v1.381c0 .681.158 1.304.473 1.866.324.554.895.831 1.714.831.818 0 1.38-.277 1.687-.831a3.754 3.754 0 0 0 .473-1.866v-1.381c0-.682-.149-1.304-.447-1.867-.299-.571-.87-.856-1.713-.856-.81 0-1.377.285-1.701.856a3.72 3.72 0 0 0-.486 1.867Zm-1.904 21.273 18-26.182h3.196l-18 26.182h-3.196Zm-48.262 17.454a1.341 1.341 0 0 0-.623-1.006c-.363-.238-.809-.357-1.338-.357-.386 0-.724.062-1.014.187a1.617 1.617 0 0 0-.673.516 1.234 1.234 0 0 0-.239.745c0 .233.056.434.166.601.114.165.259.303.435.414.176.108.361.197.554.268.193.068.371.124.533.166l.886.239c.227.06.48.142.759.247.281.105.549.249.805.43.258.179.472.41.639.691.168.281.252.626.252 1.035a2.3 2.3 0 0 1-.371 1.279c-.244.38-.602.683-1.074.907-.469.225-1.038.337-1.709.337-.625 0-1.166-.101-1.623-.303a2.574 2.574 0 0 1-1.074-.843 2.404 2.404 0 0 1-.439-1.257h1.091c.028.329.139.602.332.818.196.213.443.372.742.477.301.102.625.153.971.153.404 0 .766-.065 1.087-.196.321-.133.575-.318.763-.554.187-.238.281-.517.281-.835 0-.29-.081-.525-.243-.707a1.774 1.774 0 0 0-.639-.443 6.767 6.767 0 0 0-.857-.299l-1.074-.306c-.681-.196-1.221-.476-1.619-.84-.398-.364-.597-.839-.597-1.427 0-.489.133-.915.397-1.279.267-.366.625-.65 1.074-.852a3.616 3.616 0 0 1 1.512-.307c.563 0 1.063.101 1.5.303.438.198.784.471 1.04.818.259.346.395.74.409 1.18h-1.022Zm4.669 6.699c-.415 0-.791-.078-1.129-.234a1.942 1.942 0 0 1-.806-.686c-.199-.302-.298-.665-.298-1.091 0-.375.074-.679.222-.912.147-.236.345-.421.592-.554.247-.134.52-.233.818-.299.301-.068.604-.122.908-.161.397-.052.72-.09.967-.116.25-.028.432-.075.546-.14.116-.066.174-.179.174-.341v-.034c0-.421-.115-.747-.345-.98-.227-.233-.572-.35-1.035-.35-.481 0-.857.105-1.13.316-.272.21-.464.434-.575.673l-.955-.341c.171-.398.398-.707.682-.929.287-.224.6-.381.938-.469a3.886 3.886 0 0 1 1.005-.136c.211 0 .452.025.725.077.275.048.541.149.797.302.258.154.473.385.643.695.171.309.256.724.256 1.244v4.313h-1.006v-.887h-.051a1.77 1.77 0 0 1-.341.456c-.159.162-.371.3-.635.414-.264.113-.586.17-.967.17Zm.153-.903c.398 0 .733-.079 1.006-.235a1.59 1.59 0 0 0 .835-1.385v-.92c-.042.051-.136.098-.281.14-.142.04-.307.076-.494.107a26.114 26.114 0 0 1-.963.128 3.798 3.798 0 0 0-.733.166 1.259 1.259 0 0 0-.546.337c-.136.147-.204.349-.204.605 0 .349.129.613.387.792.262.177.593.265.993.265Zm5.688-7.978v8.728h-1.005v-8.728h1.005Zm4.586 8.864c-.63 0-1.174-.139-1.632-.418a2.802 2.802 0 0 1-1.052-1.176c-.245-.505-.367-1.094-.367-1.764 0-.67.122-1.261.367-1.773a2.891 2.891 0 0 1 1.031-1.201c.443-.29.96-.435 1.551-.435.341 0 .678.057 1.01.17.333.114.635.299.908.554.273.253.49.588.652 1.006.162.418.243.932.243 1.543v.426h-5.046v-.87h4.023c0-.369-.074-.698-.222-.988a1.664 1.664 0 0 0-.622-.686 1.738 1.738 0 0 0-.946-.252c-.4 0-.747.1-1.04.299a1.97 1.97 0 0 0-.669.767 2.254 2.254 0 0 0-.234 1.014v.579c0 .495.085.914.256 1.258.173.34.413.6.72.779.307.176.663.265 1.069.265.265 0 .503-.037.716-.111.216-.077.402-.191.559-.341.156-.154.277-.344.362-.571l.971.273a2.158 2.158 0 0 1-.515.869c-.242.247-.54.44-.895.579a3.305 3.305 0 0 1-1.198.205Zm8.877-5.216-.904.256a1.641 1.641 0 0 0-.251-.439 1.226 1.226 0 0 0-.443-.358c-.188-.094-.428-.141-.72-.141-.401 0-.735.093-1.002.277-.264.182-.396.414-.396.695 0 .25.091.447.273.592.182.145.466.266.852.362l.972.239c.585.142 1.021.359 1.308.652.287.29.43.663.43 1.121 0 .375-.108.71-.324 1.005a2.137 2.137 0 0 1-.895.699c-.383.171-.829.256-1.338.256-.667 0-1.22-.145-1.657-.435-.438-.289-.715-.713-.831-1.27l.954-.238c.091.352.263.616.516.792.256.177.589.265 1.001.265.469 0 .841-.1 1.117-.299.278-.201.417-.443.417-.724a.76.76 0 0 0-.238-.571c-.159-.156-.404-.273-.733-.35l-1.091-.255c-.599-.142-1.04-.362-1.321-.661-.278-.301-.418-.677-.418-1.129 0-.369.104-.696.311-.98.211-.284.496-.507.857-.669a3.006 3.006 0 0 1 1.236-.243c.647 0 1.156.142 1.525.426.372.284.637.659.793 1.125Zm2.366 5.148a.736.736 0 0 1-.541-.226.737.737 0 0 1-.226-.541c0-.21.075-.391.226-.541a.736.736 0 0 1 .541-.226c.21 0 .391.075.541.226.151.15.226.331.226.541a.72.72 0 0 1-.106.383.813.813 0 0 1-.277.282.735.735 0 0 1-.384.102Zm0-4.858a.736.736 0 0 1-.541-.226.737.737 0 0 1-.226-.541c0-.21.075-.391.226-.541a.736.736 0 0 1 .541-.226c.21 0 .391.075.541.226.151.15.226.331.226.541a.72.72 0 0 1-.106.383.804.804 0 0 1-.277.282.735.735 0 0 1-.384.102Zm8.614 5.881v-10.91h.699v10.91h-.699Zm2.016-7.42a1.163 1.163 0 0 0-.503-.869c-.292-.207-.673-.311-1.142-.311-.329 0-.612.05-.848.149-.236.1-.416.235-.541.405a.987.987 0 0 0-.192.584c0 .182.041.339.124.473.085.133.2.247.345.341.145.091.305.167.481.23.177.062.354.115.533.158l.818.204c.33.077.647.181.951.311.306.131.581.296.822.495.244.198.438.438.58.72.142.281.213.61.213.988 0 .512-.131.962-.392 1.351-.262.387-.64.689-1.134.908-.491.216-1.087.324-1.785.324-.679 0-1.269-.105-1.769-.316a2.64 2.64 0 0 1-1.168-.92c-.278-.403-.429-.895-.451-1.475h1.555c.023.304.117.557.281.759.165.202.38.352.644.452.267.099.565.149.895.149.344 0 .645-.051.903-.154.262-.105.466-.25.614-.434a1.05 1.05 0 0 0 .226-.656.834.834 0 0 0-.201-.563 1.456 1.456 0 0 0-.549-.375 5.37 5.37 0 0 0-.819-.273l-.992-.255c-.719-.185-1.287-.465-1.705-.84-.415-.378-.622-.879-.622-1.504 0-.514.139-.965.417-1.351a2.768 2.768 0 0 1 1.147-.899c.483-.216 1.03-.324 1.64-.324.62 0 1.162.108 1.628.324.469.213.837.51 1.104.891.267.377.405.812.413 1.303h-1.521Zm6.515-2.399v8.728h-1.581v-7.189h-.052l-2.041 1.304v-1.449l2.169-1.394h1.505Zm2.535 8.728 3.712-7.347v-.06h-4.309v-1.321h5.945v1.351l-3.707 7.377h-1.641Zm7.052-1.194-.056.469c-.04.358-.111.722-.213 1.091a13.22 13.22 0 0 1-.315 1.027c-.111.313-.201.558-.269.737h-1.039l.161-.707c.071-.298.14-.634.205-1.006.065-.372.109-.75.132-1.133l.03-.478h1.364Zm4.567 1.313a3.686 3.686 0 0 1-1.223-.217 2.875 2.875 0 0 1-1.074-.704c-.318-.326-.571-.759-.759-1.299-.187-.543-.28-1.215-.277-2.016 0-.747.08-1.413.239-1.998.159-.586.388-1.08.686-1.483a3.02 3.02 0 0 1 1.078-.929 3.11 3.11 0 0 1 1.419-.32c.548 0 1.034.108 1.458.324a2.75 2.75 0 0 1 1.031.886c.261.372.423.793.486 1.262h-1.556a1.41 1.41 0 0 0-.49-.802c-.244-.201-.554-.302-.929-.302-.605 0-1.071.263-1.398.788-.323.526-.487 1.247-.49 2.165h.06c.139-.25.32-.464.541-.643.222-.179.472-.317.75-.414.281-.099.578-.149.891-.149.511 0 .97.122 1.376.367.409.244.733.581.972 1.009.238.427.356.915.354 1.466a3.015 3.015 0 0 1-.392 1.547 2.85 2.85 0 0 1-1.104 1.074c-.472.262-1.021.391-1.649.388Zm-.009-1.278c.31 0 .587-.076.831-.226.244-.151.438-.354.58-.61.142-.255.211-.542.208-.861a1.698 1.698 0 0 0-.204-.848 1.549 1.549 0 0 0-1.394-.822 1.57 1.57 0 0 0-1.163.499 1.7 1.7 0 0 0-.477 1.184c.003.304.074.584.213.84.139.255.331.46.575.613.244.154.521.231.831.231Zm4.436-.461v-1.257l3.703-5.851h1.049v1.79h-.64l-2.492 3.95v.069h5.169v1.299h-6.789Zm4.164 1.62v-2.003l.017-.563v-6.162h1.491v8.728h-1.508Zm7.212.166c-.702 0-1.304-.178-1.807-.533-.5-.358-.885-.873-1.155-1.547-.267-.676-.4-1.49-.4-2.442.003-.951.138-1.761.405-2.428.269-.671.654-1.182 1.154-1.535.503-.352 1.104-.528 1.803-.528.699 0 1.3.176 1.802.528.503.353.888.864 1.155 1.535.27.67.405 1.48.405 2.428 0 .955-.135 1.77-.405 2.447-.267.673-.652 1.187-1.155 1.542-.5.355-1.1.533-1.802.533Zm0-1.334c.545 0 .976-.268 1.291-.805.318-.54.477-1.334.477-2.383 0-.693-.072-1.275-.217-1.747-.145-.471-.349-.826-.614-1.065a1.343 1.343 0 0 0-.937-.362c-.543 0-.972.27-1.287.809-.315.537-.474 1.326-.477 2.365-.003.697.066 1.282.209 1.756.144.475.349.833.613 1.074.264.239.578.358.942.358Z"/><g filter="url(#b)"><path stroke="#E3EFFF" stroke-linecap="round" stroke-linejoin="round" stroke-width="21.538" d="M81.031 215.676a89.231 89.231 0 0 1 178.462 0"/></g><g filter="url(#c)"><path stroke="#2388FF" stroke-linecap="round" stroke-linejoin="round" stroke-width="20" d="M80.977 215.675a89.286 89.286 0 0 1 74.089-87.983"/></g><g filter="url(#d)"><circle cx="157.019" cy="126.703" r="8.257" fill="#2388FF"/><path stroke="#fff" stroke-width="6.193" d="M157.019 115.349c6.27 0 11.354 5.083 11.354 11.353 0 6.271-5.084 11.355-11.354 11.355-6.271-.001-11.354-5.085-11.354-11.355 0-6.27 5.083-11.353 11.354-11.353Z"/></g></g><defs><filter id="a" width="339" height="329" x=".762" y=".445" color-interpolation-filters="sRGB" filterUnits="userSpaceOnUse"><feFlood flood-opacity="0" result="BackgroundImageFix"/><feColorMatrix in="SourceAlpha" result="hardAlpha" values="0 0 0 0 0 0 0 0 0 0 0 0 0 0 0 0 0 0 127 0"/><feOffset dy="1"/><feGaussianBlur stdDeviation="2"/><feComposite in2="hardAlpha" operator="out"/><feColorMatrix values="0 0 0 0 0.0969792 0 0 0 0 0.127894 0 0 0 0 0.2375 0 0 0 0.08 0"/><feBlend in2="BackgroundImageFix" result="effect1_dropShadow_6477_28776"/><feBlend in="SourceGraphic" in2="effect1_dropShadow_6477_28776" result="shape"/></filter><filter id="b" width="200" height="112.198" x="70.262" y="115.676" color-interpolation-filters="sRGB" filterUnits="userSpaceOnUse"><feFlood flood-opacity="0" result="BackgroundImageFix"/><feBlend in="SourceGraphic" in2="BackgroundImageFix" result="shape"/><feColorMatrix in="SourceAlpha" result="hardAlpha" values="0 0 0 0 0 0 0 0 0 0 0 0 0 0 0 0 0 0 127 0"/><feOffset dy="1.429"/><feGaussianBlur stdDeviation=".714"/><feComposite in2="hardAlpha" k2="-1" k3="1" operator="arithmetic"/><feColorMatrix values="0 0 0 0 0.645833 0 0 0 0 0.645833 0 0 0 0 0.645833 0 0 0 0.04 0"/><feBlend in2="shape" result="effect1_innerShadow_6477_28776"/></filter><filter id="c" width="96.949" height="110.842" x="69.548" y="116.262" color-interpolation-filters="sRGB" filterUnits="userSpaceOnUse"><feFlood flood-opacity="0" result="BackgroundImageFix"/><feColorMatrix in="SourceAlpha" result="hardAlpha" values="0 0 0 0 0 0 0 0 0 0 0 0 0 0 0 0 0 0 127 0"/><feOffset/><feGaussianBlur stdDeviation=".714"/><feComposite in2="hardAlpha" operator="out"/><feColorMatrix values="0 0 0 0 0.0306944 0 0 0 0 0.0816408 0 0 0 0 0.141667 0 0 0 0.2 0"/><feBlend in2="BackgroundImageFix" result="effect1_dropShadow_6477_28776"/><feBlend in="SourceGraphic" in2="effect1_dropShadow_6477_28776" result="shape"/></filter><filter id="d" width="35.093" height="35.093" x="139.472" y="110.188" color-interpolation-filters="sRGB" filterUnits="userSpaceOnUse"><feFlood flood-opacity="0" result="BackgroundImageFix"/><feColorMatrix in="SourceAlpha" result="hardAlpha" values="0 0 0 0 0 0 0 0 0 0 0 0 0 0 0 0 0 0 127 0"/><feOffset dy="1.032"/><feGaussianBlur stdDeviation="1.548"/><feComposite in2="hardAlpha" operator="out"/><feColorMatrix values="0 0 0 0 0.0969792 0 0 0 0 0.127894 0 0 0 0 0.2375 0 0 0 0.14 0"/><feBlend in2="BackgroundImageFix" result="effect1_dropShadow_6477_28776"/><feBlend in="SourceGraphic" in2="effect1_dropShadow_6477_28776" result="shape"/></filter></defs></svg>