<svg xmlns="http://www.w3.org/2000/svg" width="340" height="330" fill="none"><g filter="url(#a)"><rect width="331" height="321" x="4.262" y="3.26" fill="#fff" rx="24" shape-rendering="crispEdges"/><rect width="330" height="320" x="4.762" y="3.76" stroke="#F1F3F7" rx="23.5" shape-rendering="crispEdges"/><path fill="#6D758F" d="M39.063 33.623a1.56 1.56 0 0 0-.726-1.173c-.424-.278-.945-.418-1.561-.418-.45 0-.845.073-1.183.22a1.89 1.89 0 0 0-.786.6 1.442 1.442 0 0 0-.278.87c0 .273.064.506.194.702.132.192.301.353.507.482.205.126.42.23.646.313.225.08.433.145.622.194l1.034.279c.265.07.56.165.885.288.328.123.64.29.94.502.3.209.55.477.745.806.196.328.293.73.293 1.208a2.68 2.68 0 0 1-.432 1.491c-.285.444-.703.797-1.253 1.059-.547.262-1.212.393-1.994.393-.729 0-1.36-.118-1.894-.353-.53-.236-.948-.564-1.253-.985a2.808 2.808 0 0 1-.512-1.466h1.273c.033.384.162.702.388.954a2.1 2.1 0 0 0 .865.557c.351.12.729.18 1.133.18.47 0 .893-.077 1.268-.23.374-.155.671-.37.89-.646.219-.278.328-.603.328-.974 0-.338-.094-.614-.283-.826a2.08 2.08 0 0 0-.746-.517 7.858 7.858 0 0 0-1-.348l-1.252-.358c-.796-.228-1.425-.555-1.89-.979-.463-.424-.695-.98-.695-1.666 0-.57.154-1.067.462-1.491.311-.427.73-.759 1.253-.994a4.231 4.231 0 0 1 1.765-.358c.656 0 1.24.117 1.75.353.51.232.914.55 1.213.954.301.405.46.864.477 1.377h-1.193Zm6.521 0v.995h-3.957v-.995h3.957Zm-2.804-1.83h1.174v7.28c0 .33.048.58.144.745.1.162.225.272.378.328.156.053.32.08.492.08.13 0 .235-.007.318-.02l.199-.04.239 1.054c-.08.03-.191.06-.334.09-.142.033-.323.05-.541.05-.332 0-.657-.072-.975-.215a1.935 1.935 0 0 1-.785-.65c-.206-.292-.309-.66-.309-1.105v-7.596Zm6.816 9.646c-.483 0-.923-.091-1.317-.274a2.26 2.26 0 0 1-.94-.8c-.232-.351-.348-.776-.348-1.273 0-.437.087-.792.259-1.064a1.83 1.83 0 0 1 .69-.646 3.64 3.64 0 0 1 .955-.348c.352-.08.705-.143 1.06-.189.463-.06.84-.104 1.128-.134.292-.033.504-.088.636-.164.136-.076.204-.21.204-.398v-.04c0-.49-.134-.872-.403-1.143-.265-.272-.667-.408-1.208-.408-.56 0-.999.123-1.317.368-.318.245-.542.507-.671.785l-1.114-.397c.199-.464.464-.825.795-1.084a2.98 2.98 0 0 1 1.094-.547c.398-.106.79-.159 1.174-.159.245 0 .526.03.845.09.321.056.631.174.93.352.301.18.551.45.75.81.199.362.298.846.298 1.452v5.032h-1.173v-1.034h-.06a2.1 2.1 0 0 1-.397.532c-.186.189-.433.35-.741.482-.308.133-.684.199-1.129.199Zm.18-1.054c.463 0 .854-.091 1.173-.274a1.862 1.862 0 0 0 .974-1.615v-1.074c-.05.06-.159.114-.328.164a5.523 5.523 0 0 1-.577.124 25.846 25.846 0 0 1-1.123.15c-.305.039-.59.104-.855.193a1.475 1.475 0 0 0-.637.393c-.159.172-.238.407-.238.706 0 .407.15.716.452.925.305.205.691.308 1.158.308Zm8.783-6.762v.995h-3.957v-.995h3.957Zm-2.804-1.83h1.173v7.28c0 .33.048.58.144.745.1.162.226.272.378.328.156.053.32.08.492.08.13 0 .236-.007.319-.02l.198-.04.24 1.054c-.08.03-.191.06-.334.09-.143.033-.323.05-.542.05-.331 0-.656-.072-.974-.215a1.936 1.936 0 0 1-.786-.65c-.205-.292-.308-.66-.308-1.105v-7.596Zm4.569 9.467v-7.637h1.173v7.637h-1.173Zm.596-8.91a.834.834 0 0 1-.591-.233.75.75 0 0 1-.244-.562.75.75 0 0 1 .244-.562.835.835 0 0 1 .591-.233c.23 0 .425.078.587.233a.744.744 0 0 1 .249.562.744.744 0 0 1-.249.562.817.817 0 0 1-.587.234Zm8.135 2.984-1.054.298a1.954 1.954 0 0 0-.293-.512 1.423 1.423 0 0 0-.517-.418c-.219-.11-.499-.164-.84-.164-.468 0-.857.108-1.169.323-.308.212-.462.483-.462.81 0 .292.106.523.318.692.212.169.544.31.995.422l1.133.279c.683.166 1.192.419 1.526.76.335.339.502.774.502 1.308 0 .437-.126.829-.377 1.173-.249.345-.597.617-1.044.816-.448.198-.968.298-1.561.298-.78 0-1.424-.17-1.934-.507-.51-.338-.834-.832-.97-1.482l1.114-.278c.106.41.306.719.601.925.299.205.688.308 1.169.308.547 0 .98-.116 1.302-.348.325-.236.487-.517.487-.845a.888.888 0 0 0-.278-.667c-.186-.182-.47-.318-.855-.407l-1.273-.299c-.7-.165-1.213-.422-1.541-.77-.325-.352-.487-.79-.487-1.318 0-.43.12-.812.363-1.143a2.47 2.47 0 0 1 .999-.78 3.508 3.508 0 0 1 1.442-.284c.755 0 1.349.166 1.78.497.434.332.742.77.924 1.313Zm5.227-1.71v.994h-3.958v-.995h3.958Zm-2.804-1.83h1.173v7.278c0 .332.048.58.144.746.1.162.225.272.378.328.156.053.32.08.492.08.13 0 .235-.007.318-.02l.2-.04.238 1.054c-.08.03-.19.06-.333.09-.143.033-.323.05-.542.05-.332 0-.656-.072-.975-.215a1.935 1.935 0 0 1-.785-.65c-.206-.292-.308-.66-.308-1.105v-7.596Zm4.569 9.466v-7.637h1.173v7.637h-1.174Zm.596-8.91a.834.834 0 0 1-.591-.233.75.75 0 0 1-.244-.562.75.75 0 0 1 .243-.562.834.834 0 0 1 .592-.233c.229 0 .424.078.587.233a.744.744 0 0 1 .248.562.744.744 0 0 1-.248.562.817.817 0 0 1-.587.234Zm5.828 9.069c-.716 0-1.332-.17-1.85-.507a3.306 3.306 0 0 1-1.193-1.397c-.278-.593-.417-1.271-.417-2.034 0-.775.142-1.46.427-2.053a3.379 3.379 0 0 1 1.203-1.397c.518-.338 1.12-.507 1.81-.507.537 0 1.021.1 1.452.298.43.2.784.477 1.059.835.275.358.446.776.512 1.253H84.3c-.09-.348-.289-.656-.597-.924-.305-.272-.716-.408-1.233-.408-.457 0-.858.12-1.203.358-.341.235-.608.568-.8 1-.19.427-.284.929-.284 1.506 0 .59.093 1.103.279 1.54.189.438.454.778.795 1.02.345.242.749.363 1.213.363.305 0 .582-.053.83-.16a1.694 1.694 0 0 0 1-1.172h1.173a2.72 2.72 0 0 1-.492 1.218 2.75 2.75 0 0 1-1.03.855c-.424.209-.918.313-1.48.313Zm10.127-6.085-1.054.298a1.96 1.96 0 0 0-.293-.512 1.424 1.424 0 0 0-.517-.418c-.219-.11-.499-.164-.84-.164-.468 0-.857.108-1.169.323-.308.212-.462.483-.462.81 0 .292.106.523.318.692.212.169.544.31.995.422l1.133.279c.683.166 1.191.419 1.526.76.335.339.502.774.502 1.308 0 .437-.126.829-.377 1.173-.249.345-.597.617-1.044.816-.448.198-.968.298-1.562.298-.778 0-1.423-.17-1.934-.507-.51-.338-.833-.832-.969-1.482l1.114-.278c.106.41.306.719.601.925.299.205.688.308 1.169.308.546 0 .98-.116 1.302-.348.325-.236.487-.517.487-.845a.888.888 0 0 0-.278-.667c-.186-.182-.47-.318-.855-.407l-1.273-.299c-.7-.165-1.213-.422-1.541-.77-.325-.352-.487-.79-.487-1.318 0-.43.12-.812.363-1.143a2.47 2.47 0 0 1 .999-.78 3.507 3.507 0 0 1 1.442-.284c.755 0 1.349.166 1.78.497.434.332.742.77.924 1.313Z"/><path fill="#19213D" d="M35.66 61.26h-3.023l3.926-11.637h3.744l3.926 11.637h-3.022l-2.733-8.705h-.091l-2.728 8.705Zm-.404-4.58h6.318v2.137h-6.318V56.68Zm15.86.813v-4.96h2.774v8.727h-2.648v-1.625h-.091a2.538 2.538 0 0 1-.989 1.273c-.462.31-1.02.465-1.676.465-.594 0-1.117-.136-1.568-.409a2.787 2.787 0 0 1-1.051-1.142c-.25-.492-.377-1.068-.38-1.727v-5.563h2.778v5.018c.003.473.128.846.375 1.119.246.273.581.409 1.005.409.277 0 .525-.06.745-.182.223-.125.4-.305.528-.54.133-.238.199-.526.199-.863Zm7.73 3.892c-.644 0-1.23-.167-1.756-.5-.527-.334-.947-.834-1.262-1.5-.314-.667-.471-1.495-.471-2.483 0-1.027.163-1.871.489-2.534.325-.663.751-1.154 1.278-1.472.53-.318 1.1-.477 1.71-.477.458 0 .85.08 1.176.239.326.155.595.356.807.602.212.246.373.502.483.767h.057v-4.404h2.778V61.26h-2.75v-1.415H61.3c-.117.269-.284.52-.5.756a2.41 2.41 0 0 1-.812.568c-.322.144-.703.216-1.142.216Zm.965-2.165c.338 0 .625-.095.864-.284.239-.193.422-.464.551-.813.129-.348.193-.757.193-1.227 0-.477-.064-.888-.193-1.233-.125-.344-.309-.61-.55-.795a1.365 1.365 0 0 0-.865-.279c-.344 0-.636.095-.875.284-.238.19-.42.457-.545.802-.121.344-.182.751-.182 1.221 0 .47.063.879.188 1.227.125.349.305.62.54.813.238.19.53.284.874.284Zm6.081 2.04v-8.727h2.779v8.727h-2.779Zm1.392-9.745a1.43 1.43 0 0 1-1.005-.386 1.244 1.244 0 0 1-.42-.943c0-.364.14-.674.42-.932.28-.261.615-.392 1.005-.392.394 0 .73.13 1.006.392.28.258.42.568.42.932 0 .367-.14.682-.42.943a1.422 1.422 0 0 1-1.006.386Zm7.235 9.91c-.913 0-1.7-.18-2.364-.54a3.733 3.733 0 0 1-1.523-1.551c-.352-.675-.528-1.476-.528-2.404 0-.901.178-1.69.534-2.363a3.857 3.857 0 0 1 1.506-1.58c.647-.379 1.41-.568 2.29-.568.62 0 1.189.096 1.704.29.515.193.96.479 1.335.858.375.378.667.846.875 1.403.209.553.313 1.188.313 1.903v.694h-7.585v-1.614h5a1.564 1.564 0 0 0-.21-.79 1.428 1.428 0 0 0-.563-.54 1.624 1.624 0 0 0-.813-.198c-.31 0-.589.07-.835.21a1.58 1.58 0 0 0-.813 1.364v1.641a2 2 0 0 0 .21.938c.141.265.34.471.597.62.258.147.565.22.921.22.246 0 .47-.033.67-.101.201-.069.374-.169.517-.302.144-.132.252-.295.324-.488l2.551.074a3.157 3.157 0 0 1-.698 1.494c-.356.42-.824.748-1.404.983-.58.231-1.25.346-2.011.346Zm8.34-5.142v4.977h-2.78v-8.727h2.643v1.602h.097a2.45 2.45 0 0 1 .988-1.256c.466-.307 1.021-.46 1.665-.46.614 0 1.146.138 1.597.415.454.272.806.655 1.056 1.147.254.489.38 1.061.375 1.716v5.563h-2.778v-5.017c.004-.485-.12-.864-.37-1.137-.246-.272-.588-.409-1.028-.409-.291 0-.549.065-.772.193-.22.125-.39.305-.512.54a1.94 1.94 0 0 0-.182.852Zm11.435 5.142c-.92 0-1.71-.19-2.369-.569a3.844 3.844 0 0 1-1.511-1.58c-.353-.677-.529-1.461-.529-2.352 0-.893.176-1.678.529-2.352a3.872 3.872 0 0 1 1.517-1.585c.659-.379 1.445-.568 2.358-.568.806 0 1.51.146 2.108.437a3.35 3.35 0 0 1 1.409 1.239c.34.53.52 1.153.54 1.87h-2.597c-.053-.448-.205-.798-.455-1.052-.246-.254-.568-.38-.965-.38-.322 0-.605.09-.847.272-.242.178-.432.443-.568.796-.133.348-.2.78-.2 1.295 0 .515.067.95.2 1.307.136.352.326.62.568.801.242.178.525.267.847.267a1.308 1.308 0 0 0 1.176-.648 1.93 1.93 0 0 0 .244-.784h2.597c-.027.72-.207 1.349-.54 1.887-.33.538-.794.956-1.392 1.255-.595.296-1.301.444-2.12.444Zm9.553 0c-.913 0-1.701-.18-2.364-.54a3.735 3.735 0 0 1-1.522-1.551c-.353-.675-.529-1.476-.529-2.404 0-.901.178-1.69.534-2.363a3.853 3.853 0 0 1 1.506-1.58c.648-.379 1.411-.568 2.29-.568.621 0 1.189.096 1.704.29.515.193.96.479 1.335.858.375.378.667.846.875 1.403.209.553.313 1.188.313 1.903v.694h-7.585v-1.614h5a1.57 1.57 0 0 0-.21-.79 1.431 1.431 0 0 0-.563-.54 1.625 1.625 0 0 0-.812-.198c-.311 0-.589.07-.836.21a1.574 1.574 0 0 0-.812 1.364v1.641c0 .356.07.669.21.938.14.265.339.471.597.62.257.147.564.22.92.22.246 0 .47-.033.671-.101.2-.069.373-.169.517-.302a1.24 1.24 0 0 0 .323-.488l2.552.074a3.155 3.155 0 0 1-.699 1.494c-.356.42-.824.748-1.404.983-.579.231-1.25.346-2.011.346Z"/><rect width="10" height="10" x="167.262" y="41.26" fill="#4E9FFF" rx="5"/><path fill="#19213D" d="M186.495 41.078h1.471l3.46 8.452h.12l3.46-8.452h1.472V51.26h-1.154v-7.736h-.099l-3.182 7.736h-1.114l-3.181-7.736h-.1v7.736h-1.153V41.078Zm14.543 10.36c-.484 0-.923-.09-1.318-.273a2.262 2.262 0 0 1-.939-.8c-.232-.351-.348-.776-.348-1.273 0-.437.086-.792.258-1.064.173-.275.403-.49.691-.646.289-.156.607-.272.955-.348.351-.08.704-.143 1.059-.189.464-.06.84-.104 1.128-.134.292-.033.504-.088.637-.164.136-.076.204-.21.204-.398v-.04c0-.49-.135-.872-.403-1.143-.265-.272-.668-.408-1.208-.408-.56 0-1 .123-1.318.368-.318.245-.542.507-.671.785l-1.114-.397c.199-.464.464-.825.796-1.084a2.98 2.98 0 0 1 1.094-.547 4.53 4.53 0 0 1 1.173-.159c.245 0 .527.03.845.09a2.7 2.7 0 0 1 .93.352c.301.18.552.45.751.81.198.362.298.846.298 1.452v5.032h-1.173v-1.034h-.06c-.08.165-.212.343-.398.532a2.28 2.28 0 0 1-.741.482c-.308.133-.684.199-1.128.199Zm.179-1.053c.464 0 .855-.091 1.173-.274a1.85 1.85 0 0 0 .726-.706c.166-.288.249-.591.249-.91v-1.073c-.05.06-.16.114-.329.164a5.507 5.507 0 0 1-.576.124 25.956 25.956 0 0 1-1.124.15c-.305.039-.59.104-.855.193a1.47 1.47 0 0 0-.636.393c-.159.172-.239.407-.239.706 0 .407.151.716.452.925.305.205.691.308 1.159.308Zm6.636-9.307V51.26h-1.174V41.078h1.174Zm5.35 10.34c-.735 0-1.37-.161-1.904-.486a3.277 3.277 0 0 1-1.228-1.373c-.285-.59-.427-1.276-.427-2.058 0-.782.142-1.471.427-2.068.289-.6.69-1.067 1.203-1.402.517-.338 1.121-.507 1.81-.507.398 0 .79.066 1.178.199.388.132.741.348 1.059.646.318.295.572.686.761 1.173.189.488.283 1.088.283 1.8v.497h-5.886v-1.014h4.693c0-.43-.086-.815-.258-1.153a1.954 1.954 0 0 0-.726-.8c-.312-.196-.68-.294-1.104-.294-.467 0-.872.116-1.213.348a2.296 2.296 0 0 0-.781.895 2.633 2.633 0 0 0-.273 1.183v.676c0 .577.099 1.066.298 1.467.202.398.482.7.84.91.358.205.774.308 1.248.308.309 0 .587-.043.836-.13.251-.089.469-.221.651-.397.182-.18.323-.401.422-.666l1.134.318c-.119.384-.32.722-.602 1.014a2.92 2.92 0 0 1-1.044.676 3.87 3.87 0 0 1-1.397.239Z"/><rect width="10" height="10" x="241.262" y="41.26" fill="#FAC6D0" rx="5"/><path fill="#19213D" d="M260.495 51.26V41.078h6.105v1.094h-4.872v3.44h4.414v1.094h-4.414v4.554h-1.233Zm10.699.159c-.736 0-1.371-.162-1.905-.487a3.277 3.277 0 0 1-1.228-1.373c-.285-.59-.427-1.276-.427-2.058 0-.782.142-1.471.427-2.068.289-.6.69-1.067 1.204-1.402.517-.338 1.12-.507 1.809-.507.398 0 .791.066 1.178.199.388.132.741.348 1.059.646.319.295.572.686.761 1.173.189.488.283 1.088.283 1.8v.497h-5.886v-1.014h4.693c0-.43-.086-.815-.258-1.153a1.947 1.947 0 0 0-.726-.8c-.312-.196-.68-.294-1.104-.294-.467 0-.871.116-1.213.348a2.286 2.286 0 0 0-.78.895 2.62 2.62 0 0 0-.274 1.183v.676c0 .577.1 1.066.298 1.467.203.398.483.7.841.91.358.205.774.308 1.248.308.308 0 .586-.043.835-.13a1.77 1.77 0 0 0 .651-.397 1.82 1.82 0 0 0 .423-.666l1.133.318c-.119.384-.32.722-.601 1.014-.282.288-.63.514-1.044.676-.415.16-.88.239-1.397.239Zm4.946-.16v-7.636h1.134v1.194h.099c.159-.408.416-.725.771-.95.354-.229.78-.343 1.278-.343.503 0 .923.114 1.257.343.338.225.602.542.791.95h.079c.196-.395.489-.708.88-.94.391-.235.86-.353 1.407-.353.683 0 1.242.214 1.676.641.434.425.651 1.086.651 1.984v5.11h-1.173v-5.11c0-.563-.154-.966-.463-1.208a1.71 1.71 0 0 0-1.088-.363c-.537 0-.953.162-1.248.487-.295.322-.443.73-.443 1.223v4.972h-1.193v-5.23c0-.434-.141-.784-.423-1.05-.281-.268-.644-.402-1.088-.402-.305 0-.59.081-.855.244a1.844 1.844 0 0 0-.637.676 1.997 1.997 0 0 0-.238.989v4.773h-1.174Zm14.415.18a3.1 3.1 0 0 1-1.317-.274 2.264 2.264 0 0 1-.94-.8c-.232-.351-.348-.776-.348-1.273 0-.437.086-.792.259-1.064.172-.275.403-.49.691-.646.288-.156.606-.272.954-.348.352-.08.705-.143 1.059-.189.464-.06.841-.104 1.129-.134.292-.033.504-.088.636-.164.136-.076.204-.21.204-.398v-.04c0-.49-.134-.872-.403-1.143-.265-.272-.667-.408-1.208-.408-.56 0-.999.123-1.317.368-.318.245-.542.507-.671.785l-1.114-.397c.199-.464.464-.825.795-1.084.335-.262.7-.444 1.094-.547a4.547 4.547 0 0 1 1.174-.159c.245 0 .527.03.845.09.321.056.631.174.929.352.302.18.552.45.751.81.199.362.298.846.298 1.452v5.032h-1.173v-1.034h-.06a2.062 2.062 0 0 1-.397.532c-.186.189-.433.35-.741.482-.308.133-.684.199-1.129.199Zm.179-1.054c.464 0 .855-.091 1.174-.274a1.87 1.87 0 0 0 .726-.706c.165-.288.248-.591.248-.91v-1.073c-.05.06-.159.114-.328.164a5.53 5.53 0 0 1-.577.124 25.888 25.888 0 0 1-1.123.15c-.305.039-.59.104-.855.193a1.48 1.48 0 0 0-.637.393c-.159.172-.238.407-.238.706 0 .407.15.716.452.925.305.205.691.308 1.158.308Zm6.636-9.307V51.26h-1.173V41.078h1.173Zm5.351 10.34c-.736 0-1.371-.161-1.904-.486a3.263 3.263 0 0 1-1.228-1.373c-.285-.59-.428-1.276-.428-2.058 0-.782.143-1.471.428-2.068.288-.6.689-1.067 1.203-1.402.517-.338 1.12-.507 1.81-.507.397 0 .79.066 1.178.199.388.132.741.348 1.059.646.318.295.572.686.76 1.173.189.488.284 1.088.284 1.8v.497h-5.887v-1.014h4.694c0-.43-.087-.815-.259-1.153a1.947 1.947 0 0 0-.726-.8c-.311-.196-.679-.294-1.103-.294-.468 0-.872.116-1.214.348a2.286 2.286 0 0 0-.78.895 2.633 2.633 0 0 0-.273 1.183v.676c0 .577.099 1.066.298 1.467.202.398.482.7.84.91.358.205.774.308 1.248.308.308 0 .587-.043.835-.13a1.77 1.77 0 0 0 .651-.397c.183-.18.324-.401.423-.666l1.133.318a2.506 2.506 0 0 1-.601 1.014c-.282.288-.63.514-1.044.676a3.87 3.87 0 0 1-1.397.239ZM37.453 96.47v-.87l3.835-6.067h.631v1.346h-.426l-2.898 4.585v.069h5.165v.937h-6.307Zm4.108 1.79v-8.728h1.006v8.728H41.56Zm4.43 0v-8.728h1.056v4.33h.103l3.92-4.33h1.38l-3.664 3.938 3.665 4.79h-1.279l-3.034-4.057-1.09 1.227v2.83H45.99Z"/><path stroke="#E1E4ED" stroke-dasharray="4 7" stroke-linecap="round" d="M60.762 93.76h247"/><path fill="#19213D" d="M40.665 143.879c-.562 0-1.064-.097-1.504-.29a2.573 2.573 0 0 1-1.044-.805 2.169 2.169 0 0 1-.418-1.206h1.074c.023.281.12.524.29.729.17.201.393.358.669.468.276.111.581.167.916.167.375 0 .708-.066.997-.196.29-.131.517-.313.682-.546.165-.233.247-.503.247-.81 0-.321-.08-.603-.238-.848a1.578 1.578 0 0 0-.7-.579c-.306-.139-.681-.209-1.124-.209h-.699v-.937h.699c.346 0 .65-.063.912-.188.264-.125.47-.301.618-.528a1.42 1.42 0 0 0 .225-.801c0-.296-.065-.553-.196-.772a1.337 1.337 0 0 0-.553-.511 1.795 1.795 0 0 0-.836-.183 2.2 2.2 0 0 0-.852.166c-.264.108-.48.265-.648.473a1.23 1.23 0 0 0-.272.741h-1.023c.017-.457.155-.858.413-1.201a2.598 2.598 0 0 1 1.014-.81 3.28 3.28 0 0 1 1.385-.29c.54 0 1.003.11 1.39.328.386.216.683.502.89.857.208.355.311.738.311 1.15 0 .492-.129.911-.387 1.258a1.97 1.97 0 0 1-1.045.72v.068c.552.091.982.325 1.292.703.31.375.464.839.464 1.393 0 .475-.13.901-.388 1.279a2.63 2.63 0 0 1-1.048.886c-.443.216-.947.324-1.513.324Zm5.325-.119v-8.728h1.057v4.33h.103l3.92-4.33h1.38l-3.664 3.938 3.665 4.79h-1.279l-3.034-4.057-1.09 1.227v2.83H45.99Z"/><path stroke="#E1E4ED" stroke-dasharray="4 7" stroke-linecap="round" d="M60.762 139.26h247"/><path fill="#19213D" d="M38.091 189.26v-.767l2.881-3.154c.338-.369.617-.69.835-.963.219-.275.381-.534.486-.775.108-.245.162-.5.162-.767 0-.307-.074-.573-.222-.797a1.433 1.433 0 0 0-.596-.52 1.936 1.936 0 0 0-.852-.183c-.336 0-.628.069-.878.208a1.445 1.445 0 0 0-.576.576c-.133.247-.2.537-.2.869h-1.005c0-.511.117-.96.353-1.347a2.46 2.46 0 0 1 .963-.903c.41-.216.868-.324 1.377-.324.511 0 .964.108 1.359.324.395.216.705.507.929.874.224.366.337.774.337 1.223 0 .321-.059.635-.175.941-.114.304-.313.644-.597 1.019-.28.372-.671.827-1.171 1.363l-1.96 2.097v.068h4.056v.938h-5.506Zm7.9 0v-8.728h1.056v4.33h.103l3.92-4.33h1.38l-3.664 3.938 3.665 4.79h-1.279l-3.034-4.057-1.09 1.227v2.83H45.99Z"/><path stroke="#E1E4ED" stroke-dasharray="4 7" stroke-linecap="round" d="M60.762 184.76h247"/><path fill="#19213D" d="M42.847 226.032v8.728H41.79v-7.62h-.05l-2.132 1.415v-1.074l2.182-1.449h1.057Zm3.143 8.728v-8.728h1.057v4.33h.103l3.92-4.33h1.38l-3.664 3.938 3.665 4.79h-1.279l-3.034-4.057-1.09 1.227v2.83H45.99Z"/><path stroke="#E1E4ED" stroke-dasharray="4 7" stroke-linecap="round" d="M60.762 230.26h247"/><path fill="#19213D" d="M49.012 276.379c-.642 0-1.19-.175-1.64-.524-.453-.352-.798-.862-1.036-1.53-.24-.67-.358-1.48-.358-2.429 0-.943.119-1.748.358-2.416.241-.671.588-1.182 1.04-1.534.454-.355 1-.533 1.636-.533.636 0 1.18.178 1.632.533.454.352.801.863 1.04 1.534.241.668.362 1.473.362 2.416 0 .949-.12 1.759-.358 2.429-.239.668-.584 1.178-1.036 1.53-.451.349-.998.524-1.64.524Zm0-.937c.636 0 1.13-.307 1.483-.921.352-.614.528-1.489.528-2.625 0-.756-.08-1.399-.243-1.93-.159-.532-.389-.936-.69-1.215a1.525 1.525 0 0 0-1.078-.417c-.631 0-1.124.311-1.479.933-.355.619-.533 1.496-.533 2.629 0 .756.08 1.398.239 1.926.16.529.388.931.686 1.206.301.276.663.414 1.087.414Z"/><path stroke="#E1E4ED" stroke-linecap="round" d="M60.762 271.76h247m-247-177.5v177"/><path fill="#19213D" d="M61.819 287.532h1.26l2.967 7.245h.102l2.966-7.245h1.261v8.728h-.988v-6.631h-.085l-2.728 6.631h-.954l-2.728-6.631h-.085v6.631h-.989v-8.728Zm18.519 4.364c0 .921-.166 1.716-.499 2.386-.332.671-.788 1.188-1.367 1.552-.58.363-1.242.545-1.986.545-.745 0-1.407-.182-1.986-.545-.58-.364-1.036-.881-1.368-1.552-.332-.67-.499-1.465-.499-2.386 0-.92.167-1.716.499-2.386.332-.671.788-1.188 1.368-1.551.58-.364 1.241-.546 1.986-.546.744 0 1.406.182 1.986.546.579.363 1.035.88 1.367 1.551.333.67.499 1.466.499 2.386Zm-1.023 0c0-.756-.126-1.393-.379-1.913-.25-.52-.59-.914-1.019-1.181a2.64 2.64 0 0 0-1.431-.4 2.66 2.66 0 0 0-1.436.4c-.426.267-.766.661-1.019 1.181-.25.52-.375 1.157-.375 1.913s.125 1.394.375 1.913c.253.52.593.914 1.019 1.181.429.267.907.4 1.436.4a2.64 2.64 0 0 0 1.431-.4c.43-.267.769-.661 1.019-1.181.253-.519.38-1.157.38-1.913Zm10.2-4.364v8.728h-1.022l-4.756-6.853h-.085v6.853h-1.057v-8.728h1.023l4.772 6.87h.086v-6.87h1.04Z"/><path stroke="#E1E4ED" stroke-dasharray="4 7" stroke-linecap="round" d="M184.262 94.26v177"/><path fill="#19213D" d="M171.623 288.47v-.938h6.545v.938h-2.744v7.79h-1.057v-7.79h-2.744Zm8.656 7.79v-8.728h1.057v3.887h4.654v-3.887h1.057v8.728h-1.057v-3.904h-4.654v3.904h-1.057Zm15.091-8.728h1.056v5.779c0 .596-.14 1.129-.421 1.598a2.957 2.957 0 0 1-1.181 1.104c-.508.267-1.105.4-1.79.4-.684 0-1.281-.133-1.789-.4a2.981 2.981 0 0 1-1.185-1.104 3.066 3.066 0 0 1-.418-1.598v-5.779h1.057v5.694c0 .426.094.805.281 1.137.188.33.455.59.801.78.35.188.768.282 1.253.282.486 0 .904-.094 1.253-.282.35-.19.617-.45.801-.78.188-.332.282-.711.282-1.137v-5.694Z"/><path stroke="#E1E4ED" stroke-dasharray="4 7" stroke-linecap="round" d="M307.762 94.26v177"/><path fill="#19213D" d="M287.049 289.714a1.334 1.334 0 0 0-.622-1.005c-.364-.239-.81-.358-1.338-.358-.386 0-.724.062-1.014.187a1.611 1.611 0 0 0-.673.516 1.23 1.23 0 0 0-.239.746c0 .232.055.433.166.6.114.165.259.303.435.414.176.108.361.197.554.268.193.068.37.124.532.166l.887.239c.227.06.48.142.758.247.282.105.55.249.806.431.258.179.471.409.639.69.167.281.251.626.251 1.035a2.3 2.3 0 0 1-.37 1.279c-.245.381-.603.683-1.074.908-.469.224-1.039.336-1.709.336-.625 0-1.166-.101-1.624-.302a2.596 2.596 0 0 1-1.074-.844 2.411 2.411 0 0 1-.438-1.257h1.09c.029.329.14.602.333.818a1.8 1.8 0 0 0 .741.477c.301.102.625.154.972.154a2.88 2.88 0 0 0 1.087-.196 1.87 1.87 0 0 0 .762-.554c.188-.239.282-.517.282-.836 0-.289-.081-.525-.243-.707a1.769 1.769 0 0 0-.64-.443 6.598 6.598 0 0 0-.856-.298l-1.074-.307c-.682-.196-1.222-.476-1.619-.84-.398-.363-.597-.839-.597-1.427 0-.489.132-.915.396-1.279.267-.366.625-.65 1.074-.852a3.62 3.62 0 0 1 1.513-.307c.563 0 1.063.101 1.5.303a2.59 2.59 0 0 1 1.04.818c.258.347.395.74.409 1.18h-1.023Zm9.087-2.182h1.057v5.779a3.05 3.05 0 0 1-.422 1.598 2.954 2.954 0 0 1-1.18 1.104c-.509.267-1.105.4-1.79.4s-1.281-.133-1.79-.4a2.995 2.995 0 0 1-1.185-1.104 3.075 3.075 0 0 1-.417-1.598v-5.779h1.057v5.694c0 .426.093.805.281 1.137.187.33.454.59.801.78.349.188.767.282 1.253.282.486 0 .903-.094 1.253-.282.349-.19.616-.45.801-.78.187-.332.281-.711.281-1.137v-5.694Zm10.568 0v8.728h-1.023l-4.756-6.853h-.085v6.853h-1.057v-8.728h1.023l4.773 6.87h.085v-6.87h1.04Z"/><path fill="url(#b)" d="M134.337 128.193c-35.433-2.29-42.593 129.028-73.575 120.033v23.076h246v-87.329c-20.219 18.289-34.822 27.686-55.603-13.259-10.907-21.489-23.799-22.651-51.11 6.858-30.89 33.377-30.328-47.093-65.712-49.379Z"/><path stroke="#FAC6D0" stroke-linecap="round" stroke-width="3" d="M60.762 248.226c30.982 8.995 38.142-122.323 73.575-120.033 35.384 2.286 34.822 82.756 65.712 49.379 27.311-29.509 40.203-28.347 51.11-6.858 20.781 40.945 35.384 31.548 55.603 13.26"/><path fill="url(#c)" d="M103.447 211.585c-10.612 12.941-34.043 10.947-42.685 14.304v44.956h246v-12.603c-27.736 0-37.242-44.78-51.11-44.78-13.868 0-21.342 28.258-44.37 26.278-21.342-1.834-34.062-26.493-53.356-51.216-19.294-24.722-41.215 6.884-54.479 23.061Z"/><path stroke="#4E9FFF" stroke-linecap="round" stroke-width="3" d="M60.762 226.311c8.642-3.388 32.073-1.375 42.685-14.434 13.264-16.323 35.185-48.217 54.479-23.27 19.294 24.947 32.014 49.829 53.356 51.68 23.028 1.998 30.502-26.516 44.37-26.516 13.868 0 23.374 45.187 51.11 45.187"/></g><defs><linearGradient id="b" x1="183.762" x2="183.762" y1="128.163" y2="271.302" gradientUnits="userSpaceOnUse"><stop stop-color="#FFECEF"/><stop offset=".934" stop-color="#FFECEF" stop-opacity="0"/></linearGradient><linearGradient id="c" x1="183.762" x2="183.762" y1="180.898" y2="270.845" gradientUnits="userSpaceOnUse"><stop stop-color="#8DC1FF"/><stop offset=".9" stop-color="#8DC1FF" stop-opacity="0"/></linearGradient><filter id="a" width="339" height="329" x=".262" y=".26" color-interpolation-filters="sRGB" filterUnits="userSpaceOnUse"><feFlood flood-opacity="0" result="BackgroundImageFix"/><feColorMatrix in="SourceAlpha" result="hardAlpha" values="0 0 0 0 0 0 0 0 0 0 0 0 0 0 0 0 0 0 127 0"/><feOffset dy="1"/><feGaussianBlur stdDeviation="2"/><feComposite in2="hardAlpha" operator="out"/><feColorMatrix values="0 0 0 0 0.0969792 0 0 0 0 0.127894 0 0 0 0 0.2375 0 0 0 0.08 0"/><feBlend in2="BackgroundImageFix" result="effect1_dropShadow_6477_23225"/><feBlend in="SourceGraphic" in2="effect1_dropShadow_6477_23225" result="shape"/></filter></defs></svg>