<svg xmlns="http://www.w3.org/2000/svg" width="340" height="330" fill="none"><g filter="url(#a)"><rect width="331" height="321" x="4.762" y="3.445" fill="#fff" rx="24" shape-rendering="crispEdges"/><rect width="330" height="320" x="5.262" y="3.945" stroke="#F1F3F7" rx="23.5" shape-rendering="crispEdges"/><path fill="#6D758F" d="M43.573 38.004a1.56 1.56 0 0 0-.726-1.173c-.425-.278-.945-.418-1.561-.418-.451 0-.846.073-1.184.22a1.89 1.89 0 0 0-.785.6 1.442 1.442 0 0 0-.279.87c0 .273.065.506.194.702.133.192.302.353.508.482.205.126.42.23.646.313.225.08.432.144.621.194l1.034.278c.266.07.56.166.885.289.328.122.642.29.94.502.302.209.55.477.746.805.195.328.293.731.293 1.208a2.68 2.68 0 0 1-.433 1.492c-.285.444-.702.797-1.252 1.059-.547.262-1.212.393-1.994.393-.73 0-1.36-.118-1.894-.353-.53-.236-.948-.564-1.253-.985a2.809 2.809 0 0 1-.512-1.466h1.273c.033.384.162.702.387.954a2.1 2.1 0 0 0 .866.557c.35.12.729.179 1.133.179.47 0 .893-.076 1.268-.229.374-.155.671-.37.89-.646.218-.278.328-.603.328-.975 0-.337-.095-.613-.284-.825a2.08 2.08 0 0 0-.745-.517 7.823 7.823 0 0 0-1-.348l-1.252-.358c-.796-.228-1.426-.555-1.89-.98-.464-.423-.696-.979-.696-1.665 0-.57.154-1.067.463-1.491a3.07 3.07 0 0 1 1.252-.994 4.23 4.23 0 0 1 1.765-.358c.657 0 1.24.117 1.75.353.51.232.915.55 1.213.954.302.404.461.863.478 1.377h-1.193Zm6.521 0V39h-3.957v-.995h3.957Zm-2.804-1.83h1.173v7.28c0 .33.048.58.145.745a.746.746 0 0 0 .377.328c.156.053.32.08.493.08.129 0 .235-.007.318-.02l.199-.04.238 1.054a2.517 2.517 0 0 1-.875.14c-.331 0-.656-.072-.974-.215a1.935 1.935 0 0 1-.786-.651c-.205-.292-.308-.66-.308-1.104v-7.596Zm6.816 9.646c-.484 0-.923-.092-1.317-.274a2.26 2.26 0 0 1-.94-.8c-.232-.352-.348-.776-.348-1.273 0-.438.086-.792.259-1.064.172-.275.402-.49.69-.646.289-.156.607-.272.955-.348a11.6 11.6 0 0 1 1.06-.19c.463-.059.84-.104 1.128-.133.291-.033.503-.088.636-.164.136-.077.204-.21.204-.398v-.04c0-.49-.134-.872-.403-1.143-.265-.272-.668-.408-1.208-.408-.56 0-1 .123-1.317.368-.319.245-.542.507-.672.785l-1.113-.397c.199-.464.464-.826.795-1.084.335-.262.7-.444 1.094-.547.398-.106.789-.16 1.173-.16.246 0 .527.03.846.09.321.057.63.174.93.353.3.18.551.45.75.81.199.362.298.846.298 1.452v5.032h-1.173v-1.035h-.06c-.08.166-.212.344-.398.532-.185.19-.432.35-.74.483-.309.132-.685.199-1.129.199Zm.18-1.054c.463 0 .854-.091 1.172-.274a1.862 1.862 0 0 0 .975-1.616v-1.073c-.05.06-.16.114-.328.164a5.527 5.527 0 0 1-.577.124 25.915 25.915 0 0 1-1.123.15c-.305.039-.59.103-.856.193a1.474 1.474 0 0 0-.636.393c-.16.172-.239.407-.239.706 0 .407.151.716.453.924.305.206.69.309 1.158.309Zm8.783-6.762V39H59.11v-.995h3.958Zm-2.804-1.83h1.173v7.28c0 .33.048.58.144.745.1.162.226.272.378.328.156.053.32.08.492.08.13 0 .236-.007.318-.02l.2-.04.238 1.054a2.524 2.524 0 0 1-.875.14c-.331 0-.656-.072-.974-.215a1.935 1.935 0 0 1-.786-.651c-.206-.292-.308-.66-.308-1.104v-7.596Zm4.569 9.467v-7.637h1.173v7.637h-1.173Zm.596-8.91a.834.834 0 0 1-.591-.233.75.75 0 0 1-.244-.562.75.75 0 0 1 .244-.562.834.834 0 0 1 .591-.233c.229 0 .424.078.587.233a.744.744 0 0 1 .248.562.744.744 0 0 1-.248.562.817.817 0 0 1-.587.233Zm8.135 2.983-1.054.299a1.959 1.959 0 0 0-.293-.512 1.424 1.424 0 0 0-.517-.418c-.22-.11-.5-.164-.84-.164-.468 0-.857.108-1.169.323-.308.212-.462.482-.462.81 0 .292.106.523.318.692.212.169.543.31.994.422l1.134.279c.683.165 1.191.419 1.526.76.335.338.502.774.502 1.308 0 .437-.126.828-.378 1.173-.248.345-.596.617-1.044.815-.447.2-.968.299-1.56.299-.78 0-1.424-.17-1.935-.507-.51-.338-.833-.832-.97-1.482l1.115-.278c.105.41.306.719.601.924.298.206.688.309 1.168.309.547 0 .981-.116 1.303-.348.325-.236.487-.517.487-.846a.888.888 0 0 0-.278-.666c-.186-.182-.47-.318-.855-.407l-1.273-.299c-.7-.165-1.213-.422-1.541-.77-.325-.352-.487-.79-.487-1.318 0-.43.12-.812.362-1.143a2.47 2.47 0 0 1 1-.78 3.509 3.509 0 0 1 1.441-.284c.756 0 1.35.166 1.78.497.434.331.743.769.925 1.313Zm5.226-1.71V39h-3.957v-.995h3.957Zm-2.804-1.83h1.174v7.28c0 .33.048.58.144.745.1.162.225.272.378.328.155.053.32.08.492.08.13 0 .235-.007.318-.02l.199-.04.239 1.054a2.514 2.514 0 0 1-.875.14c-.332 0-.657-.072-.975-.215a1.936 1.936 0 0 1-.785-.651c-.206-.292-.309-.66-.309-1.104v-7.596Zm4.57 9.467v-7.637h1.173v7.637h-1.174Zm.596-8.91a.834.834 0 0 1-.592-.233.75.75 0 0 1-.243-.562.75.75 0 0 1 .243-.562.834.834 0 0 1 .592-.233c.229 0 .424.078.587.233a.744.744 0 0 1 .248.562.744.744 0 0 1-.248.562.817.817 0 0 1-.587.233ZM86.98 45.8c-.716 0-1.333-.17-1.85-.507a3.304 3.304 0 0 1-1.193-1.397c-.278-.594-.417-1.272-.417-2.034 0-.775.142-1.46.427-2.053a3.379 3.379 0 0 1 1.203-1.397c.517-.338 1.12-.507 1.81-.507.537 0 1.02.1 1.452.298.43.199.784.477 1.059.835.275.358.445.776.512 1.253H88.81a1.82 1.82 0 0 0-.596-.924c-.305-.272-.716-.408-1.233-.408-.458 0-.859.12-1.203.358-.342.235-.609.568-.8 1-.19.427-.284.929-.284 1.505 0 .59.093 1.104.278 1.542.19.437.454.777.796 1.019.344.242.749.363 1.213.363.305 0 .582-.053.83-.16.249-.105.46-.258.631-.457.173-.199.296-.437.368-.716h1.174c-.067.451-.23.857-.492 1.218a2.75 2.75 0 0 1-1.03.855c-.424.21-.918.314-1.481.314Zm10.127-6.085-1.054.298a1.959 1.959 0 0 0-.293-.512 1.424 1.424 0 0 0-.517-.418c-.22-.11-.5-.164-.84-.164-.468 0-.857.108-1.169.323-.308.212-.462.482-.462.81 0 .292.106.523.318.692.212.169.544.31.994.422l1.134.279c.683.165 1.191.419 1.526.76.335.338.502.774.502 1.308 0 .437-.126.828-.378 1.173-.248.345-.596.617-1.044.815-.447.2-.968.299-1.56.299-.78 0-1.424-.17-1.935-.507-.51-.338-.833-.832-.97-1.482l1.114-.278c.106.41.307.719.602.924.298.206.688.309 1.168.309.547 0 .981-.116 1.303-.348.325-.236.487-.517.487-.846a.888.888 0 0 0-.278-.666c-.186-.182-.471-.318-.855-.407l-1.273-.299c-.7-.165-1.213-.422-1.541-.77-.325-.352-.488-.79-.488-1.318 0-.43.121-.812.363-1.143a2.47 2.47 0 0 1 1-.78 3.51 3.51 0 0 1 1.441-.284c.756 0 1.35.166 1.78.497.434.331.743.769.925 1.313Z"/><path fill="#19213D" d="M44.692 54.004h2.807v7.506c0 .867-.207 1.623-.62 2.267-.412.64-.988 1.136-1.727 1.489-.739.348-1.596.522-2.574.522-.988 0-1.852-.174-2.59-.522-.74-.353-1.313-.849-1.722-1.489-.41-.644-.614-1.4-.614-2.267v-7.506h2.813v7.262c0 .401.087.76.261 1.074.178.314.426.56.744.738a2.23 2.23 0 0 0 1.108.267c.42 0 .788-.089 1.103-.267a1.91 1.91 0 0 0 .744-.739c.178-.314.267-.672.267-1.073v-7.262Zm12.189 5.574-2.551.068a.951.951 0 0 0-.216-.483 1.161 1.161 0 0 0-.46-.335 1.569 1.569 0 0 0-.648-.125c-.322 0-.597.064-.824.193-.224.13-.333.303-.33.523a.558.558 0 0 0 .205.443c.144.125.4.226.767.301l1.682.319c.871.166 1.519.443 1.943.83.428.385.644.897.648 1.533a2.463 2.463 0 0 1-.534 1.563c-.349.443-.826.787-1.432 1.034-.606.242-1.3.363-2.08.363-1.246 0-2.229-.255-2.949-.767-.715-.515-1.124-1.204-1.227-2.068l2.745-.068c.06.318.217.56.471.727.254.167.578.25.972.25.356 0 .645-.066.869-.199.224-.132.337-.308.34-.528a.56.56 0 0 0-.26-.472c-.17-.12-.438-.215-.802-.284l-1.522-.29c-.875-.159-1.527-.452-1.955-.88-.428-.432-.64-.981-.636-1.648-.004-.583.151-1.081.466-1.494.314-.417.761-.735 1.34-.955.58-.22 1.264-.33 2.052-.33 1.181 0 2.113.249 2.795.745.682.492 1.059 1.17 1.13 2.034Zm5.663 6.227c-.913 0-1.7-.18-2.363-.54a3.734 3.734 0 0 1-1.523-1.55c-.352-.675-.529-1.476-.529-2.404 0-.901.178-1.69.535-2.364a3.857 3.857 0 0 1 1.505-1.58c.648-.378 1.411-.567 2.29-.567.621 0 1.19.096 1.704.29.516.193.96.479 1.336.857.375.38.666.847.875 1.404.208.553.312 1.187.312 1.903v.693h-7.585v-1.613h5a1.565 1.565 0 0 0-.21-.79 1.428 1.428 0 0 0-.563-.54 1.624 1.624 0 0 0-.812-.199c-.31 0-.59.07-.835.21a1.582 1.582 0 0 0-.813 1.364v1.642a2 2 0 0 0 .21.938c.14.265.34.471.597.62.258.147.564.22.92.22.247 0 .47-.033.67-.102a1.43 1.43 0 0 0 .518-.3c.144-.133.252-.296.324-.49l2.55.075a3.156 3.156 0 0 1-.698 1.494c-.356.42-.824.748-1.403.983-.58.23-1.25.346-2.012.346Zm5.561-.164v-8.728h2.7v1.591h.09c.16-.575.419-1.003.779-1.284.36-.284.778-.426 1.255-.426.129 0 .261.01.398.028.136.016.263.04.38.074v2.415a2.654 2.654 0 0 0-.522-.108 4.633 4.633 0 0 0-.568-.04c-.33 0-.627.074-.892.222a1.592 1.592 0 0 0-.62.608c-.147.258-.221.56-.221.909v4.739h-2.779Zm14.354-6.063-2.551.068a.95.95 0 0 0-.216-.483 1.161 1.161 0 0 0-.46-.335 1.569 1.569 0 0 0-.648-.125c-.322 0-.597.064-.824.193-.223.13-.333.303-.33.523a.558.558 0 0 0 .205.443c.144.125.4.226.767.301l1.682.319c.871.166 1.519.443 1.943.83.428.385.644.897.648 1.533a2.463 2.463 0 0 1-.534 1.563c-.349.443-.826.787-1.432 1.034-.606.242-1.3.363-2.08.363-1.246 0-2.229-.255-2.948-.767-.716-.515-1.125-1.204-1.228-2.068l2.745-.068c.06.318.217.56.471.727.254.167.578.25.972.25.356 0 .646-.066.87-.199.223-.132.336-.308.34-.528a.56.56 0 0 0-.261-.472c-.17-.12-.438-.215-.802-.284l-1.522-.29c-.875-.159-1.527-.452-1.955-.88-.428-.432-.64-.981-.636-1.648-.004-.583.151-1.081.466-1.494.314-.417.761-.735 1.34-.955.58-.22 1.264-.33 2.052-.33 1.182 0 2.114.249 2.795.745.682.492 1.059 1.17 1.131 2.034Zm5.021 6.063V54.004h2.779v4.404h.056a3.05 3.05 0 0 1 .484-.767c.212-.247.48-.447.806-.603.33-.159.724-.238 1.182-.238a3.23 3.23 0 0 1 1.699.477c.53.318.958.809 1.284 1.472.326.662.489 1.507.489 2.534 0 .988-.157 1.816-.472 2.483-.31.666-.731 1.166-1.261 1.5a3.22 3.22 0 0 1-1.756.5c-.44 0-.82-.072-1.142-.216a2.484 2.484 0 0 1-.813-.569 2.728 2.728 0 0 1-.5-.755h-.085v1.415h-2.75Zm2.722-4.364c0 .47.062.879.187 1.227.13.349.313.62.552.813.242.19.532.284.869.284.34 0 .63-.095.87-.284.238-.193.418-.464.539-.813.125-.348.187-.757.187-1.227 0-.47-.062-.877-.187-1.222-.121-.344-.301-.611-.54-.8-.235-.19-.525-.285-.87-.285-.34 0-.63.093-.868.279-.24.185-.423.45-.552.795-.125.345-.187.756-.187 1.233Zm8.93 7.636a5.34 5.34 0 0 1-.943-.08 3.805 3.805 0 0 1-.761-.198l.613-2.017c.273.09.52.144.739.159.224.015.415-.02.574-.108.163-.083.288-.233.375-.449l.108-.261-3.102-9.046h2.909l1.608 6.228h.091l1.63-6.228h2.926l-3.289 9.563c-.16.477-.385.898-.677 1.261a2.933 2.933 0 0 1-1.119.864c-.454.208-1.015.312-1.682.312Zm15.344-3.108c-.92 0-1.71-.189-2.369-.568a3.846 3.846 0 0 1-1.512-1.58c-.352-.677-.528-1.461-.528-2.352 0-.894.176-1.678.528-2.352a3.874 3.874 0 0 1 1.517-1.585c.659-.379 1.445-.568 2.358-.568.807 0 1.51.146 2.108.437a3.346 3.346 0 0 1 1.409 1.239c.341.53.521 1.153.54 1.87h-2.596c-.053-.448-.205-.798-.455-1.052-.246-.254-.568-.38-.966-.38-.322 0-.604.09-.846.272-.243.178-.432.443-.569.795-.132.349-.199.78-.199 1.296 0 .515.067.95.199 1.307.137.352.326.62.569.8.242.179.524.268.846.268a1.306 1.306 0 0 0 1.176-.648 1.94 1.94 0 0 0 .245-.784h2.596c-.026.72-.206 1.349-.54 1.886a3.338 3.338 0 0 1-1.392 1.256c-.594.296-1.301.443-2.119.443Zm9.547 0c-.917 0-1.705-.187-2.364-.562a3.883 3.883 0 0 1-1.517-1.58c-.352-.678-.528-1.464-.528-2.358 0-.897.176-1.683.528-2.358a3.837 3.837 0 0 1 1.517-1.58c.659-.378 1.447-.567 2.364-.567.917 0 1.703.19 2.358.568a3.788 3.788 0 0 1 1.517 1.58c.356.674.534 1.46.534 2.357 0 .894-.178 1.68-.534 2.358a3.832 3.832 0 0 1-1.517 1.58c-.655.375-1.441.562-2.358.562Zm.017-2.096c.333 0 .615-.103.847-.307.231-.205.407-.489.528-.852a3.88 3.88 0 0 0 .187-1.262c0-.484-.062-.909-.187-1.272-.121-.364-.297-.648-.528-.853a1.235 1.235 0 0 0-.847-.306 1.3 1.3 0 0 0-.875.306c-.235.205-.415.489-.54.853a4.035 4.035 0 0 0-.182 1.272c0 .478.061.898.182 1.262.125.363.305.647.54.852.239.204.53.307.875.307Zm11.446-1.835v-4.96h2.773v8.727h-2.648v-1.625h-.091a2.537 2.537 0 0 1-.989 1.272c-.462.311-1.02.466-1.676.466-.594 0-1.117-.136-1.568-.409a2.785 2.785 0 0 1-1.051-1.142c-.25-.492-.377-1.068-.381-1.727v-5.563h2.779v5.017c.003.474.128.847.375 1.12.246.272.581.409 1.005.409.277 0 .525-.06.745-.182.223-.125.399-.305.528-.54.133-.238.199-.526.199-.863Zm7.32-1.21v4.977h-2.779v-8.728h2.642v1.603h.097a2.45 2.45 0 0 1 .988-1.256c.466-.307 1.021-.46 1.665-.46.614 0 1.146.138 1.597.415a2.77 2.77 0 0 1 1.057 1.147c.253.489.378 1.06.375 1.716v5.563h-2.779v-5.017c.004-.485-.119-.864-.369-1.137-.246-.273-.589-.409-1.029-.409-.291 0-.549.064-.772.193-.22.125-.39.305-.512.54a1.935 1.935 0 0 0-.181.852Zm12.288-3.75v2.045h-5.506v-2.046h5.506Zm-4.352-2.092h2.778v8.074c0 .17.027.309.08.415a.493.493 0 0 0 .244.222c.106.041.233.062.381.062.106 0 .217-.01.335-.028.121-.023.212-.042.273-.057l.42 2.006c-.133.037-.32.085-.562.142a4.677 4.677 0 0 1-.858.108c-.652.03-1.211-.046-1.677-.228a2.172 2.172 0 0 1-1.062-.863c-.242-.39-.36-.881-.352-1.472v-8.38Zm5.77 10.819v-8.728h2.698v1.591h.091c.159-.575.419-1.003.779-1.284.36-.284.778-.426 1.255-.426.129 0 .262.01.398.028.136.016.263.04.381.074v2.415a2.661 2.661 0 0 0-.523-.108 4.625 4.625 0 0 0-.568-.04 1.8 1.8 0 0 0-.892.222 1.584 1.584 0 0 0-.619.608c-.148.258-.222.56-.222.909v4.739h-2.778Zm8.698 3.272c-.333 0-.647-.026-.943-.08a3.806 3.806 0 0 1-.761-.198l.613-2.017c.273.09.519.144.739.159.224.015.415-.02.574-.108.163-.083.288-.233.375-.449l.108-.261-3.102-9.046h2.909l1.608 6.228h.091l1.63-6.228h2.926l-3.289 9.563a4.046 4.046 0 0 1-.676 1.261 2.937 2.937 0 0 1-1.12.864c-.454.208-1.015.312-1.682.312Z"/><g filter="url(#b)"><path stroke="#F1F3F7" stroke-linecap="round" stroke-linejoin="round" stroke-width="10" d="M245.762 173.445a75.008 75.008 0 0 1-21.967 53.033 75 75 0 1 1 21.967-53.033h0Z"/></g><g filter="url(#c)"><path stroke="#F1F3F7" stroke-linecap="round" stroke-linejoin="round" stroke-width="10" d="M230.762 173.445c0 7.88-1.552 15.682-4.568 22.961a59.99 59.99 0 0 1-32.471 32.472 60.008 60.008 0 0 1-65.388-13.006 60.005 60.005 0 0 1-13.006-65.388 60.001 60.001 0 0 1 115.433 22.961h0Z"/></g><g filter="url(#d)"><path stroke="#F1F3F7" stroke-linecap="round" stroke-linejoin="round" stroke-width="10" d="M215.762 173.445a44.991 44.991 0 0 1-13.18 31.82 45.008 45.008 0 0 1-31.82 13.18 45.009 45.009 0 0 1-31.82-13.18 45.003 45.003 0 0 1-9.755-49.04 44.993 44.993 0 0 1 24.354-24.354 44.991 44.991 0 0 1 34.441 0 44.992 44.992 0 0 1 24.354 24.354 44.986 44.986 0 0 1 3.426 17.22h0Z"/></g><g filter="url(#e)"><path stroke="#2388FF" stroke-linecap="round" stroke-linejoin="round" stroke-width="10" d="M245.762 173.445a74.999 74.999 0 0 1-84.4 74.409 75.001 75.001 0 0 1-4.654-148.08"/></g><g filter="url(#f)"><path stroke="#4E9FFF" stroke-linecap="round" stroke-linejoin="round" stroke-width="10" d="M230.762 173.445a59.998 59.998 0 0 1-111.645 30.543 59.996 59.996 0 0 1 8.557-72.297 59.998 59.998 0 0 1 71.993-10.824"/></g><g filter="url(#g)"><path stroke="#8DC1FF" stroke-linecap="round" stroke-linejoin="round" stroke-width="10" d="M215.762 173.161a44.479 44.479 0 0 1-3.697 17.75 44.716 44.716 0 0 1-10.488 14.837 45.053 45.053 0 0 1-15.564 9.482 45.252 45.252 0 0 1-35.691-2.232 44.939 44.939 0 0 1-14.242-11.345 44.612 44.612 0 0 1-8.534-16.024 44.455 44.455 0 0 1-1.43-18.069"/></g><path fill="#6D758F" d="M161.534 180.965h1.318v4.751c0 .521-.123.979-.37 1.374a2.485 2.485 0 0 1-1.029.927c-.443.22-.96.33-1.552.33-.594 0-1.113-.11-1.556-.33a2.485 2.485 0 0 1-1.029-.927c-.244-.395-.366-.853-.366-1.374v-4.751h1.317v4.641c0 .303.067.573.199.81.135.236.324.422.568.557.244.133.533.199.867.199.334 0 .622-.066.866-.199.246-.135.436-.321.568-.557.133-.237.199-.507.199-.81v-4.641Zm7.004 3.26-1.172.127a.935.935 0 0 0-.501-.586 1.202 1.202 0 0 0-.504-.095c-.267 0-.492.058-.675.174-.179.116-.268.266-.266.451a.475.475 0 0 0 .174.387c.121.099.32.181.597.245l.93.199c.516.111.9.287 1.151.529.253.241.381.557.383.948a1.481 1.481 0 0 1-.302.909 1.94 1.94 0 0 1-.82.611c-.35.146-.753.22-1.207.22-.668 0-1.205-.14-1.613-.419a1.69 1.69 0 0 1-.728-1.176l1.254-.12a.884.884 0 0 0 .362.557c.185.126.425.188.721.188.305 0 .551-.062.735-.188.187-.125.281-.28.281-.465a.487.487 0 0 0-.181-.387c-.119-.102-.303-.18-.554-.234l-.931-.196c-.523-.109-.91-.292-1.161-.55-.251-.261-.375-.59-.373-.987a1.398 1.398 0 0 1 .274-.874c.187-.249.446-.44.777-.575a3.004 3.004 0 0 1 1.154-.206c.64 0 1.143.136 1.51.408.369.272.597.641.685 1.105Zm3.592 4.119c-.547 0-1.019-.114-1.417-.341-.395-.23-.7-.554-.913-.973-.213-.421-.319-.917-.319-1.488 0-.561.106-1.054.319-1.477.216-.426.517-.758.902-.995.386-.239.84-.358 1.36-.358.337 0 .654.054.952.163.301.107.566.272.796.497.232.225.414.512.547.86.132.345.198.757.198 1.235v.395h-4.47v-.867h3.238a1.37 1.37 0 0 0-.16-.657 1.158 1.158 0 0 0-.436-.458 1.234 1.234 0 0 0-.647-.167 1.25 1.25 0 0 0-.692.192 1.313 1.313 0 0 0-.465.497 1.425 1.425 0 0 0-.167.671v.757c0 .317.058.589.174.816.116.225.278.398.486.519.209.118.452.177.732.177.187 0 .356-.026.508-.078.151-.054.282-.133.394-.238a.993.993 0 0 0 .252-.387l1.2.135c-.076.317-.22.594-.433.831a2.107 2.107 0 0 1-.81.547 3.096 3.096 0 0 1-1.129.192Zm3.513-.107v-5.454h1.246v.909h.057c.1-.315.27-.558.512-.728.243-.173.522-.259.834-.259.071 0 .15.003.238.01.09.005.165.013.224.025v1.183a1.336 1.336 0 0 0-.26-.05 2.318 2.318 0 0 0-.337-.025c-.234 0-.445.051-.632.153a1.119 1.119 0 0 0-.597 1.03v3.206h-1.285Zm8.276-4.012-1.172.127a.935.935 0 0 0-.501-.586 1.202 1.202 0 0 0-.504-.095c-.268 0-.492.058-.675.174-.18.116-.268.266-.266.451a.475.475 0 0 0 .174.387c.121.099.32.181.597.245l.93.199c.516.111.9.287 1.151.529.253.241.381.557.383.948a1.481 1.481 0 0 1-.302.909 1.94 1.94 0 0 1-.82.611c-.35.146-.753.22-1.208.22-.667 0-1.205-.14-1.612-.419a1.686 1.686 0 0 1-.728-1.176l1.254-.12a.88.88 0 0 0 .362.557c.185.126.425.188.721.188.305 0 .55-.062.735-.188.187-.125.281-.28.281-.465a.485.485 0 0 0-.182-.387c-.118-.102-.303-.18-.554-.234l-.93-.196c-.523-.109-.91-.292-1.161-.55-.251-.261-.375-.59-.373-.987a1.403 1.403 0 0 1 .273-.874 1.79 1.79 0 0 1 .778-.575 3.004 3.004 0 0 1 1.154-.206c.639 0 1.143.136 1.509.408.37.272.598.641.686 1.105Z"/><path fill="#353E5C" d="M158.21 177.834c-1.023 0-1.932-.176-2.727-.526-.791-.35-1.416-.838-1.875-1.463-.46-.625-.703-1.347-.732-2.166h2.671c.023.393.154.736.39 1.03.237.288.552.513.945.674.393.161.833.242 1.321.242.521 0 .982-.09 1.385-.27.402-.185.717-.44.944-.767.228-.327.339-.703.334-1.129a1.959 1.959 0 0 0-.341-1.165c-.232-.336-.568-.599-1.008-.788-.436-.19-.961-.285-1.577-.285h-1.285v-2.031h1.285c.507 0 .95-.087 1.328-.263.384-.175.684-.421.902-.738a1.9 1.9 0 0 0 .32-1.115c.005-.412-.088-.77-.277-1.073a1.871 1.871 0 0 0-.788-.717c-.337-.171-.732-.256-1.187-.256a3.12 3.12 0 0 0-1.235.242c-.379.161-.685.39-.917.689a1.744 1.744 0 0 0-.369 1.051h-2.535c.019-.815.253-1.53.703-2.145.454-.62 1.06-1.103 1.818-1.449.758-.35 1.607-.526 2.55-.526.97 0 1.813.183 2.528.547.72.36 1.276.845 1.669 1.456s.59 1.286.59 2.024c.004.82-.237 1.506-.725 2.06-.483.554-1.117.916-1.903 1.087v.113c1.022.142 1.806.521 2.351 1.137.549.611.821 1.37.816 2.28 0 .814-.232 1.543-.696 2.187-.459.639-1.093 1.141-1.903 1.506-.805.364-1.728.547-2.77.547Zm7.807-.199v-1.904l5.05-4.95c.483-.488.885-.921 1.207-1.3.322-.378.564-.745.725-1.1.161-.356.241-.734.241-1.137 0-.459-.104-.852-.312-1.179a2.085 2.085 0 0 0-.86-.767 2.77 2.77 0 0 0-1.243-.27c-.478 0-.897.1-1.257.299a2.06 2.06 0 0 0-.838.83c-.194.36-.291.789-.291 1.286h-2.507c0-.923.211-1.726.632-2.408a4.27 4.27 0 0 1 1.74-1.583c.744-.375 1.596-.562 2.557-.562.975 0 1.832.183 2.571.547.739.365 1.312.864 1.719 1.499.412.634.618 1.359.618 2.173 0 .545-.105 1.08-.313 1.605-.208.526-.575 1.108-1.101 1.747-.521.64-1.252 1.414-2.194 2.323l-2.507 2.55v.099h6.335v2.202h-9.972Zm12.564 0v-14.546h2.635v6.684h.178l5.674-6.684h3.218l-5.625 6.527 5.674 8.019h-3.167l-4.34-6.236-1.612 1.903v4.333h-2.635Z"/><g filter="url(#h)"><rect width="12" height="12" x="36.762" y="280.445" fill="#2388FF" rx="6"/></g><path fill="#353E5C" d="M59.546 282.218h1.057v5.778c0 .597-.141 1.13-.422 1.598a2.956 2.956 0 0 1-1.18 1.104c-.51.267-1.106.401-1.79.401-.685 0-1.282-.134-1.79-.401a2.985 2.985 0 0 1-1.185-1.104 3.065 3.065 0 0 1-.417-1.598v-5.778h1.056v5.693c0 .426.094.806.282 1.138.187.33.454.589.8.78.35.187.768.281 1.254.281.485 0 .903-.094 1.252-.281.35-.191.617-.45.802-.78a2.28 2.28 0 0 0 .28-1.138v-5.693Zm7.94 2.182a1.338 1.338 0 0 0-.622-1.006c-.364-.238-.81-.358-1.338-.358-.387 0-.725.063-1.015.188a1.624 1.624 0 0 0-.673.515 1.239 1.239 0 0 0-.239.746c0 .233.056.433.167.601.113.165.258.302.434.413.176.108.361.198.554.269.193.068.371.123.533.166l.886.239c.228.059.48.142.759.247.281.105.55.248.805.43.259.179.472.409.64.69.167.282.25.627.25 1.036 0 .472-.123.898-.37 1.278-.244.381-.602.684-1.074.908-.469.225-1.038.337-1.709.337-.625 0-1.166-.101-1.623-.303a2.588 2.588 0 0 1-1.074-.844 2.402 2.402 0 0 1-.439-1.257h1.091c.028.33.14.603.332.818.196.214.443.373.742.478.301.102.625.153.971.153.404 0 .766-.065 1.087-.196.321-.133.575-.318.763-.554.187-.238.281-.517.281-.835 0-.29-.08-.526-.243-.707a1.786 1.786 0 0 0-.639-.444 6.781 6.781 0 0 0-.856-.298l-1.074-.307c-.682-.196-1.222-.476-1.62-.839-.397-.364-.596-.84-.596-1.428 0-.488.132-.915.396-1.278a2.622 2.622 0 0 1 1.074-.852 3.619 3.619 0 0 1 1.513-.307c.562 0 1.062.101 1.5.302a2.6 2.6 0 0 1 1.04.818c.258.347.394.741.409 1.181h-1.023Zm3.237 6.545h-1.108l3.205-8.727h1.09l3.205 8.727h-1.108l-2.608-7.346h-.068l-2.608 7.346Zm.41-3.409h4.465v.938h-4.466v-.938Zm11.805 3.409 3.903-7.721v-.068h-4.5v-.938h5.591v.989l-3.886 7.738h-1.108Zm6.583 0v-.767l2.88-3.153c.338-.369.617-.69.836-.963.218-.276.38-.534.485-.776.108-.244.162-.5.162-.767 0-.307-.074-.572-.221-.797a1.446 1.446 0 0 0-.597-.52 1.937 1.937 0 0 0-.852-.183c-.335 0-.628.07-.878.209a1.435 1.435 0 0 0-.575.575c-.134.247-.2.537-.2.87h-1.006c0-.512.118-.961.353-1.347.236-.386.557-.688.963-.903.41-.216.868-.324 1.377-.324.511 0 .964.108 1.36.324.394.215.704.507.928.873.225.367.337.774.337 1.223 0 .321-.058.635-.175.942-.113.304-.312.643-.596 1.018-.282.373-.672.827-1.172 1.364l-1.96 2.097v.068h4.056v.937h-5.505Zm11.714-1.636v-.46c0-.318.065-.61.196-.874.134-.267.327-.48.58-.639.255-.162.565-.243.929-.243.369 0 .679.081.929.243.25.159.439.372.566.639.128.264.192.556.192.874v.46c0 .318-.065.611-.196.878a1.549 1.549 0 0 1-.571.639c-.25.159-.557.239-.92.239-.37 0-.681-.08-.934-.239a1.587 1.587 0 0 1-.575-.639 1.967 1.967 0 0 1-.196-.878Zm.869-.46v.46c0 .264.063.501.188.712.125.207.341.311.648.311.298 0 .508-.104.63-.311a1.37 1.37 0 0 0 .188-.712v-.46c0-.264-.06-.5-.179-.708-.119-.21-.333-.315-.639-.315-.299 0-.513.105-.644.315a1.323 1.323 0 0 0-.192.708Zm-5.216-4.534v-.461c0-.318.066-.609.197-.873.133-.267.326-.48.58-.639.255-.162.564-.243.928-.243.37 0 .679.081.929.243.25.159.439.372.567.639.128.264.192.555.192.873v.461c0 .318-.066.61-.196.877a1.55 1.55 0 0 1-.572.64c-.25.159-.556.238-.92.238-.37 0-.68-.079-.933-.238a1.576 1.576 0 0 1-.575-.64 1.966 1.966 0 0 1-.197-.877Zm.87-.461v.461c0 .264.062.501.187.711.125.208.341.311.648.311.298 0 .509-.103.63-.311.126-.21.188-.447.188-.711v-.461c0-.264-.06-.5-.179-.707-.12-.21-.332-.315-.639-.315-.298 0-.513.105-.643.315a1.318 1.318 0 0 0-.192.707Zm-.546 7.091 6-8.727h.972l-6 8.727h-.972Z"/><g filter="url(#i)"><rect width="12" height="12" x="115.762" y="280.445" fill="#4E9FFF" rx="6"/></g><path fill="#353E5C" d="M139.841 284.945h-1.057a2.174 2.174 0 0 0-.328-.801 2.382 2.382 0 0 0-1.291-.937 2.892 2.892 0 0 0-.835-.12c-.529 0-1.007.134-1.436.401-.426.267-.766.66-1.019 1.18-.25.52-.375 1.158-.375 1.914 0 .755.125 1.393.375 1.913.253.52.593.913 1.019 1.18.429.267.907.401 1.436.401.29 0 .568-.04.835-.119.267-.08.51-.198.729-.354a2.248 2.248 0 0 0 .89-1.385h1.057a3.509 3.509 0 0 1-.434 1.197 3.3 3.3 0 0 1-.784.9c-.313.244-.664.43-1.053.558-.386.128-.8.192-1.24.192-.744 0-1.406-.182-1.986-.546-.579-.363-1.035-.881-1.368-1.551-.332-.67-.498-1.466-.498-2.386 0-.921.166-1.716.498-2.387.333-.67.789-1.187 1.368-1.551.58-.363 1.242-.545 1.986-.545.44 0 .854.064 1.24.191.389.128.74.316 1.053.563.312.244.573.543.784.895.21.349.355.748.434 1.197Zm3.498 6.154c-.415 0-.791-.078-1.129-.235a1.929 1.929 0 0 1-.806-.686c-.199-.301-.298-.665-.298-1.091 0-.375.074-.679.221-.912a1.58 1.58 0 0 1 .593-.554 3.12 3.12 0 0 1 .818-.298 10.1 10.1 0 0 1 .908-.162c.397-.051.72-.089.967-.115.25-.028.432-.075.545-.14.117-.066.175-.179.175-.341v-.034c0-.421-.115-.748-.345-.981-.227-.233-.573-.349-1.036-.349-.48 0-.856.105-1.129.315-.273.211-.464.435-.575.674l-.955-.341c.171-.398.398-.708.682-.929.287-.225.6-.381.938-.469a3.886 3.886 0 0 1 1.005-.136c.211 0 .452.025.725.076.275.049.541.149.797.303.258.153.473.385.643.694.171.31.256.725.256 1.245v4.312h-1.006v-.886h-.051a1.77 1.77 0 0 1-.341.456c-.159.162-.371.3-.635.413-.264.114-.587.171-.967.171Zm.153-.904c.398 0 .733-.078 1.006-.234a1.597 1.597 0 0 0 .835-1.385v-.92c-.043.051-.136.098-.281.14-.142.04-.307.075-.494.107-.185.028-.366.054-.542.076-.173.02-.314.037-.422.052a3.804 3.804 0 0 0-.732.166 1.267 1.267 0 0 0-.546.336c-.136.148-.204.35-.204.605 0 .35.129.614.387.793.262.176.593.264.993.264Zm5.688-3.187v3.937h-1.006V284.4h.972v1.023h.085c.154-.333.387-.6.699-.802.313-.204.716-.306 1.21-.306.443 0 .831.091 1.164.272.332.179.591.452.775.819.185.363.277.823.277 1.38v4.159h-1.006v-4.091c0-.514-.133-.914-.4-1.201-.267-.29-.634-.435-1.1-.435-.321 0-.607.07-.86.209-.25.139-.448.342-.593.609-.145.267-.217.591-.217.972Zm7.94 4.091c-.415 0-.791-.078-1.129-.235a1.935 1.935 0 0 1-.806-.686c-.198-.301-.298-.665-.298-1.091 0-.375.074-.679.222-.912.147-.235.345-.42.592-.554a3.12 3.12 0 0 1 .818-.298 10.1 10.1 0 0 1 .908-.162c.398-.051.72-.089.967-.115.25-.028.432-.075.546-.14.116-.066.174-.179.174-.341v-.034c0-.421-.115-.748-.345-.981-.227-.233-.572-.349-1.035-.349-.48 0-.857.105-1.13.315-.272.211-.464.435-.575.674l-.954-.341c.17-.398.397-.708.681-.929.287-.225.6-.381.938-.469a3.888 3.888 0 0 1 1.006-.136c.21 0 .451.025.724.076.276.049.541.149.797.303.258.153.473.385.643.694.171.31.256.725.256 1.245v4.312h-1.006v-.886h-.051a1.77 1.77 0 0 1-.341.456c-.159.162-.37.3-.635.413-.264.114-.586.171-.967.171Zm.153-.904c.398 0 .733-.078 1.006-.234a1.59 1.59 0 0 0 .835-1.385v-.92c-.042.051-.136.098-.281.14-.142.04-.307.075-.494.107-.185.028-.365.054-.541.076-.174.02-.314.037-.422.052a3.798 3.798 0 0 0-.733.166 1.272 1.272 0 0 0-.546.336c-.136.148-.204.35-.204.605 0 .35.129.614.388.793.261.176.592.264.992.264Zm7.154.887a2.557 2.557 0 0 1-1.444-.414c-.418-.278-.745-.67-.981-1.176-.235-.508-.353-1.109-.353-1.802 0-.688.118-1.284.353-1.79.236-.506.564-.896.985-1.172.42-.276.906-.413 1.457-.413.426 0 .763.071 1.01.213.25.139.441.298.571.477.134.176.237.321.311.435h.086v-3.222h1.005v8.727h-.971v-1.005h-.12c-.074.119-.179.27-.315.451-.136.179-.331.34-.584.482-.253.139-.589.209-1.01.209Zm.137-.904c.403 0 .744-.105 1.022-.315.279-.213.49-.507.635-.882.145-.378.218-.814.218-1.308 0-.489-.071-.917-.214-1.283a1.873 1.873 0 0 0-.63-.861c-.279-.207-.622-.311-1.031-.311-.427 0-.782.109-1.066.328-.281.216-.493.51-.635.882-.139.37-.209.784-.209 1.245 0 .465.071.889.214 1.269.144.378.357.679.639.904.284.221.636.332 1.057.332Zm6.771.921c-.415 0-.791-.078-1.129-.235a1.935 1.935 0 0 1-.806-.686c-.199-.301-.298-.665-.298-1.091 0-.375.074-.679.222-.912.147-.235.345-.42.592-.554a3.12 3.12 0 0 1 .818-.298 10.1 10.1 0 0 1 .908-.162c.397-.051.72-.089.967-.115.25-.028.432-.075.545-.14.117-.066.175-.179.175-.341v-.034c0-.421-.115-.748-.345-.981-.227-.233-.572-.349-1.035-.349-.481 0-.857.105-1.13.315-.272.211-.464.435-.575.674l-.955-.341c.171-.398.398-.708.682-.929.287-.225.6-.381.938-.469a3.886 3.886 0 0 1 1.005-.136c.211 0 .452.025.725.076.275.049.541.149.797.303.258.153.473.385.643.694.171.31.256.725.256 1.245v4.312h-1.006v-.886h-.051a1.77 1.77 0 0 1-.341.456c-.159.162-.371.3-.635.413-.264.114-.586.171-.967.171Zm.153-.904c.398 0 .733-.078 1.006-.234a1.59 1.59 0 0 0 .835-1.385v-.92c-.042.051-.136.098-.281.14-.142.04-.307.075-.494.107-.185.028-.365.054-.542.076-.173.02-.313.037-.421.052a3.798 3.798 0 0 0-.733.166 1.267 1.267 0 0 0-.546.336c-.136.148-.204.35-.204.605 0 .35.129.614.387.793.262.176.593.264.993.264Zm11.973.87c-.586 0-1.103-.104-1.552-.311a2.545 2.545 0 0 1-1.044-.866 2.169 2.169 0 0 1-.37-1.261 2.317 2.317 0 0 1 .822-1.811 1.86 1.86 0 0 1 .865-.405v-.051a1.685 1.685 0 0 1-.997-.703 2.13 2.13 0 0 1-.366-1.24c-.003-.443.109-.84.336-1.189.227-.349.54-.625.938-.827.4-.201.856-.302 1.368-.302.505 0 .957.101 1.355.302.397.202.71.478.937.827.23.349.347.746.35 1.189-.003.463-.13.876-.38 1.24a1.68 1.68 0 0 1-.984.703v.051c.315.057.599.192.852.405.253.21.455.473.605.788.151.313.228.654.23 1.023-.002.472-.13.892-.383 1.261-.25.367-.598.655-1.044.866-.443.207-.956.311-1.538.311Zm0-.938c.394 0 .735-.064 1.022-.192.287-.127.509-.308.665-.541.156-.233.236-.506.239-.818a1.569 1.569 0 0 0-.256-.874 1.742 1.742 0 0 0-.686-.596 2.153 2.153 0 0 0-.984-.218c-.373 0-.705.073-.998.218a1.749 1.749 0 0 0-.686.596 1.552 1.552 0 0 0-.243.874 1.44 1.44 0 0 0 .226.818c.157.233.38.414.669.541.29.128.634.192 1.032.192Zm0-4.142c.312 0 .589-.062.831-.187.244-.125.436-.3.575-.525.139-.224.21-.487.213-.788a1.46 1.46 0 0 0-.209-.771 1.353 1.353 0 0 0-.567-.512 1.843 1.843 0 0 0-.843-.183c-.327 0-.613.061-.857.183a1.33 1.33 0 0 0-.567.512 1.428 1.428 0 0 0-.196.771c-.003.301.064.564.201.788.139.225.331.4.575.525.244.125.525.187.844.187Zm7.548 5.08c-.563 0-1.064-.097-1.505-.29a2.58 2.58 0 0 1-1.044-.806 2.161 2.161 0 0 1-.417-1.206h1.073c.023.282.12.525.29.729.171.202.394.358.669.469.276.111.581.166.916.166.375 0 .708-.065.998-.196.289-.131.517-.312.681-.545.165-.233.248-.503.248-.81 0-.321-.08-.604-.239-.848a1.586 1.586 0 0 0-.699-.58c-.307-.139-.682-.208-1.125-.208h-.699v-.938h.699c.347 0 .651-.062.912-.187a1.47 1.47 0 0 0 .618-.529c.151-.227.226-.494.226-.801 0-.295-.066-.552-.196-.771a1.352 1.352 0 0 0-.554-.512 1.795 1.795 0 0 0-.835-.183c-.302 0-.586.056-.853.166-.264.108-.48.266-.647.473a1.23 1.23 0 0 0-.273.742h-1.023c.017-.458.155-.858.413-1.202a2.619 2.619 0 0 1 1.015-.81c.42-.193.882-.289 1.385-.289.539 0 1.002.109 1.389.328.386.216.683.501.89.856.208.355.312.739.312 1.151 0 .491-.13.91-.388 1.257a1.962 1.962 0 0 1-1.044.72v.068c.551.091.981.326 1.291.704.31.375.464.839.464 1.393 0 .474-.129.901-.387 1.278a2.642 2.642 0 0 1-1.049.887c-.443.216-.947.324-1.512.324Zm9.14-1.756v-.46c0-.318.065-.61.196-.874.134-.267.327-.48.58-.639.255-.162.565-.243.929-.243.369 0 .679.081.929.243.25.159.439.372.566.639.128.264.192.556.192.874v.46c0 .318-.065.611-.196.878a1.549 1.549 0 0 1-.571.639c-.25.159-.557.239-.92.239-.37 0-.681-.08-.934-.239a1.587 1.587 0 0 1-.575-.639 1.967 1.967 0 0 1-.196-.878Zm.869-.46v.46c0 .264.063.501.188.712.125.207.341.311.648.311.298 0 .508-.104.63-.311a1.37 1.37 0 0 0 .188-.712v-.46c0-.264-.06-.5-.179-.708-.119-.21-.332-.315-.639-.315-.299 0-.513.105-.644.315a1.323 1.323 0 0 0-.192.708Zm-5.215-4.534v-.461c0-.318.065-.609.196-.873.133-.267.326-.48.579-.639.256-.162.565-.243.929-.243.369 0 .679.081.929.243.25.159.439.372.567.639.128.264.192.555.192.873v.461c0 .318-.066.61-.196.877a1.552 1.552 0 0 1-.571.64c-.25.159-.557.238-.921.238-.369 0-.68-.079-.933-.238a1.569 1.569 0 0 1-.575-.64 1.962 1.962 0 0 1-.196-.877Zm.869-.461v.461c0 .264.062.501.187.711.125.208.341.311.648.311.298 0 .509-.103.631-.311.125-.21.187-.447.187-.711v-.461c0-.264-.059-.5-.179-.707-.119-.21-.332-.315-.639-.315-.298 0-.513.105-.643.315a1.317 1.317 0 0 0-.192.707Zm-.546 7.091 6-8.727h.972l-6 8.727h-.972Z"/><g filter="url(#j)"><rect width="12" height="12" x="214.762" y="280.445" fill="#8DC1FF" rx="6"/></g><path fill="#353E5C" d="M238.841 284.945h-1.057a2.174 2.174 0 0 0-.328-.801 2.382 2.382 0 0 0-1.291-.937 2.892 2.892 0 0 0-.835-.12c-.529 0-1.007.134-1.436.401-.426.267-.766.66-1.019 1.18-.25.52-.375 1.158-.375 1.914 0 .755.125 1.393.375 1.913.253.52.593.913 1.019 1.18.429.267.907.401 1.436.401.29 0 .568-.04.835-.119.267-.08.51-.198.729-.354a2.248 2.248 0 0 0 .89-1.385h1.057a3.509 3.509 0 0 1-.434 1.197 3.3 3.3 0 0 1-.784.9c-.313.244-.664.43-1.053.558-.386.128-.8.192-1.24.192-.744 0-1.406-.182-1.986-.546-.579-.363-1.035-.881-1.368-1.551-.332-.67-.498-1.466-.498-2.386 0-.921.166-1.716.498-2.387.333-.67.789-1.187 1.368-1.551.58-.363 1.242-.545 1.986-.545.44 0 .854.064 1.24.191.389.128.74.316 1.053.563.312.244.573.543.784.895.21.349.355.748.434 1.197Zm3.498 6.154c-.415 0-.791-.078-1.129-.235a1.929 1.929 0 0 1-.806-.686c-.199-.301-.298-.665-.298-1.091 0-.375.074-.679.221-.912a1.58 1.58 0 0 1 .593-.554 3.12 3.12 0 0 1 .818-.298 10.1 10.1 0 0 1 .908-.162c.397-.051.72-.089.967-.115.25-.028.432-.075.545-.14.117-.066.175-.179.175-.341v-.034c0-.421-.115-.748-.345-.981-.227-.233-.573-.349-1.036-.349-.48 0-.856.105-1.129.315-.273.211-.464.435-.575.674l-.955-.341c.171-.398.398-.708.682-.929.287-.225.6-.381.938-.469a3.886 3.886 0 0 1 1.005-.136c.211 0 .452.025.725.076.275.049.541.149.797.303.258.153.473.385.643.694.171.31.256.725.256 1.245v4.312h-1.006v-.886h-.051a1.77 1.77 0 0 1-.341.456c-.159.162-.371.3-.635.413-.264.114-.587.171-.967.171Zm.153-.904c.398 0 .733-.078 1.006-.234a1.597 1.597 0 0 0 .835-1.385v-.92c-.043.051-.136.098-.281.14-.142.04-.307.075-.494.107-.185.028-.366.054-.542.076-.173.02-.314.037-.422.052a3.804 3.804 0 0 0-.732.166 1.267 1.267 0 0 0-.546.336c-.136.148-.204.35-.204.605 0 .35.129.614.387.793.262.176.593.264.993.264Zm5.688-3.187v3.937h-1.006V284.4h.972v1.023h.085c.154-.333.387-.6.699-.802.313-.204.716-.306 1.21-.306.443 0 .831.091 1.164.272.332.179.591.452.775.819.185.363.277.823.277 1.38v4.159h-1.006v-4.091c0-.514-.133-.914-.4-1.201-.267-.29-.634-.435-1.1-.435-.321 0-.607.07-.86.209-.25.139-.448.342-.593.609-.145.267-.217.591-.217.972Zm7.94 4.091c-.415 0-.791-.078-1.129-.235a1.935 1.935 0 0 1-.806-.686c-.198-.301-.298-.665-.298-1.091 0-.375.074-.679.222-.912.147-.235.345-.42.592-.554a3.12 3.12 0 0 1 .818-.298 10.1 10.1 0 0 1 .908-.162c.398-.051.72-.089.967-.115.25-.028.432-.075.546-.14.116-.066.174-.179.174-.341v-.034c0-.421-.115-.748-.345-.981-.227-.233-.572-.349-1.035-.349-.48 0-.857.105-1.13.315-.272.211-.464.435-.575.674l-.954-.341c.17-.398.397-.708.681-.929.287-.225.6-.381.938-.469a3.888 3.888 0 0 1 1.006-.136c.21 0 .451.025.724.076.276.049.541.149.797.303.258.153.473.385.643.694.171.31.256.725.256 1.245v4.312h-1.006v-.886h-.051a1.77 1.77 0 0 1-.341.456c-.159.162-.37.3-.635.413-.264.114-.586.171-.967.171Zm.153-.904c.398 0 .733-.078 1.006-.234a1.59 1.59 0 0 0 .835-1.385v-.92c-.042.051-.136.098-.281.14-.142.04-.307.075-.494.107-.185.028-.365.054-.541.076-.174.02-.314.037-.422.052a3.798 3.798 0 0 0-.733.166 1.272 1.272 0 0 0-.546.336c-.136.148-.204.35-.204.605 0 .35.129.614.388.793.261.176.592.264.992.264Zm7.154.887a2.557 2.557 0 0 1-1.444-.414c-.418-.278-.745-.67-.981-1.176-.235-.508-.353-1.109-.353-1.802 0-.688.118-1.284.353-1.79.236-.506.564-.896.985-1.172.42-.276.906-.413 1.457-.413.426 0 .763.071 1.01.213.25.139.441.298.571.477.134.176.237.321.311.435h.086v-3.222h1.005v8.727h-.971v-1.005h-.12c-.074.119-.179.27-.315.451-.136.179-.331.34-.584.482-.253.139-.589.209-1.01.209Zm.137-.904c.403 0 .744-.105 1.022-.315.279-.213.49-.507.635-.882.145-.378.218-.814.218-1.308 0-.489-.071-.917-.214-1.283a1.873 1.873 0 0 0-.63-.861c-.279-.207-.622-.311-1.031-.311-.427 0-.782.109-1.066.328-.281.216-.493.51-.635.882-.139.37-.209.784-.209 1.245 0 .465.071.889.214 1.269.144.378.357.679.639.904.284.221.636.332 1.057.332Zm6.771.921c-.415 0-.791-.078-1.129-.235a1.935 1.935 0 0 1-.806-.686c-.199-.301-.298-.665-.298-1.091 0-.375.074-.679.222-.912.147-.235.345-.42.592-.554a3.12 3.12 0 0 1 .818-.298 10.1 10.1 0 0 1 .908-.162c.397-.051.72-.089.967-.115.25-.028.432-.075.545-.14.117-.066.175-.179.175-.341v-.034c0-.421-.115-.748-.345-.981-.227-.233-.572-.349-1.035-.349-.481 0-.857.105-1.13.315-.272.211-.464.435-.575.674l-.955-.341c.171-.398.398-.708.682-.929.287-.225.6-.381.938-.469a3.886 3.886 0 0 1 1.005-.136c.211 0 .452.025.725.076.275.049.541.149.797.303.258.153.473.385.643.694.171.31.256.725.256 1.245v4.312h-1.006v-.886h-.051a1.77 1.77 0 0 1-.341.456c-.159.162-.371.3-.635.413-.264.114-.586.171-.967.171Zm.153-.904c.398 0 .733-.078 1.006-.234a1.59 1.59 0 0 0 .835-1.385v-.92c-.042.051-.136.098-.281.14-.142.04-.307.075-.494.107-.185.028-.365.054-.542.076-.173.02-.313.037-.421.052a3.798 3.798 0 0 0-.733.166 1.267 1.267 0 0 0-.546.336c-.136.148-.204.35-.204.605 0 .35.129.614.387.793.262.176.593.264.993.264Zm11.904.87c-.5 0-.95-.1-1.35-.299a2.51 2.51 0 0 1-.964-.818 2.232 2.232 0 0 1-.396-1.185h1.023c.04.395.219.722.537.981.321.255.704.383 1.15.383.358 0 .677-.084.955-.251.281-.168.501-.398.66-.691.162-.295.243-.629.243-1.001 0-.381-.083-.72-.251-1.019a1.843 1.843 0 0 0-.682-.711 1.922 1.922 0 0 0-.993-.264 2.725 2.725 0 0 0-.822.123 2.301 2.301 0 0 0-.695.32l-.988-.12.528-4.295h4.534v.938h-3.648l-.307 2.573h.052c.179-.142.403-.26.673-.353.27-.094.551-.141.844-.141.534 0 1.01.128 1.427.384.421.252.75.599.989 1.039.241.441.362.944.362 1.509 0 .557-.125 1.054-.375 1.491a2.74 2.74 0 0 1-1.023 1.032c-.434.25-.929.375-1.483.375Zm4.574-.12v-.767l2.881-3.153c.338-.369.616-.69.835-.963.219-.276.381-.534.486-.776.108-.244.162-.5.162-.767 0-.307-.074-.572-.222-.797a1.448 1.448 0 0 0-.597-.52 1.933 1.933 0 0 0-.852-.183c-.335 0-.628.07-.878.209a1.434 1.434 0 0 0-.575.575c-.134.247-.2.537-.2.87H287c0-.512.118-.961.354-1.347.235-.386.557-.688.963-.903a2.902 2.902 0 0 1 1.376-.324c.512 0 .965.108 1.36.324.394.215.704.507.929.873a2.3 2.3 0 0 1 .336 1.223c0 .321-.058.635-.175.942-.113.304-.312.643-.596 1.018-.281.373-.672.827-1.172 1.364l-1.96 2.097v.068h4.057v.937h-5.506Zm11.714-1.636v-.46c0-.318.066-.61.196-.874.134-.267.327-.48.58-.639.256-.162.565-.243.929-.243.369 0 .679.081.929.243.25.159.439.372.567.639.128.264.191.556.191.874v.46c0 .318-.065.611-.196.878a1.542 1.542 0 0 1-.571.639c-.25.159-.556.239-.92.239-.369 0-.68-.08-.933-.239a1.582 1.582 0 0 1-.576-.639 1.98 1.98 0 0 1-.196-.878Zm.87-.46v.46c0 .264.062.501.187.712.125.207.341.311.648.311.298 0 .508-.104.631-.311a1.37 1.37 0 0 0 .187-.712v-.46c0-.264-.06-.5-.179-.708-.119-.21-.332-.315-.639-.315-.298 0-.513.105-.644.315a1.332 1.332 0 0 0-.191.708Zm-5.216-4.534v-.461c0-.318.065-.609.196-.873.133-.267.327-.48.579-.639.256-.162.566-.243.929-.243.37 0 .679.081.929.243.25.159.439.372.567.639.128.264.192.555.192.873v.461c0 .318-.065.61-.196.877a1.545 1.545 0 0 1-.571.64c-.25.159-.557.238-.921.238-.369 0-.68-.079-.933-.238a1.576 1.576 0 0 1-.575-.64 1.962 1.962 0 0 1-.196-.877Zm.869-.461v.461c0 .264.063.501.188.711.125.208.341.311.647.311.299 0 .509-.103.631-.311.125-.21.188-.447.188-.711v-.461c0-.264-.06-.5-.179-.707-.12-.21-.333-.315-.64-.315-.298 0-.512.105-.643.315a1.317 1.317 0 0 0-.192.707Zm-.545 7.091 6-8.727h.971l-6 8.727h-.971Z"/></g><defs><filter id="a" width="339" height="329" x=".762" y=".445" color-interpolation-filters="sRGB" filterUnits="userSpaceOnUse"><feFlood flood-opacity="0" result="BackgroundImageFix"/><feColorMatrix in="SourceAlpha" result="hardAlpha" values="0 0 0 0 0 0 0 0 0 0 0 0 0 0 0 0 0 0 127 0"/><feOffset dy="1"/><feGaussianBlur stdDeviation="2"/><feComposite in2="hardAlpha" operator="out"/><feColorMatrix values="0 0 0 0 0.0969792 0 0 0 0 0.127894 0 0 0 0 0.2375 0 0 0 0.08 0"/><feBlend in2="BackgroundImageFix" result="effect1_dropShadow_6477_28718"/><feBlend in="SourceGraphic" in2="effect1_dropShadow_6477_28718" result="shape"/></filter><filter id="b" width="160" height="161.143" x="90.762" y="93.445" color-interpolation-filters="sRGB" filterUnits="userSpaceOnUse"><feFlood flood-opacity="0" result="BackgroundImageFix"/><feBlend in="SourceGraphic" in2="BackgroundImageFix" result="shape"/><feColorMatrix in="SourceAlpha" result="hardAlpha" values="0 0 0 0 0 0 0 0 0 0 0 0 0 0 0 0 0 0 127 0"/><feOffset dy="1.143"/><feGaussianBlur stdDeviation=".571"/><feComposite in2="hardAlpha" k2="-1" k3="1" operator="arithmetic"/><feColorMatrix values="0 0 0 0 0.645833 0 0 0 0 0.645833 0 0 0 0 0.645833 0 0 0 0.04 0"/><feBlend in2="shape" result="effect1_innerShadow_6477_28718"/></filter><filter id="c" width="130" height="131.143" x="105.762" y="108.445" color-interpolation-filters="sRGB" filterUnits="userSpaceOnUse"><feFlood flood-opacity="0" result="BackgroundImageFix"/><feBlend in="SourceGraphic" in2="BackgroundImageFix" result="shape"/><feColorMatrix in="SourceAlpha" result="hardAlpha" values="0 0 0 0 0 0 0 0 0 0 0 0 0 0 0 0 0 0 127 0"/><feOffset dy="1.143"/><feGaussianBlur stdDeviation=".571"/><feComposite in2="hardAlpha" k2="-1" k3="1" operator="arithmetic"/><feColorMatrix values="0 0 0 0 0.645833 0 0 0 0 0.645833 0 0 0 0 0.645833 0 0 0 0.04 0"/><feBlend in2="shape" result="effect1_innerShadow_6477_28718"/></filter><filter id="d" width="100" height="101.143" x="120.762" y="123.445" color-interpolation-filters="sRGB" filterUnits="userSpaceOnUse"><feFlood flood-opacity="0" result="BackgroundImageFix"/><feBlend in="SourceGraphic" in2="BackgroundImageFix" result="shape"/><feColorMatrix in="SourceAlpha" result="hardAlpha" values="0 0 0 0 0 0 0 0 0 0 0 0 0 0 0 0 0 0 127 0"/><feOffset dy="1.143"/><feGaussianBlur stdDeviation=".571"/><feComposite in2="hardAlpha" k2="-1" k3="1" operator="arithmetic"/><feColorMatrix values="0 0 0 0 0.645833 0 0 0 0 0.645833 0 0 0 0 0.645833 0 0 0 0.04 0"/><feBlend in2="shape" result="effect1_innerShadow_6477_28718"/></filter><filter id="e" width="162.286" height="160.959" x="89.619" y="93.63" color-interpolation-filters="sRGB" filterUnits="userSpaceOnUse"><feFlood flood-opacity="0" result="BackgroundImageFix"/><feColorMatrix in="SourceAlpha" result="hardAlpha" values="0 0 0 0 0 0 0 0 0 0 0 0 0 0 0 0 0 0 127 0"/><feOffset/><feGaussianBlur stdDeviation=".571"/><feComposite in2="hardAlpha" operator="out"/><feColorMatrix values="0 0 0 0 0.0306944 0 0 0 0 0.0816408 0 0 0 0 0.141667 0 0 0 0.2 0"/><feBlend in2="BackgroundImageFix" result="effect1_dropShadow_6477_28718"/><feBlend in="SourceGraphic" in2="effect1_dropShadow_6477_28718" result="shape"/></filter><filter id="f" width="132.286" height="132.286" x="104.619" y="107.302" color-interpolation-filters="sRGB" filterUnits="userSpaceOnUse"><feFlood flood-opacity="0" result="BackgroundImageFix"/><feColorMatrix in="SourceAlpha" result="hardAlpha" values="0 0 0 0 0 0 0 0 0 0 0 0 0 0 0 0 0 0 127 0"/><feOffset/><feGaussianBlur stdDeviation=".571"/><feComposite in2="hardAlpha" operator="out"/><feColorMatrix values="0 0 0 0 0.0306944 0 0 0 0 0.0816408 0 0 0 0 0.141667 0 0 0 0.2 0"/><feBlend in2="BackgroundImageFix" result="effect1_dropShadow_6477_28718"/><feBlend in="SourceGraphic" in2="effect1_dropShadow_6477_28718" result="shape"/></filter><filter id="g" width="102.286" height="62.603" x="119.619" y="161.417" color-interpolation-filters="sRGB" filterUnits="userSpaceOnUse"><feFlood flood-opacity="0" result="BackgroundImageFix"/><feColorMatrix in="SourceAlpha" result="hardAlpha" values="0 0 0 0 0 0 0 0 0 0 0 0 0 0 0 0 0 0 127 0"/><feOffset/><feGaussianBlur stdDeviation=".571"/><feComposite in2="hardAlpha" operator="out"/><feColorMatrix values="0 0 0 0 0.0306944 0 0 0 0 0.0816408 0 0 0 0 0.141667 0 0 0 0.2 0"/><feBlend in2="BackgroundImageFix" result="effect1_dropShadow_6477_28718"/><feBlend in="SourceGraphic" in2="effect1_dropShadow_6477_28718" result="shape"/></filter><filter id="h" width="20" height="20" x="32.762" y="277.445" color-interpolation-filters="sRGB" filterUnits="userSpaceOnUse"><feFlood flood-opacity="0" result="BackgroundImageFix"/><feColorMatrix in="SourceAlpha" result="hardAlpha" values="0 0 0 0 0 0 0 0 0 0 0 0 0 0 0 0 0 0 127 0"/><feOffset dy="1"/><feGaussianBlur stdDeviation="2"/><feComposite in2="hardAlpha" operator="out"/><feColorMatrix values="0 0 0 0 0.0969792 0 0 0 0 0.127894 0 0 0 0 0.2375 0 0 0 0.08 0"/><feBlend in2="BackgroundImageFix" result="effect1_dropShadow_6477_28718"/><feBlend in="SourceGraphic" in2="effect1_dropShadow_6477_28718" result="shape"/></filter><filter id="i" width="20" height="20" x="111.762" y="277.445" color-interpolation-filters="sRGB" filterUnits="userSpaceOnUse"><feFlood flood-opacity="0" result="BackgroundImageFix"/><feColorMatrix in="SourceAlpha" result="hardAlpha" values="0 0 0 0 0 0 0 0 0 0 0 0 0 0 0 0 0 0 127 0"/><feOffset dy="1"/><feGaussianBlur stdDeviation="2"/><feComposite in2="hardAlpha" operator="out"/><feColorMatrix values="0 0 0 0 0.0969792 0 0 0 0 0.127894 0 0 0 0 0.2375 0 0 0 0.08 0"/><feBlend in2="BackgroundImageFix" result="effect1_dropShadow_6477_28718"/><feBlend in="SourceGraphic" in2="effect1_dropShadow_6477_28718" result="shape"/></filter><filter id="j" width="20" height="20" x="210.762" y="277.445" color-interpolation-filters="sRGB" filterUnits="userSpaceOnUse"><feFlood flood-opacity="0" result="BackgroundImageFix"/><feColorMatrix in="SourceAlpha" result="hardAlpha" values="0 0 0 0 0 0 0 0 0 0 0 0 0 0 0 0 0 0 127 0"/><feOffset dy="1"/><feGaussianBlur stdDeviation="2"/><feComposite in2="hardAlpha" operator="out"/><feColorMatrix values="0 0 0 0 0.0969792 0 0 0 0 0.127894 0 0 0 0 0.2375 0 0 0 0.08 0"/><feBlend in2="BackgroundImageFix" result="effect1_dropShadow_6477_28718"/><feBlend in="SourceGraphic" in2="effect1_dropShadow_6477_28718" result="shape"/></filter></defs></svg>