<svg xmlns="http://www.w3.org/2000/svg" width="365" height="100" fill="none"><path fill="#1C1C1C" d="M30.788 40.52c12.001-5.74 21.394-15.48 26.786-27.656-3.478-3.653-8.001-6.262-12.871-7.827l-2.61-.87c-.173.348-.347.87-.347 1.218C37.57 17.213 29.048 26.779 17.568 32.17 9.567 35.998 3.653 42.956.87 51.305L0 53.914c.348.174.87.348 1.218.348a55.63 55.63 0 0 1 9.74 4.696c4.349-7.827 11.306-14.437 19.83-18.438Z"/><path fill="#1C1C1C" d="M81.23 41.217c-6.436 9.74-15.307 17.568-26.265 22.786-8.871 4.175-15.655 12.002-18.786 21.395l-.87 2.957c3.305 2.957 7.306 5.218 11.655 6.61l2.609.87c.174-.349.348-.87.348-1.218 4.174-11.828 12.697-21.395 24.177-26.787 8.002-3.827 14.09-10.785 16.699-19.134l.87-2.609c-3.654-1.044-7.132-2.783-10.437-4.87Z" opacity=".8"/><path fill="#1C1C1C" d="M28.352 79.31c4.348-10.437 12.35-18.96 22.612-23.83 9.393-4.523 17.22-11.48 22.612-20.004-4-3.826-7.305-8.175-9.74-13.393C57.4 33.911 47.312 43.478 34.962 49.392c-7.132 3.305-12.872 9.045-16.35 16.002 3.826 3.653 6.957 8.175 9.392 13.22l.348.695Z" opacity=".9"/><path fill="#1C1C1C" d="M112.396 70.833h29.312v-8.125h-19.875V27.083h-9.437v43.75Zm59.937-31.5h-8.75v17.25c0 4-2.688 7-6.5 7-3.563 0-6.063-2.75-6.063-6.563V39.334h-8.687v19.625c0 7.188 4.625 12.375 11.687 12.375 4.313 0 7.813-1.875 9.563-4.875v4.375h8.75v-31.5Zm3.25 31.5h8.75V52.958c0-4.063 2.313-6.75 5.938-6.75 3.375 0 5.5 2.688 5.5 6.75v17.875h8.75V52.958c0-4.063 2.312-6.75 5.937-6.75 3.375 0 5.563 2.688 5.563 6.75v17.875h8.687V50.208c0-6.313-4.437-11.375-11.312-11.375-5.063 0-9 2.688-10.5 5.75-1.5-3.75-4.688-5.75-9.625-5.75-4.25 0-7.25 2.063-8.938 4.938v-4.438h-8.75v31.5Zm52.106-45.188v9.188h9.25v-9.188h-9.25Zm.25 45.188h8.75v-31.5h-8.75v31.5Zm12.012 0h8.75v-17.25c0-4.063 2.687-7 6.5-7 3.625 0 6.062 2.75 6.062 6.563v17.687h8.75V51.208c0-7.25-4.625-12.375-11.75-12.375-4.312 0-7.812 1.813-9.562 4.875v-4.375h-8.75v31.5Zm48.313.5c9.687 0 16.625-6.875 16.625-16.25s-6.938-16.25-16.625-16.25c-9.688 0-16.625 6.875-16.625 16.25s6.937 16.25 16.625 16.25Zm0-7.5c-4.688 0-7.875-3.563-7.875-8.75 0-5.25 3.187-8.813 7.875-8.813 4.687 0 7.875 3.563 7.875 8.813 0 5.188-3.188 8.75-7.875 8.75Zm48.314-24.5h-8.75v17.25c0 4-2.687 7-6.5 7-3.562 0-6.062-2.75-6.062-6.563V39.334h-8.688v19.625c0 7.188 4.625 12.375 11.688 12.375 4.312 0 7.812-1.875 9.562-4.875v4.375h8.75v-31.5Zm14.751 32c7.375 0 12.25-3.938 12.25-9.938 0-14.25-17.25-6.937-17.25-13.375 0-2 1.687-3.062 4.125-3.062 2.375 0 4.812 1.438 5.187 4.125h7.563c-.313-6.188-5.438-10.25-13-10.25-6.438 0-11.25 3.938-11.25 9.5 0 13.25 16.937 6.938 16.937 13.375 0 1.75-1.875 3.063-4.562 3.063-3.25 0-5.438-1.75-5.75-4.563h-7.5c.312 6.813 5.562 11.125 13.25 11.125Z"/></svg>