<svg xmlns="http://www.w3.org/2000/svg" width="380" height="100" fill="none"><g fill="#1C1C1C" clip-path="url(#a)"><path d="M56.812 8.588 48.02 6.23l-7.41 27.656-6.69-24.968-8.794 2.357 7.228 26.975L14.35 20.248l-6.437 6.437L27.66 46.433l-24.593-6.59-2.356 8.793 26.87 7.2a18.273 18.273 0 0 1-.47-4.13c0-10.055 8.152-18.207 18.208-18.207 10.055 0 18.207 8.152 18.207 18.207 0 1.412-.16 2.786-.465 4.105l24.421 6.543 2.356-8.793-26.978-7.229 24.595-6.59-2.356-8.793-26.977 7.228 18.004-18.003-6.437-6.438L50.215 33.21l6.597-24.622Z"/><path d="M63.036 55.913a18.171 18.171 0 0 1-4.53 8.345L76.198 81.95l6.437-6.437-19.6-19.6Zm-4.708 8.53a18.193 18.193 0 0 1-8.136 4.81L56.63 93.28l8.793-2.356-7.096-26.48Zm-8.465 4.898a18.237 18.237 0 0 1-4.546.572c-1.682 0-3.31-.228-4.856-.654l-6.444 24.047 8.794 2.356 7.052-26.32Zm-9.713-.171a18.205 18.205 0 0 1-7.993-4.881L14.422 82.024l6.437 6.437 19.29-19.291Zm-8.14-5.038a18.166 18.166 0 0 1-4.415-8.242l-24.5 6.565L5.45 71.25l26.56-7.117Z"/></g><path fill="#1C1C1C" d="M142.75 26.895v31.687l-20.312-31.688h-8.126v43.75h8.126V39.207l20.312 31.437h8.125v-43.75h-8.125Zm11.786 8.187h8.375v-8.188h-8.375v8.188Zm.125 35.562v-31.25h8.125v31.25h-8.125Zm43.084-15.624c0-10.813-7.688-15.938-15.813-16-8.187-.063-15.75 5.187-15.75 16 0 10.812 7.563 16.062 15.75 16 7.438-.063 12.563-3.5 14.938-9.188l-6.313-2.625c-1.937 3.875-5 5.25-8.625 5.312-3.125.063-6.687-1.437-7.437-7h23.062a16.22 16.22 0 0 0 .188-2.5Zm-15.813-9.563c3.125.063 6.313 1.75 7.313 6.25H174.62c1.062-4.563 4.25-6.313 7.312-6.25Zm34.59-.25v-6.188h-5.125v-8.374l-8.125 2.5v5.874h-5.125v6.188h5.125v16.188c0 6.124.5 9.25 10 9.25h2.187V63.52h-2.187c-1.5 0-1.875-.25-1.875-2.126V45.207h5.125Zm12.073 18.625 17.25-17.625v-6.813H219.97v6.813h16.75l-17.25 17.625v6.812h26.563v-6.812h-17.438Zm20.351-2 8.187-1.25c.563 3.125 4.25 4.312 6.5 4.312 2.313 0 6.313-.5 6.313-4.25 0-7.312-20.063 1.813-20.063-12.187 0-9 10.438-9.5 13.75-9.5 3.125 0 12.188.5 14.063 7.75l-7.75 1.625c-.688-3.313-4.188-3.938-6.063-3.938s-5.875.438-5.875 4.063c0 7.25 20.063-2 20.063 12.188 0 9.562-11 10.374-14.438 10.374-3.125 0-13.062-.812-14.687-9.187Zm39.68-6.812c0 7.624 4.062 9.937 8.312 9.874 3.813-.062 6.438-1.625 8-6l6.688 3.25c-2.438 6.375-8.375 8.813-14.688 8.875-8.187.063-16.437-5.187-16.437-16 0-10.812 8.25-16.062 16.437-16 6.313.063 12.25 2.5 14.688 8.876l-6.688 3.25c-1.562-4.376-4.187-5.938-8-6-4.25-.063-8.312 2.25-8.312 9.874Zm44.812-16.125c-4.188 0-8 2.187-10.438 6.874V26.896h-8.125v43.75H323V59.581c0-14.313 5.938-15.5 8.125-15.5 3.5 0 4 3.625 4 8.938v17.624h8.125V53.02c0-6.624-1.062-14.124-9.812-14.124Zm44.116 16.125c0-10.813-7.687-15.938-15.812-16-8.188-.063-15.75 5.187-15.75 16 0 10.812 7.562 16.062 15.75 16 7.437-.063 12.562-3.5 14.937-9.188l-6.312-2.625c-1.938 3.875-5 5.25-8.625 5.312-3.125.063-6.688-1.437-7.438-7h23.063c.125-.812.187-1.624.187-2.5Zm-15.812-9.563c3.125.063 6.312 1.75 7.312 6.25h-14.625c1.063-4.563 4.25-6.313 7.313-6.25Z"/><defs><clipPath id="a"><path fill="#fff" d="M0 4.167h91.667v91.667H0z"/></clipPath></defs></svg>